G04 #@! TF.GenerationSoftware,KiCad,Pcbnew,(6.0.9)*
G04 #@! TF.CreationDate,2022-12-01T15:56:23+01:00*
G04 #@! TF.ProjectId,Twin-T,5477696e-2d54-42e6-9b69-6361645f7063,rev?*
G04 #@! TF.SameCoordinates,Original*
G04 #@! TF.FileFunction,Legend,Top*
G04 #@! TF.FilePolarity,Positive*
%FSLAX46Y46*%
G04 Gerber Fmt 4.6, Leading zero omitted, Abs format (unit mm)*
G04 Created by KiCad (PCBNEW (6.0.9)) date 2022-12-01 15:56:23*
%MOMM*%
%LPD*%
G01*
G04 APERTURE LIST*
G04 Aperture macros list*
%AMRoundRect*
0 Rectangle with rounded corners*
0 $1 Rounding radius*
0 $2 $3 $4 $5 $6 $7 $8 $9 X,Y pos of 4 corners*
0 Add a 4 corners polygon primitive as box body*
4,1,4,$2,$3,$4,$5,$6,$7,$8,$9,$2,$3,0*
0 Add four circle primitives for the rounded corners*
1,1,$1+$1,$2,$3*
1,1,$1+$1,$4,$5*
1,1,$1+$1,$6,$7*
1,1,$1+$1,$8,$9*
0 Add four rect primitives between the rounded corners*
20,1,$1+$1,$2,$3,$4,$5,0*
20,1,$1+$1,$4,$5,$6,$7,0*
20,1,$1+$1,$6,$7,$8,$9,0*
20,1,$1+$1,$8,$9,$2,$3,0*%
G04 Aperture macros list end*
%ADD10C,0.150000*%
%ADD11C,0.300000*%
%ADD12C,0.120000*%
%ADD13R,1.700000X1.700000*%
%ADD14O,1.700000X1.700000*%
%ADD15C,1.440000*%
%ADD16RoundRect,0.250000X0.450000X-0.350000X0.450000X0.350000X-0.450000X0.350000X-0.450000X-0.350000X0*%
%ADD17C,5.600000*%
%ADD18C,3.600000*%
%ADD19RoundRect,0.250000X0.350000X0.450000X-0.350000X0.450000X-0.350000X-0.450000X0.350000X-0.450000X0*%
%ADD20R,2.400000X2.400000*%
%ADD21O,2.400000X2.400000*%
%ADD22R,2.400000X1.600000*%
%ADD23O,2.400000X1.600000*%
%ADD24R,1.600000X1.600000*%
%ADD25C,1.600000*%
%ADD26RoundRect,0.250000X-0.350000X-0.450000X0.350000X-0.450000X0.350000X0.450000X-0.350000X0.450000X0*%
%ADD27RoundRect,0.250000X-0.450000X0.262500X-0.450000X-0.262500X0.450000X-0.262500X0.450000X0.262500X0*%
G04 APERTURE END LIST*
D10*
X134628190Y-119594380D02*
X134818666Y-119594380D01*
X134913904Y-119642000D01*
X135009142Y-119737238D01*
X135056761Y-119927714D01*
X135056761Y-120261047D01*
X135009142Y-120451523D01*
X134913904Y-120546761D01*
X134818666Y-120594380D01*
X134628190Y-120594380D01*
X134532952Y-120546761D01*
X134437714Y-120451523D01*
X134390095Y-120261047D01*
X134390095Y-119927714D01*
X134437714Y-119737238D01*
X134532952Y-119642000D01*
X134628190Y-119594380D01*
X135913904Y-119927714D02*
X135913904Y-120594380D01*
X135485333Y-119927714D02*
X135485333Y-120451523D01*
X135532952Y-120546761D01*
X135628190Y-120594380D01*
X135771047Y-120594380D01*
X135866285Y-120546761D01*
X135913904Y-120499142D01*
X136247238Y-119927714D02*
X136628190Y-119927714D01*
X136390095Y-119594380D02*
X136390095Y-120451523D01*
X136437714Y-120546761D01*
X136532952Y-120594380D01*
X136628190Y-120594380D01*
X136961523Y-119927714D02*
X136961523Y-120927714D01*
X136961523Y-119975333D02*
X137056761Y-119927714D01*
X137247238Y-119927714D01*
X137342476Y-119975333D01*
X137390095Y-120022952D01*
X137437714Y-120118190D01*
X137437714Y-120403904D01*
X137390095Y-120499142D01*
X137342476Y-120546761D01*
X137247238Y-120594380D01*
X137056761Y-120594380D01*
X136961523Y-120546761D01*
X138294857Y-119927714D02*
X138294857Y-120594380D01*
X137866285Y-119927714D02*
X137866285Y-120451523D01*
X137913904Y-120546761D01*
X138009142Y-120594380D01*
X138152000Y-120594380D01*
X138247238Y-120546761D01*
X138294857Y-120499142D01*
X138628190Y-119927714D02*
X139009142Y-119927714D01*
X138771047Y-119594380D02*
X138771047Y-120451523D01*
X138818666Y-120546761D01*
X138913904Y-120594380D01*
X139009142Y-120594380D01*
X113990380Y-78303142D02*
X112990380Y-78303142D01*
X112990380Y-77922190D01*
X113038000Y-77826952D01*
X113085619Y-77779333D01*
X113180857Y-77731714D01*
X113323714Y-77731714D01*
X113418952Y-77779333D01*
X113466571Y-77826952D01*
X113514190Y-77922190D01*
X113514190Y-78303142D01*
X113990380Y-77160285D02*
X113942761Y-77255523D01*
X113895142Y-77303142D01*
X113799904Y-77350761D01*
X113514190Y-77350761D01*
X113418952Y-77303142D01*
X113371333Y-77255523D01*
X113323714Y-77160285D01*
X113323714Y-77017428D01*
X113371333Y-76922190D01*
X113418952Y-76874571D01*
X113514190Y-76826952D01*
X113799904Y-76826952D01*
X113895142Y-76874571D01*
X113942761Y-76922190D01*
X113990380Y-77017428D01*
X113990380Y-77160285D01*
X113323714Y-76541238D02*
X113323714Y-76160285D01*
X112990380Y-76398380D02*
X113847523Y-76398380D01*
X113942761Y-76350761D01*
X113990380Y-76255523D01*
X113990380Y-76160285D01*
X113990380Y-74493619D02*
X113514190Y-74826952D01*
X113990380Y-75065047D02*
X112990380Y-75065047D01*
X112990380Y-74684095D01*
X113038000Y-74588857D01*
X113085619Y-74541238D01*
X113180857Y-74493619D01*
X113323714Y-74493619D01*
X113418952Y-74541238D01*
X113466571Y-74588857D01*
X113514190Y-74684095D01*
X113514190Y-75065047D01*
X112990380Y-73588857D02*
X112990380Y-74065047D01*
X113466571Y-74112666D01*
X113418952Y-74065047D01*
X113371333Y-73969809D01*
X113371333Y-73731714D01*
X113418952Y-73636476D01*
X113466571Y-73588857D01*
X113561809Y-73541238D01*
X113799904Y-73541238D01*
X113895142Y-73588857D01*
X113942761Y-73636476D01*
X113990380Y-73731714D01*
X113990380Y-73969809D01*
X113942761Y-74065047D01*
X113895142Y-74112666D01*
X166425809Y-117546380D02*
X166425809Y-116546380D01*
X166806761Y-116546380D01*
X166902000Y-116594000D01*
X166949619Y-116641619D01*
X166997238Y-116736857D01*
X166997238Y-116879714D01*
X166949619Y-116974952D01*
X166902000Y-117022571D01*
X166806761Y-117070190D01*
X166425809Y-117070190D01*
X167568666Y-117546380D02*
X167473428Y-117498761D01*
X167425809Y-117451142D01*
X167378190Y-117355904D01*
X167378190Y-117070190D01*
X167425809Y-116974952D01*
X167473428Y-116927333D01*
X167568666Y-116879714D01*
X167711523Y-116879714D01*
X167806761Y-116927333D01*
X167854380Y-116974952D01*
X167902000Y-117070190D01*
X167902000Y-117355904D01*
X167854380Y-117451142D01*
X167806761Y-117498761D01*
X167711523Y-117546380D01*
X167568666Y-117546380D01*
X168235333Y-116879714D02*
X168425809Y-117546380D01*
X168616285Y-117070190D01*
X168806761Y-117546380D01*
X168997238Y-116879714D01*
X169759142Y-117498761D02*
X169663904Y-117546380D01*
X169473428Y-117546380D01*
X169378190Y-117498761D01*
X169330571Y-117403523D01*
X169330571Y-117022571D01*
X169378190Y-116927333D01*
X169473428Y-116879714D01*
X169663904Y-116879714D01*
X169759142Y-116927333D01*
X169806761Y-117022571D01*
X169806761Y-117117809D01*
X169330571Y-117213047D01*
X170235333Y-117546380D02*
X170235333Y-116879714D01*
X170235333Y-117070190D02*
X170282952Y-116974952D01*
X170330571Y-116927333D01*
X170425809Y-116879714D01*
X170521047Y-116879714D01*
X169616380Y-95829142D02*
X168616380Y-95829142D01*
X168616380Y-95448190D01*
X168664000Y-95352952D01*
X168711619Y-95305333D01*
X168806857Y-95257714D01*
X168949714Y-95257714D01*
X169044952Y-95305333D01*
X169092571Y-95352952D01*
X169140190Y-95448190D01*
X169140190Y-95829142D01*
X169616380Y-94686285D02*
X169568761Y-94781523D01*
X169521142Y-94829142D01*
X169425904Y-94876761D01*
X169140190Y-94876761D01*
X169044952Y-94829142D01*
X168997333Y-94781523D01*
X168949714Y-94686285D01*
X168949714Y-94543428D01*
X168997333Y-94448190D01*
X169044952Y-94400571D01*
X169140190Y-94352952D01*
X169425904Y-94352952D01*
X169521142Y-94400571D01*
X169568761Y-94448190D01*
X169616380Y-94543428D01*
X169616380Y-94686285D01*
X168949714Y-94067238D02*
X168949714Y-93686285D01*
X168616380Y-93924380D02*
X169473523Y-93924380D01*
X169568761Y-93876761D01*
X169616380Y-93781523D01*
X169616380Y-93686285D01*
X169616380Y-92019619D02*
X169140190Y-92352952D01*
X169616380Y-92591047D02*
X168616380Y-92591047D01*
X168616380Y-92210095D01*
X168664000Y-92114857D01*
X168711619Y-92067238D01*
X168806857Y-92019619D01*
X168949714Y-92019619D01*
X169044952Y-92067238D01*
X169092571Y-92114857D01*
X169140190Y-92210095D01*
X169140190Y-92591047D01*
X169616380Y-91543428D02*
X169616380Y-91352952D01*
X169568761Y-91257714D01*
X169521142Y-91210095D01*
X169378285Y-91114857D01*
X169187809Y-91067238D01*
X168806857Y-91067238D01*
X168711619Y-91114857D01*
X168664000Y-91162476D01*
X168616380Y-91257714D01*
X168616380Y-91448190D01*
X168664000Y-91543428D01*
X168711619Y-91591047D01*
X168806857Y-91638666D01*
X169044952Y-91638666D01*
X169140190Y-91591047D01*
X169187809Y-91543428D01*
X169235428Y-91448190D01*
X169235428Y-91257714D01*
X169187809Y-91162476D01*
X169140190Y-91114857D01*
X169044952Y-91067238D01*
X113990380Y-86224857D02*
X112990380Y-86224857D01*
X113323714Y-85748666D02*
X113990380Y-85748666D01*
X113418952Y-85748666D02*
X113371333Y-85701047D01*
X113323714Y-85605809D01*
X113323714Y-85462952D01*
X113371333Y-85367714D01*
X113466571Y-85320095D01*
X113990380Y-85320095D01*
X113323714Y-84843904D02*
X114323714Y-84843904D01*
X113371333Y-84843904D02*
X113323714Y-84748666D01*
X113323714Y-84558190D01*
X113371333Y-84462952D01*
X113418952Y-84415333D01*
X113514190Y-84367714D01*
X113799904Y-84367714D01*
X113895142Y-84415333D01*
X113942761Y-84462952D01*
X113990380Y-84558190D01*
X113990380Y-84748666D01*
X113942761Y-84843904D01*
X113323714Y-83510571D02*
X113990380Y-83510571D01*
X113323714Y-83939142D02*
X113847523Y-83939142D01*
X113942761Y-83891523D01*
X113990380Y-83796285D01*
X113990380Y-83653428D01*
X113942761Y-83558190D01*
X113895142Y-83510571D01*
X113323714Y-83177238D02*
X113323714Y-82796285D01*
X112990380Y-83034380D02*
X113847523Y-83034380D01*
X113942761Y-82986761D01*
X113990380Y-82891523D01*
X113990380Y-82796285D01*
X129738380Y-78231809D02*
X128738380Y-78231809D01*
X128738380Y-77850857D01*
X128786000Y-77755619D01*
X128833619Y-77708000D01*
X128928857Y-77660380D01*
X129071714Y-77660380D01*
X129166952Y-77708000D01*
X129214571Y-77755619D01*
X129262190Y-77850857D01*
X129262190Y-78231809D01*
X129738380Y-76803238D02*
X129214571Y-76803238D01*
X129119333Y-76850857D01*
X129071714Y-76946095D01*
X129071714Y-77136571D01*
X129119333Y-77231809D01*
X129690761Y-76803238D02*
X129738380Y-76898476D01*
X129738380Y-77136571D01*
X129690761Y-77231809D01*
X129595523Y-77279428D01*
X129500285Y-77279428D01*
X129405047Y-77231809D01*
X129357428Y-77136571D01*
X129357428Y-76898476D01*
X129309809Y-76803238D01*
X129690761Y-76374666D02*
X129738380Y-76279428D01*
X129738380Y-76088952D01*
X129690761Y-75993714D01*
X129595523Y-75946095D01*
X129547904Y-75946095D01*
X129452666Y-75993714D01*
X129405047Y-76088952D01*
X129405047Y-76231809D01*
X129357428Y-76327047D01*
X129262190Y-76374666D01*
X129214571Y-76374666D01*
X129119333Y-76327047D01*
X129071714Y-76231809D01*
X129071714Y-76088952D01*
X129119333Y-75993714D01*
X129690761Y-75565142D02*
X129738380Y-75469904D01*
X129738380Y-75279428D01*
X129690761Y-75184190D01*
X129595523Y-75136571D01*
X129547904Y-75136571D01*
X129452666Y-75184190D01*
X129405047Y-75279428D01*
X129405047Y-75422285D01*
X129357428Y-75517523D01*
X129262190Y-75565142D01*
X129214571Y-75565142D01*
X129119333Y-75517523D01*
X129071714Y-75422285D01*
X129071714Y-75279428D01*
X129119333Y-75184190D01*
X119213619Y-127722380D02*
X119404095Y-127722380D01*
X119499333Y-127770000D01*
X119594571Y-127865238D01*
X119642190Y-128055714D01*
X119642190Y-128389047D01*
X119594571Y-128579523D01*
X119499333Y-128674761D01*
X119404095Y-128722380D01*
X119213619Y-128722380D01*
X119118380Y-128674761D01*
X119023142Y-128579523D01*
X118975523Y-128389047D01*
X118975523Y-128055714D01*
X119023142Y-127865238D01*
X119118380Y-127770000D01*
X119213619Y-127722380D01*
X120070761Y-128722380D02*
X120070761Y-127722380D01*
X120451714Y-127722380D01*
X120546952Y-127770000D01*
X120594571Y-127817619D01*
X120642190Y-127912857D01*
X120642190Y-128055714D01*
X120594571Y-128150952D01*
X120546952Y-128198571D01*
X120451714Y-128246190D01*
X120070761Y-128246190D01*
X121023142Y-128436666D02*
X121499333Y-128436666D01*
X120927904Y-128722380D02*
X121261238Y-127722380D01*
X121594571Y-128722380D01*
X122451714Y-128722380D02*
X121880285Y-128722380D01*
X122166000Y-128722380D02*
X122166000Y-127722380D01*
X122070761Y-127865238D01*
X121975523Y-127960476D01*
X121880285Y-128008095D01*
X122785047Y-127722380D02*
X123404095Y-127722380D01*
X123070761Y-128103333D01*
X123213619Y-128103333D01*
X123308857Y-128150952D01*
X123356476Y-128198571D01*
X123404095Y-128293809D01*
X123404095Y-128531904D01*
X123356476Y-128627142D01*
X123308857Y-128674761D01*
X123213619Y-128722380D01*
X122927904Y-128722380D01*
X122832666Y-128674761D01*
X122785047Y-128627142D01*
X124261238Y-128055714D02*
X124261238Y-128722380D01*
X124023142Y-127674761D02*
X123785047Y-128389047D01*
X124404095Y-128389047D01*
X119499333Y-111672666D02*
X119975523Y-111672666D01*
X119404095Y-111958380D02*
X119737428Y-110958380D01*
X120070761Y-111958380D01*
X120404095Y-111958380D02*
X120404095Y-110958380D01*
X120642190Y-110958380D01*
X120785047Y-111006000D01*
X120880285Y-111101238D01*
X120927904Y-111196476D01*
X120975523Y-111386952D01*
X120975523Y-111529809D01*
X120927904Y-111720285D01*
X120880285Y-111815523D01*
X120785047Y-111910761D01*
X120642190Y-111958380D01*
X120404095Y-111958380D01*
X121308857Y-110958380D02*
X121975523Y-110958380D01*
X121546952Y-111958380D01*
X122404095Y-111958380D02*
X122594571Y-111958380D01*
X122689809Y-111910761D01*
X122737428Y-111863142D01*
X122832666Y-111720285D01*
X122880285Y-111529809D01*
X122880285Y-111148857D01*
X122832666Y-111053619D01*
X122785047Y-111006000D01*
X122689809Y-110958380D01*
X122499333Y-110958380D01*
X122404095Y-111006000D01*
X122356476Y-111053619D01*
X122308857Y-111148857D01*
X122308857Y-111386952D01*
X122356476Y-111482190D01*
X122404095Y-111529809D01*
X122499333Y-111577428D01*
X122689809Y-111577428D01*
X122785047Y-111529809D01*
X122832666Y-111482190D01*
X122880285Y-111386952D01*
X123213619Y-110958380D02*
X123880285Y-110958380D01*
X123451714Y-111958380D01*
X165727333Y-114466666D02*
X166203523Y-114466666D01*
X165632095Y-114752380D02*
X165965428Y-113752380D01*
X166298761Y-114752380D01*
X166632095Y-114752380D02*
X166632095Y-113752380D01*
X166870190Y-113752380D01*
X167013047Y-113800000D01*
X167108285Y-113895238D01*
X167155904Y-113990476D01*
X167203523Y-114180952D01*
X167203523Y-114323809D01*
X167155904Y-114514285D01*
X167108285Y-114609523D01*
X167013047Y-114704761D01*
X166870190Y-114752380D01*
X166632095Y-114752380D01*
X167536857Y-113752380D02*
X168203523Y-113752380D01*
X167774952Y-114752380D01*
X168632095Y-114752380D02*
X168822571Y-114752380D01*
X168917809Y-114704761D01*
X168965428Y-114657142D01*
X169060666Y-114514285D01*
X169108285Y-114323809D01*
X169108285Y-113942857D01*
X169060666Y-113847619D01*
X169013047Y-113800000D01*
X168917809Y-113752380D01*
X168727333Y-113752380D01*
X168632095Y-113800000D01*
X168584476Y-113847619D01*
X168536857Y-113942857D01*
X168536857Y-114180952D01*
X168584476Y-114276190D01*
X168632095Y-114323809D01*
X168727333Y-114371428D01*
X168917809Y-114371428D01*
X169013047Y-114323809D01*
X169060666Y-114276190D01*
X169108285Y-114180952D01*
X169441619Y-113752380D02*
X170108285Y-113752380D01*
X169679714Y-114752380D01*
X119253047Y-83637428D02*
X120014952Y-83637428D01*
X119634000Y-84018380D02*
X119634000Y-83256476D01*
X131826285Y-118435428D02*
X132588190Y-118435428D01*
X132207238Y-118816380D02*
X132207238Y-118054476D01*
X133016761Y-117911619D02*
X133064380Y-117864000D01*
X133159619Y-117816380D01*
X133397714Y-117816380D01*
X133492952Y-117864000D01*
X133540571Y-117911619D01*
X133588190Y-118006857D01*
X133588190Y-118102095D01*
X133540571Y-118244952D01*
X132969142Y-118816380D01*
X133588190Y-118816380D01*
X134207238Y-117816380D02*
X134302476Y-117816380D01*
X134397714Y-117864000D01*
X134445333Y-117911619D01*
X134492952Y-118006857D01*
X134540571Y-118197333D01*
X134540571Y-118435428D01*
X134492952Y-118625904D01*
X134445333Y-118721142D01*
X134397714Y-118768761D01*
X134302476Y-118816380D01*
X134207238Y-118816380D01*
X134112000Y-118768761D01*
X134064380Y-118721142D01*
X134016761Y-118625904D01*
X133969142Y-118435428D01*
X133969142Y-118197333D01*
X134016761Y-118006857D01*
X134064380Y-117911619D01*
X134112000Y-117864000D01*
X134207238Y-117816380D01*
X135397714Y-118816380D02*
X135397714Y-117816380D01*
X135397714Y-118768761D02*
X135302476Y-118816380D01*
X135112000Y-118816380D01*
X135016761Y-118768761D01*
X134969142Y-118721142D01*
X134921523Y-118625904D01*
X134921523Y-118340190D01*
X134969142Y-118244952D01*
X135016761Y-118197333D01*
X135112000Y-118149714D01*
X135302476Y-118149714D01*
X135397714Y-118197333D01*
X136207238Y-118292571D02*
X136350095Y-118340190D01*
X136397714Y-118387809D01*
X136445333Y-118483047D01*
X136445333Y-118625904D01*
X136397714Y-118721142D01*
X136350095Y-118768761D01*
X136254857Y-118816380D01*
X135873904Y-118816380D01*
X135873904Y-117816380D01*
X136207238Y-117816380D01*
X136302476Y-117864000D01*
X136350095Y-117911619D01*
X136397714Y-118006857D01*
X136397714Y-118102095D01*
X136350095Y-118197333D01*
X136302476Y-118244952D01*
X136207238Y-118292571D01*
X135873904Y-118292571D01*
X137636380Y-117816380D02*
X137731619Y-117816380D01*
X137826857Y-117864000D01*
X137874476Y-117911619D01*
X137922095Y-118006857D01*
X137969714Y-118197333D01*
X137969714Y-118435428D01*
X137922095Y-118625904D01*
X137874476Y-118721142D01*
X137826857Y-118768761D01*
X137731619Y-118816380D01*
X137636380Y-118816380D01*
X137541142Y-118768761D01*
X137493523Y-118721142D01*
X137445904Y-118625904D01*
X137398285Y-118435428D01*
X137398285Y-118197333D01*
X137445904Y-118006857D01*
X137493523Y-117911619D01*
X137541142Y-117864000D01*
X137636380Y-117816380D01*
X138398285Y-118816380D02*
X138398285Y-117816380D01*
X138636380Y-117816380D01*
X138779238Y-117864000D01*
X138874476Y-117959238D01*
X138922095Y-118054476D01*
X138969714Y-118244952D01*
X138969714Y-118387809D01*
X138922095Y-118578285D01*
X138874476Y-118673523D01*
X138779238Y-118768761D01*
X138636380Y-118816380D01*
X138398285Y-118816380D01*
X139731619Y-118292571D02*
X139874476Y-118340190D01*
X139922095Y-118387809D01*
X139969714Y-118483047D01*
X139969714Y-118625904D01*
X139922095Y-118721142D01*
X139874476Y-118768761D01*
X139779238Y-118816380D01*
X139398285Y-118816380D01*
X139398285Y-117816380D01*
X139731619Y-117816380D01*
X139826857Y-117864000D01*
X139874476Y-117911619D01*
X139922095Y-118006857D01*
X139922095Y-118102095D01*
X139874476Y-118197333D01*
X139826857Y-118244952D01*
X139731619Y-118292571D01*
X139398285Y-118292571D01*
X130516380Y-79565142D02*
X130516380Y-78993714D01*
X131516380Y-79279428D02*
X130516380Y-79279428D01*
X131516380Y-78660380D02*
X130516380Y-78660380D01*
X131516380Y-78231809D02*
X130992571Y-78231809D01*
X130897333Y-78279428D01*
X130849714Y-78374666D01*
X130849714Y-78517523D01*
X130897333Y-78612761D01*
X130944952Y-78660380D01*
X131516380Y-77755619D02*
X130849714Y-77755619D01*
X131040190Y-77755619D02*
X130944952Y-77708000D01*
X130897333Y-77660380D01*
X130849714Y-77565142D01*
X130849714Y-77469904D01*
X131516380Y-76993714D02*
X131468761Y-77088952D01*
X131421142Y-77136571D01*
X131325904Y-77184190D01*
X131040190Y-77184190D01*
X130944952Y-77136571D01*
X130897333Y-77088952D01*
X130849714Y-76993714D01*
X130849714Y-76850857D01*
X130897333Y-76755619D01*
X130944952Y-76708000D01*
X131040190Y-76660380D01*
X131325904Y-76660380D01*
X131421142Y-76708000D01*
X131468761Y-76755619D01*
X131516380Y-76850857D01*
X131516380Y-76993714D01*
X130849714Y-75803238D02*
X131516380Y-75803238D01*
X130849714Y-76231809D02*
X131373523Y-76231809D01*
X131468761Y-76184190D01*
X131516380Y-76088952D01*
X131516380Y-75946095D01*
X131468761Y-75850857D01*
X131421142Y-75803238D01*
X130849714Y-74898476D02*
X131659238Y-74898476D01*
X131754476Y-74946095D01*
X131802095Y-74993714D01*
X131849714Y-75088952D01*
X131849714Y-75231809D01*
X131802095Y-75327047D01*
X131468761Y-74898476D02*
X131516380Y-74993714D01*
X131516380Y-75184190D01*
X131468761Y-75279428D01*
X131421142Y-75327047D01*
X131325904Y-75374666D01*
X131040190Y-75374666D01*
X130944952Y-75327047D01*
X130897333Y-75279428D01*
X130849714Y-75184190D01*
X130849714Y-74993714D01*
X130897333Y-74898476D01*
X131516380Y-74422285D02*
X130516380Y-74422285D01*
X131516380Y-73993714D02*
X130992571Y-73993714D01*
X130897333Y-74041333D01*
X130849714Y-74136571D01*
X130849714Y-74279428D01*
X130897333Y-74374666D01*
X130944952Y-74422285D01*
D11*
X131561714Y-61154571D02*
X132418857Y-61154571D01*
X131990285Y-62654571D02*
X131990285Y-61154571D01*
X132775999Y-61654571D02*
X133061714Y-62654571D01*
X133347428Y-61940285D01*
X133633142Y-62654571D01*
X133918857Y-61654571D01*
X134490285Y-62654571D02*
X134490285Y-61654571D01*
X134490285Y-61154571D02*
X134418857Y-61226000D01*
X134490285Y-61297428D01*
X134561714Y-61226000D01*
X134490285Y-61154571D01*
X134490285Y-61297428D01*
X135204571Y-61654571D02*
X135204571Y-62654571D01*
X135204571Y-61797428D02*
X135276000Y-61726000D01*
X135418857Y-61654571D01*
X135633142Y-61654571D01*
X135776000Y-61726000D01*
X135847428Y-61868857D01*
X135847428Y-62654571D01*
X136561714Y-62083142D02*
X137704571Y-62083142D01*
X138204571Y-61154571D02*
X139061714Y-61154571D01*
X138633142Y-62654571D02*
X138633142Y-61154571D01*
X140704571Y-62654571D02*
X140704571Y-61154571D01*
X141561714Y-62654571D01*
X141561714Y-61154571D01*
X142490285Y-62654571D02*
X142347428Y-62583142D01*
X142276000Y-62511714D01*
X142204571Y-62368857D01*
X142204571Y-61940285D01*
X142276000Y-61797428D01*
X142347428Y-61726000D01*
X142490285Y-61654571D01*
X142704571Y-61654571D01*
X142847428Y-61726000D01*
X142918857Y-61797428D01*
X142990285Y-61940285D01*
X142990285Y-62368857D01*
X142918857Y-62511714D01*
X142847428Y-62583142D01*
X142704571Y-62654571D01*
X142490285Y-62654571D01*
X143418857Y-61654571D02*
X143990285Y-61654571D01*
X143633142Y-61154571D02*
X143633142Y-62440285D01*
X143704571Y-62583142D01*
X143847428Y-62654571D01*
X143990285Y-62654571D01*
X145133142Y-62583142D02*
X144990285Y-62654571D01*
X144704571Y-62654571D01*
X144561714Y-62583142D01*
X144490285Y-62511714D01*
X144418857Y-62368857D01*
X144418857Y-61940285D01*
X144490285Y-61797428D01*
X144561714Y-61726000D01*
X144704571Y-61654571D01*
X144990285Y-61654571D01*
X145133142Y-61726000D01*
X145776000Y-62654571D02*
X145776000Y-61154571D01*
X146418857Y-62654571D02*
X146418857Y-61868857D01*
X146347428Y-61726000D01*
X146204571Y-61654571D01*
X145990285Y-61654571D01*
X145847428Y-61726000D01*
X145776000Y-61797428D01*
X148776000Y-61868857D02*
X148276000Y-61868857D01*
X148276000Y-62654571D02*
X148276000Y-61154571D01*
X148990285Y-61154571D01*
X149561714Y-62654571D02*
X149561714Y-61654571D01*
X149561714Y-61154571D02*
X149490285Y-61226000D01*
X149561714Y-61297428D01*
X149633142Y-61226000D01*
X149561714Y-61154571D01*
X149561714Y-61297428D01*
X150490285Y-62654571D02*
X150347428Y-62583142D01*
X150276000Y-62440285D01*
X150276000Y-61154571D01*
X150847428Y-61654571D02*
X151418857Y-61654571D01*
X151061714Y-61154571D02*
X151061714Y-62440285D01*
X151133142Y-62583142D01*
X151276000Y-62654571D01*
X151418857Y-62654571D01*
X152490285Y-62583142D02*
X152347428Y-62654571D01*
X152061714Y-62654571D01*
X151918857Y-62583142D01*
X151847428Y-62440285D01*
X151847428Y-61868857D01*
X151918857Y-61726000D01*
X152061714Y-61654571D01*
X152347428Y-61654571D01*
X152490285Y-61726000D01*
X152561714Y-61868857D01*
X152561714Y-62011714D01*
X151847428Y-62154571D01*
X153204571Y-62654571D02*
X153204571Y-61654571D01*
X153204571Y-61940285D02*
X153276000Y-61797428D01*
X153347428Y-61726000D01*
X153490285Y-61654571D01*
X153633142Y-61654571D01*
X155061714Y-61154571D02*
X155561714Y-62654571D01*
X156061714Y-61154571D01*
X156490285Y-61297428D02*
X156561714Y-61226000D01*
X156704571Y-61154571D01*
X157061714Y-61154571D01*
X157204571Y-61226000D01*
X157276000Y-61297428D01*
X157347428Y-61440285D01*
X157347428Y-61583142D01*
X157276000Y-61797428D01*
X156418857Y-62654571D01*
X157347428Y-62654571D01*
D10*
X119895904Y-85606000D02*
X119800666Y-85558380D01*
X119657809Y-85558380D01*
X119514952Y-85606000D01*
X119419714Y-85701238D01*
X119372095Y-85796476D01*
X119324476Y-85986952D01*
X119324476Y-86129809D01*
X119372095Y-86320285D01*
X119419714Y-86415523D01*
X119514952Y-86510761D01*
X119657809Y-86558380D01*
X119753047Y-86558380D01*
X119895904Y-86510761D01*
X119943523Y-86463142D01*
X119943523Y-86129809D01*
X119753047Y-86129809D01*
X122626380Y-89312285D02*
X121626380Y-89312285D01*
X122340666Y-88978952D01*
X121626380Y-88645619D01*
X122626380Y-88645619D01*
X122626380Y-88169428D02*
X121959714Y-88169428D01*
X121626380Y-88169428D02*
X121674000Y-88217047D01*
X121721619Y-88169428D01*
X121674000Y-88121809D01*
X121626380Y-88169428D01*
X121721619Y-88169428D01*
X121959714Y-87693238D02*
X122626380Y-87693238D01*
X122054952Y-87693238D02*
X122007333Y-87645619D01*
X121959714Y-87550380D01*
X121959714Y-87407523D01*
X122007333Y-87312285D01*
X122102571Y-87264666D01*
X122626380Y-87264666D01*
X122531142Y-86788476D02*
X122578761Y-86740857D01*
X122626380Y-86788476D01*
X122578761Y-86836095D01*
X122531142Y-86788476D01*
X122626380Y-86788476D01*
X121959714Y-85550380D02*
X122626380Y-85550380D01*
X122054952Y-85550380D02*
X122007333Y-85502761D01*
X121959714Y-85407523D01*
X121959714Y-85264666D01*
X122007333Y-85169428D01*
X122102571Y-85121809D01*
X122626380Y-85121809D01*
X122626380Y-84502761D02*
X122578761Y-84598000D01*
X122531142Y-84645619D01*
X122435904Y-84693238D01*
X122150190Y-84693238D01*
X122054952Y-84645619D01*
X122007333Y-84598000D01*
X121959714Y-84502761D01*
X121959714Y-84359904D01*
X122007333Y-84264666D01*
X122054952Y-84217047D01*
X122150190Y-84169428D01*
X122435904Y-84169428D01*
X122531142Y-84217047D01*
X122578761Y-84264666D01*
X122626380Y-84359904D01*
X122626380Y-84502761D01*
X121959714Y-83883714D02*
X121959714Y-83502761D01*
X121626380Y-83740857D02*
X122483523Y-83740857D01*
X122578761Y-83693238D01*
X122626380Y-83598000D01*
X122626380Y-83502761D01*
X122578761Y-82740857D02*
X122626380Y-82836095D01*
X122626380Y-83026571D01*
X122578761Y-83121809D01*
X122531142Y-83169428D01*
X122435904Y-83217047D01*
X122150190Y-83217047D01*
X122054952Y-83169428D01*
X122007333Y-83121809D01*
X121959714Y-83026571D01*
X121959714Y-82836095D01*
X122007333Y-82740857D01*
X122626380Y-82312285D02*
X121626380Y-82312285D01*
X122626380Y-81883714D02*
X122102571Y-81883714D01*
X122007333Y-81931333D01*
X121959714Y-82026571D01*
X121959714Y-82169428D01*
X122007333Y-82264666D01*
X122054952Y-82312285D01*
X163211523Y-122753428D02*
X163973428Y-122753428D01*
X163592476Y-123134380D02*
X163592476Y-122372476D01*
X164973428Y-123134380D02*
X164402000Y-123134380D01*
X164687714Y-123134380D02*
X164687714Y-122134380D01*
X164592476Y-122277238D01*
X164497238Y-122372476D01*
X164402000Y-122420095D01*
X165878190Y-122134380D02*
X165402000Y-122134380D01*
X165354380Y-122610571D01*
X165402000Y-122562952D01*
X165497238Y-122515333D01*
X165735333Y-122515333D01*
X165830571Y-122562952D01*
X165878190Y-122610571D01*
X165925809Y-122705809D01*
X165925809Y-122943904D01*
X165878190Y-123039142D01*
X165830571Y-123086761D01*
X165735333Y-123134380D01*
X165497238Y-123134380D01*
X165402000Y-123086761D01*
X165354380Y-123039142D01*
X167640095Y-122182000D02*
X167544857Y-122134380D01*
X167402000Y-122134380D01*
X167259142Y-122182000D01*
X167163904Y-122277238D01*
X167116285Y-122372476D01*
X167068666Y-122562952D01*
X167068666Y-122705809D01*
X167116285Y-122896285D01*
X167163904Y-122991523D01*
X167259142Y-123086761D01*
X167402000Y-123134380D01*
X167497238Y-123134380D01*
X167640095Y-123086761D01*
X167687714Y-123039142D01*
X167687714Y-122705809D01*
X167497238Y-122705809D01*
X168116285Y-123134380D02*
X168116285Y-122134380D01*
X168687714Y-123134380D01*
X168687714Y-122134380D01*
X169163904Y-123134380D02*
X169163904Y-122134380D01*
X169402000Y-122134380D01*
X169544857Y-122182000D01*
X169640095Y-122277238D01*
X169687714Y-122372476D01*
X169735333Y-122562952D01*
X169735333Y-122705809D01*
X169687714Y-122896285D01*
X169640095Y-122991523D01*
X169544857Y-123086761D01*
X169402000Y-123134380D01*
X169163904Y-123134380D01*
X170925809Y-122753428D02*
X171687714Y-122753428D01*
X172687714Y-123134380D02*
X172116285Y-123134380D01*
X172402000Y-123134380D02*
X172402000Y-122134380D01*
X172306761Y-122277238D01*
X172211523Y-122372476D01*
X172116285Y-122420095D01*
X173592476Y-122134380D02*
X173116285Y-122134380D01*
X173068666Y-122610571D01*
X173116285Y-122562952D01*
X173211523Y-122515333D01*
X173449619Y-122515333D01*
X173544857Y-122562952D01*
X173592476Y-122610571D01*
X173640095Y-122705809D01*
X173640095Y-122943904D01*
X173592476Y-123039142D01*
X173544857Y-123086761D01*
X173449619Y-123134380D01*
X173211523Y-123134380D01*
X173116285Y-123086761D01*
X173068666Y-123039142D01*
X126107866Y-72171180D02*
X126107866Y-72885466D01*
X126060247Y-73028323D01*
X125965009Y-73123561D01*
X125822152Y-73171180D01*
X125726914Y-73171180D01*
X127012628Y-72504514D02*
X127012628Y-73171180D01*
X126774533Y-72123561D02*
X126536438Y-72837847D01*
X127155485Y-72837847D01*
X130248780Y-85895257D02*
X129772590Y-86228590D01*
X130248780Y-86466685D02*
X129248780Y-86466685D01*
X129248780Y-86085733D01*
X129296400Y-85990495D01*
X129344019Y-85942876D01*
X129439257Y-85895257D01*
X129582114Y-85895257D01*
X129677352Y-85942876D01*
X129724971Y-85990495D01*
X129772590Y-86085733D01*
X129772590Y-86466685D01*
X130248780Y-84942876D02*
X130248780Y-85514304D01*
X130248780Y-85228590D02*
X129248780Y-85228590D01*
X129391638Y-85323828D01*
X129486876Y-85419066D01*
X129534495Y-85514304D01*
X129344019Y-84561923D02*
X129296400Y-84514304D01*
X129248780Y-84419066D01*
X129248780Y-84180971D01*
X129296400Y-84085733D01*
X129344019Y-84038114D01*
X129439257Y-83990495D01*
X129534495Y-83990495D01*
X129677352Y-84038114D01*
X130248780Y-84609542D01*
X130248780Y-83990495D01*
X123388380Y-75604666D02*
X122912190Y-75938000D01*
X123388380Y-76176095D02*
X122388380Y-76176095D01*
X122388380Y-75795142D01*
X122436000Y-75699904D01*
X122483619Y-75652285D01*
X122578857Y-75604666D01*
X122721714Y-75604666D01*
X122816952Y-75652285D01*
X122864571Y-75699904D01*
X122912190Y-75795142D01*
X122912190Y-76176095D01*
X122388380Y-75271333D02*
X122388380Y-74604666D01*
X123388380Y-75033238D01*
X125849142Y-96844380D02*
X125515809Y-96368190D01*
X125277714Y-96844380D02*
X125277714Y-95844380D01*
X125658666Y-95844380D01*
X125753904Y-95892000D01*
X125801523Y-95939619D01*
X125849142Y-96034857D01*
X125849142Y-96177714D01*
X125801523Y-96272952D01*
X125753904Y-96320571D01*
X125658666Y-96368190D01*
X125277714Y-96368190D01*
X126801523Y-96844380D02*
X126230095Y-96844380D01*
X126515809Y-96844380D02*
X126515809Y-95844380D01*
X126420571Y-95987238D01*
X126325333Y-96082476D01*
X126230095Y-96130095D01*
X127134857Y-95844380D02*
X127753904Y-95844380D01*
X127420571Y-96225333D01*
X127563428Y-96225333D01*
X127658666Y-96272952D01*
X127706285Y-96320571D01*
X127753904Y-96415809D01*
X127753904Y-96653904D01*
X127706285Y-96749142D01*
X127658666Y-96796761D01*
X127563428Y-96844380D01*
X127277714Y-96844380D01*
X127182476Y-96796761D01*
X127134857Y-96749142D01*
X156551333Y-104751142D02*
X156503714Y-104798761D01*
X156360857Y-104846380D01*
X156265619Y-104846380D01*
X156122761Y-104798761D01*
X156027523Y-104703523D01*
X155979904Y-104608285D01*
X155932285Y-104417809D01*
X155932285Y-104274952D01*
X155979904Y-104084476D01*
X156027523Y-103989238D01*
X156122761Y-103894000D01*
X156265619Y-103846380D01*
X156360857Y-103846380D01*
X156503714Y-103894000D01*
X156551333Y-103941619D01*
X157408476Y-103846380D02*
X157218000Y-103846380D01*
X157122761Y-103894000D01*
X157075142Y-103941619D01*
X156979904Y-104084476D01*
X156932285Y-104274952D01*
X156932285Y-104655904D01*
X156979904Y-104751142D01*
X157027523Y-104798761D01*
X157122761Y-104846380D01*
X157313238Y-104846380D01*
X157408476Y-104798761D01*
X157456095Y-104751142D01*
X157503714Y-104655904D01*
X157503714Y-104417809D01*
X157456095Y-104322571D01*
X157408476Y-104274952D01*
X157313238Y-104227333D01*
X157122761Y-104227333D01*
X157027523Y-104274952D01*
X156979904Y-104322571D01*
X156932285Y-104417809D01*
X159838380Y-78128666D02*
X159362190Y-78462000D01*
X159838380Y-78700095D02*
X158838380Y-78700095D01*
X158838380Y-78319142D01*
X158886000Y-78223904D01*
X158933619Y-78176285D01*
X159028857Y-78128666D01*
X159171714Y-78128666D01*
X159266952Y-78176285D01*
X159314571Y-78223904D01*
X159362190Y-78319142D01*
X159362190Y-78700095D01*
X159266952Y-77557238D02*
X159219333Y-77652476D01*
X159171714Y-77700095D01*
X159076476Y-77747714D01*
X159028857Y-77747714D01*
X158933619Y-77700095D01*
X158886000Y-77652476D01*
X158838380Y-77557238D01*
X158838380Y-77366761D01*
X158886000Y-77271523D01*
X158933619Y-77223904D01*
X159028857Y-77176285D01*
X159076476Y-77176285D01*
X159171714Y-77223904D01*
X159219333Y-77271523D01*
X159266952Y-77366761D01*
X159266952Y-77557238D01*
X159314571Y-77652476D01*
X159362190Y-77700095D01*
X159457428Y-77747714D01*
X159647904Y-77747714D01*
X159743142Y-77700095D01*
X159790761Y-77652476D01*
X159838380Y-77557238D01*
X159838380Y-77366761D01*
X159790761Y-77271523D01*
X159743142Y-77223904D01*
X159647904Y-77176285D01*
X159457428Y-77176285D01*
X159362190Y-77223904D01*
X159314571Y-77271523D01*
X159266952Y-77366761D01*
X157059333Y-92051142D02*
X157011714Y-92098761D01*
X156868857Y-92146380D01*
X156773619Y-92146380D01*
X156630761Y-92098761D01*
X156535523Y-92003523D01*
X156487904Y-91908285D01*
X156440285Y-91717809D01*
X156440285Y-91574952D01*
X156487904Y-91384476D01*
X156535523Y-91289238D01*
X156630761Y-91194000D01*
X156773619Y-91146380D01*
X156868857Y-91146380D01*
X157011714Y-91194000D01*
X157059333Y-91241619D01*
X157916476Y-91479714D02*
X157916476Y-92146380D01*
X157678380Y-91098761D02*
X157440285Y-91813047D01*
X158059333Y-91813047D01*
X161234380Y-90812857D02*
X160758190Y-91146190D01*
X161234380Y-91384285D02*
X160234380Y-91384285D01*
X160234380Y-91003333D01*
X160282000Y-90908095D01*
X160329619Y-90860476D01*
X160424857Y-90812857D01*
X160567714Y-90812857D01*
X160662952Y-90860476D01*
X160710571Y-90908095D01*
X160758190Y-91003333D01*
X160758190Y-91384285D01*
X161234380Y-89860476D02*
X161234380Y-90431904D01*
X161234380Y-90146190D02*
X160234380Y-90146190D01*
X160377238Y-90241428D01*
X160472476Y-90336666D01*
X160520095Y-90431904D01*
X161234380Y-88908095D02*
X161234380Y-89479523D01*
X161234380Y-89193809D02*
X160234380Y-89193809D01*
X160377238Y-89289047D01*
X160472476Y-89384285D01*
X160520095Y-89479523D01*
X127732780Y-114215657D02*
X127256590Y-114548990D01*
X127732780Y-114787085D02*
X126732780Y-114787085D01*
X126732780Y-114406133D01*
X126780400Y-114310895D01*
X126828019Y-114263276D01*
X126923257Y-114215657D01*
X127066114Y-114215657D01*
X127161352Y-114263276D01*
X127208971Y-114310895D01*
X127256590Y-114406133D01*
X127256590Y-114787085D01*
X127732780Y-113263276D02*
X127732780Y-113834704D01*
X127732780Y-113548990D02*
X126732780Y-113548990D01*
X126875638Y-113644228D01*
X126970876Y-113739466D01*
X127018495Y-113834704D01*
X126732780Y-112406133D02*
X126732780Y-112596609D01*
X126780400Y-112691847D01*
X126828019Y-112739466D01*
X126970876Y-112834704D01*
X127161352Y-112882323D01*
X127542304Y-112882323D01*
X127637542Y-112834704D01*
X127685161Y-112787085D01*
X127732780Y-112691847D01*
X127732780Y-112501371D01*
X127685161Y-112406133D01*
X127637542Y-112358514D01*
X127542304Y-112310895D01*
X127304209Y-112310895D01*
X127208971Y-112358514D01*
X127161352Y-112406133D01*
X127113733Y-112501371D01*
X127113733Y-112691847D01*
X127161352Y-112787085D01*
X127208971Y-112834704D01*
X127304209Y-112882323D01*
X167167895Y-99528380D02*
X167167895Y-100337904D01*
X167215514Y-100433142D01*
X167263133Y-100480761D01*
X167358371Y-100528380D01*
X167548847Y-100528380D01*
X167644085Y-100480761D01*
X167691704Y-100433142D01*
X167739323Y-100337904D01*
X167739323Y-99528380D01*
X168739323Y-100528380D02*
X168167895Y-100528380D01*
X168453609Y-100528380D02*
X168453609Y-99528380D01*
X168358371Y-99671238D01*
X168263133Y-99766476D01*
X168167895Y-99814095D01*
X143785142Y-119312666D02*
X143832761Y-119360285D01*
X143880380Y-119503142D01*
X143880380Y-119598380D01*
X143832761Y-119741238D01*
X143737523Y-119836476D01*
X143642285Y-119884095D01*
X143451809Y-119931714D01*
X143308952Y-119931714D01*
X143118476Y-119884095D01*
X143023238Y-119836476D01*
X142928000Y-119741238D01*
X142880380Y-119598380D01*
X142880380Y-119503142D01*
X142928000Y-119360285D01*
X142975619Y-119312666D01*
X142975619Y-118931714D02*
X142928000Y-118884095D01*
X142880380Y-118788857D01*
X142880380Y-118550761D01*
X142928000Y-118455523D01*
X142975619Y-118407904D01*
X143070857Y-118360285D01*
X143166095Y-118360285D01*
X143308952Y-118407904D01*
X143880380Y-118979333D01*
X143880380Y-118360285D01*
X126188933Y-69820780D02*
X125855600Y-69344590D01*
X125617504Y-69820780D02*
X125617504Y-68820780D01*
X125998457Y-68820780D01*
X126093695Y-68868400D01*
X126141314Y-68916019D01*
X126188933Y-69011257D01*
X126188933Y-69154114D01*
X126141314Y-69249352D01*
X126093695Y-69296971D01*
X125998457Y-69344590D01*
X125617504Y-69344590D01*
X127046076Y-69154114D02*
X127046076Y-69820780D01*
X126807980Y-68773161D02*
X126569885Y-69487447D01*
X127188933Y-69487447D01*
X162595180Y-120119733D02*
X163309466Y-120119733D01*
X163452323Y-120167352D01*
X163547561Y-120262590D01*
X163595180Y-120405447D01*
X163595180Y-120500685D01*
X163595180Y-119119733D02*
X163595180Y-119691161D01*
X163595180Y-119405447D02*
X162595180Y-119405447D01*
X162738038Y-119500685D01*
X162833276Y-119595923D01*
X162880895Y-119691161D01*
X129205980Y-125594857D02*
X128729790Y-125928190D01*
X129205980Y-126166285D02*
X128205980Y-126166285D01*
X128205980Y-125785333D01*
X128253600Y-125690095D01*
X128301219Y-125642476D01*
X128396457Y-125594857D01*
X128539314Y-125594857D01*
X128634552Y-125642476D01*
X128682171Y-125690095D01*
X128729790Y-125785333D01*
X128729790Y-126166285D01*
X129205980Y-124642476D02*
X129205980Y-125213904D01*
X129205980Y-124928190D02*
X128205980Y-124928190D01*
X128348838Y-125023428D01*
X128444076Y-125118666D01*
X128491695Y-125213904D01*
X128205980Y-124309142D02*
X128205980Y-123642476D01*
X129205980Y-124071047D01*
X156551333Y-67921142D02*
X156503714Y-67968761D01*
X156360857Y-68016380D01*
X156265619Y-68016380D01*
X156122761Y-67968761D01*
X156027523Y-67873523D01*
X155979904Y-67778285D01*
X155932285Y-67587809D01*
X155932285Y-67444952D01*
X155979904Y-67254476D01*
X156027523Y-67159238D01*
X156122761Y-67064000D01*
X156265619Y-67016380D01*
X156360857Y-67016380D01*
X156503714Y-67064000D01*
X156551333Y-67111619D01*
X156884666Y-67016380D02*
X157503714Y-67016380D01*
X157170380Y-67397333D01*
X157313238Y-67397333D01*
X157408476Y-67444952D01*
X157456095Y-67492571D01*
X157503714Y-67587809D01*
X157503714Y-67825904D01*
X157456095Y-67921142D01*
X157408476Y-67968761D01*
X157313238Y-68016380D01*
X157027523Y-68016380D01*
X156932285Y-67968761D01*
X156884666Y-67921142D01*
X156551333Y-79351142D02*
X156503714Y-79398761D01*
X156360857Y-79446380D01*
X156265619Y-79446380D01*
X156122761Y-79398761D01*
X156027523Y-79303523D01*
X155979904Y-79208285D01*
X155932285Y-79017809D01*
X155932285Y-78874952D01*
X155979904Y-78684476D01*
X156027523Y-78589238D01*
X156122761Y-78494000D01*
X156265619Y-78446380D01*
X156360857Y-78446380D01*
X156503714Y-78494000D01*
X156551333Y-78541619D01*
X157456095Y-78446380D02*
X156979904Y-78446380D01*
X156932285Y-78922571D01*
X156979904Y-78874952D01*
X157075142Y-78827333D01*
X157313238Y-78827333D01*
X157408476Y-78874952D01*
X157456095Y-78922571D01*
X157503714Y-79017809D01*
X157503714Y-79255904D01*
X157456095Y-79351142D01*
X157408476Y-79398761D01*
X157313238Y-79446380D01*
X157075142Y-79446380D01*
X156979904Y-79398761D01*
X156932285Y-79351142D01*
X140378380Y-115674333D02*
X141092666Y-115674333D01*
X141235523Y-115721952D01*
X141330761Y-115817190D01*
X141378380Y-115960047D01*
X141378380Y-116055285D01*
X140378380Y-114769571D02*
X140378380Y-114960047D01*
X140426000Y-115055285D01*
X140473619Y-115102904D01*
X140616476Y-115198142D01*
X140806952Y-115245761D01*
X141187904Y-115245761D01*
X141283142Y-115198142D01*
X141330761Y-115150523D01*
X141378380Y-115055285D01*
X141378380Y-114864809D01*
X141330761Y-114769571D01*
X141283142Y-114721952D01*
X141187904Y-114674333D01*
X140949809Y-114674333D01*
X140854571Y-114721952D01*
X140806952Y-114769571D01*
X140759333Y-114864809D01*
X140759333Y-115055285D01*
X140806952Y-115150523D01*
X140854571Y-115198142D01*
X140949809Y-115245761D01*
X121769333Y-69871580D02*
X121436000Y-69395390D01*
X121197904Y-69871580D02*
X121197904Y-68871580D01*
X121578857Y-68871580D01*
X121674095Y-68919200D01*
X121721714Y-68966819D01*
X121769333Y-69062057D01*
X121769333Y-69204914D01*
X121721714Y-69300152D01*
X121674095Y-69347771D01*
X121578857Y-69395390D01*
X121197904Y-69395390D01*
X122674095Y-68871580D02*
X122197904Y-68871580D01*
X122150285Y-69347771D01*
X122197904Y-69300152D01*
X122293142Y-69252533D01*
X122531238Y-69252533D01*
X122626476Y-69300152D01*
X122674095Y-69347771D01*
X122721714Y-69443009D01*
X122721714Y-69681104D01*
X122674095Y-69776342D01*
X122626476Y-69823961D01*
X122531238Y-69871580D01*
X122293142Y-69871580D01*
X122197904Y-69823961D01*
X122150285Y-69776342D01*
X113990380Y-104274857D02*
X113514190Y-104608190D01*
X113990380Y-104846285D02*
X112990380Y-104846285D01*
X112990380Y-104465333D01*
X113038000Y-104370095D01*
X113085619Y-104322476D01*
X113180857Y-104274857D01*
X113323714Y-104274857D01*
X113418952Y-104322476D01*
X113466571Y-104370095D01*
X113514190Y-104465333D01*
X113514190Y-104846285D01*
X113990380Y-103322476D02*
X113990380Y-103893904D01*
X113990380Y-103608190D02*
X112990380Y-103608190D01*
X113133238Y-103703428D01*
X113228476Y-103798666D01*
X113276095Y-103893904D01*
X113323714Y-102465333D02*
X113990380Y-102465333D01*
X112942761Y-102703428D02*
X113657047Y-102941523D01*
X113657047Y-102322476D01*
X159787580Y-83951866D02*
X159311390Y-84285200D01*
X159787580Y-84523295D02*
X158787580Y-84523295D01*
X158787580Y-84142342D01*
X158835200Y-84047104D01*
X158882819Y-83999485D01*
X158978057Y-83951866D01*
X159120914Y-83951866D01*
X159216152Y-83999485D01*
X159263771Y-84047104D01*
X159311390Y-84142342D01*
X159311390Y-84523295D01*
X159787580Y-83475676D02*
X159787580Y-83285200D01*
X159739961Y-83189961D01*
X159692342Y-83142342D01*
X159549485Y-83047104D01*
X159359009Y-82999485D01*
X158978057Y-82999485D01*
X158882819Y-83047104D01*
X158835200Y-83094723D01*
X158787580Y-83189961D01*
X158787580Y-83380438D01*
X158835200Y-83475676D01*
X158882819Y-83523295D01*
X158978057Y-83570914D01*
X159216152Y-83570914D01*
X159311390Y-83523295D01*
X159359009Y-83475676D01*
X159406628Y-83380438D01*
X159406628Y-83189961D01*
X159359009Y-83094723D01*
X159311390Y-83047104D01*
X159216152Y-82999485D01*
X128976380Y-121240157D02*
X128500190Y-121573490D01*
X128976380Y-121811585D02*
X127976380Y-121811585D01*
X127976380Y-121430633D01*
X128024000Y-121335395D01*
X128071619Y-121287776D01*
X128166857Y-121240157D01*
X128309714Y-121240157D01*
X128404952Y-121287776D01*
X128452571Y-121335395D01*
X128500190Y-121430633D01*
X128500190Y-121811585D01*
X128976380Y-120287776D02*
X128976380Y-120859204D01*
X128976380Y-120573490D02*
X127976380Y-120573490D01*
X128119238Y-120668728D01*
X128214476Y-120763966D01*
X128262095Y-120859204D01*
X128404952Y-119716347D02*
X128357333Y-119811585D01*
X128309714Y-119859204D01*
X128214476Y-119906823D01*
X128166857Y-119906823D01*
X128071619Y-119859204D01*
X128024000Y-119811585D01*
X127976380Y-119716347D01*
X127976380Y-119525871D01*
X128024000Y-119430633D01*
X128071619Y-119383014D01*
X128166857Y-119335395D01*
X128214476Y-119335395D01*
X128309714Y-119383014D01*
X128357333Y-119430633D01*
X128404952Y-119525871D01*
X128404952Y-119716347D01*
X128452571Y-119811585D01*
X128500190Y-119859204D01*
X128595428Y-119906823D01*
X128785904Y-119906823D01*
X128881142Y-119859204D01*
X128928761Y-119811585D01*
X128976380Y-119716347D01*
X128976380Y-119525871D01*
X128928761Y-119430633D01*
X128881142Y-119383014D01*
X128785904Y-119335395D01*
X128595428Y-119335395D01*
X128500190Y-119383014D01*
X128452571Y-119430633D01*
X128404952Y-119525871D01*
X165807666Y-88904380D02*
X165807666Y-89618666D01*
X165760047Y-89761523D01*
X165664809Y-89856761D01*
X165521952Y-89904380D01*
X165426714Y-89904380D01*
X166760047Y-88904380D02*
X166283857Y-88904380D01*
X166236238Y-89380571D01*
X166283857Y-89332952D01*
X166379095Y-89285333D01*
X166617190Y-89285333D01*
X166712428Y-89332952D01*
X166760047Y-89380571D01*
X166807666Y-89475809D01*
X166807666Y-89713904D01*
X166760047Y-89809142D01*
X166712428Y-89856761D01*
X166617190Y-89904380D01*
X166379095Y-89904380D01*
X166283857Y-89856761D01*
X166236238Y-89809142D01*
X116709866Y-80197580D02*
X116709866Y-80911866D01*
X116662247Y-81054723D01*
X116567009Y-81149961D01*
X116424152Y-81197580D01*
X116328914Y-81197580D01*
X117138438Y-80292819D02*
X117186057Y-80245200D01*
X117281295Y-80197580D01*
X117519390Y-80197580D01*
X117614628Y-80245200D01*
X117662247Y-80292819D01*
X117709866Y-80388057D01*
X117709866Y-80483295D01*
X117662247Y-80626152D01*
X117090819Y-81197580D01*
X117709866Y-81197580D01*
X153843542Y-118920246D02*
X153891161Y-118967865D01*
X153938780Y-119110722D01*
X153938780Y-119205960D01*
X153891161Y-119348818D01*
X153795923Y-119444056D01*
X153700685Y-119491675D01*
X153510209Y-119539294D01*
X153367352Y-119539294D01*
X153176876Y-119491675D01*
X153081638Y-119444056D01*
X152986400Y-119348818D01*
X152938780Y-119205960D01*
X152938780Y-119110722D01*
X152986400Y-118967865D01*
X153034019Y-118920246D01*
X153938780Y-117967865D02*
X153938780Y-118539294D01*
X153938780Y-118253580D02*
X152938780Y-118253580D01*
X153081638Y-118348818D01*
X153176876Y-118444056D01*
X153224495Y-118539294D01*
X129484380Y-105036857D02*
X129008190Y-105370190D01*
X129484380Y-105608285D02*
X128484380Y-105608285D01*
X128484380Y-105227333D01*
X128532000Y-105132095D01*
X128579619Y-105084476D01*
X128674857Y-105036857D01*
X128817714Y-105036857D01*
X128912952Y-105084476D01*
X128960571Y-105132095D01*
X129008190Y-105227333D01*
X129008190Y-105608285D01*
X129484380Y-104084476D02*
X129484380Y-104655904D01*
X129484380Y-104370190D02*
X128484380Y-104370190D01*
X128627238Y-104465428D01*
X128722476Y-104560666D01*
X128770095Y-104655904D01*
X128484380Y-103179714D02*
X128484380Y-103655904D01*
X128960571Y-103703523D01*
X128912952Y-103655904D01*
X128865333Y-103560666D01*
X128865333Y-103322571D01*
X128912952Y-103227333D01*
X128960571Y-103179714D01*
X129055809Y-103132095D01*
X129293904Y-103132095D01*
X129389142Y-103179714D01*
X129436761Y-103227333D01*
X129484380Y-103322571D01*
X129484380Y-103560666D01*
X129436761Y-103655904D01*
X129389142Y-103703523D01*
X116659066Y-71104380D02*
X116659066Y-71818666D01*
X116611447Y-71961523D01*
X116516209Y-72056761D01*
X116373352Y-72104380D01*
X116278114Y-72104380D01*
X117040019Y-71104380D02*
X117659066Y-71104380D01*
X117325733Y-71485333D01*
X117468590Y-71485333D01*
X117563828Y-71532952D01*
X117611447Y-71580571D01*
X117659066Y-71675809D01*
X117659066Y-71913904D01*
X117611447Y-72009142D01*
X117563828Y-72056761D01*
X117468590Y-72104380D01*
X117182876Y-72104380D01*
X117087638Y-72056761D01*
X117040019Y-72009142D01*
X120751695Y-114006380D02*
X120751695Y-114815904D01*
X120799314Y-114911142D01*
X120846933Y-114958761D01*
X120942171Y-115006380D01*
X121132647Y-115006380D01*
X121227885Y-114958761D01*
X121275504Y-114911142D01*
X121323123Y-114815904D01*
X121323123Y-114006380D01*
X121704076Y-114006380D02*
X122323123Y-114006380D01*
X121989790Y-114387333D01*
X122132647Y-114387333D01*
X122227885Y-114434952D01*
X122275504Y-114482571D01*
X122323123Y-114577809D01*
X122323123Y-114815904D01*
X122275504Y-114911142D01*
X122227885Y-114958761D01*
X122132647Y-115006380D01*
X121846933Y-115006380D01*
X121751695Y-114958761D01*
X121704076Y-114911142D01*
X120838295Y-97496380D02*
X120838295Y-98305904D01*
X120885914Y-98401142D01*
X120933533Y-98448761D01*
X121028771Y-98496380D01*
X121219247Y-98496380D01*
X121314485Y-98448761D01*
X121362104Y-98401142D01*
X121409723Y-98305904D01*
X121409723Y-97496380D01*
X121838295Y-97591619D02*
X121885914Y-97544000D01*
X121981152Y-97496380D01*
X122219247Y-97496380D01*
X122314485Y-97544000D01*
X122362104Y-97591619D01*
X122409723Y-97686857D01*
X122409723Y-97782095D01*
X122362104Y-97924952D01*
X121790676Y-98496380D01*
X122409723Y-98496380D01*
D12*
X125111200Y-76758800D02*
X127771200Y-76758800D01*
X127771200Y-76758800D02*
X127771200Y-79358800D01*
X126441200Y-74158800D02*
X127771200Y-74158800D01*
X127771200Y-74158800D02*
X127771200Y-75488800D01*
X125111200Y-79358800D02*
X127771200Y-79358800D01*
X125111200Y-76758800D02*
X125111200Y-79358800D01*
X128666400Y-90137400D02*
X123596400Y-90137400D01*
X123596400Y-80367400D02*
X123596400Y-90137400D01*
X128666400Y-80367400D02*
X128666400Y-90137400D01*
X128666400Y-80367400D02*
X123596400Y-80367400D01*
X121756600Y-76004664D02*
X121756600Y-75550536D01*
X120286600Y-76004664D02*
X120286600Y-75550536D01*
X126719064Y-94007000D02*
X126264936Y-94007000D01*
X126719064Y-95477000D02*
X126264936Y-95477000D01*
X135612400Y-102068000D02*
X135612400Y-112308000D01*
X135612400Y-112308000D02*
X137412400Y-112308000D01*
X155792400Y-107188000D02*
X153852400Y-107188000D01*
X134412400Y-103688000D02*
X134412400Y-105488000D01*
X138312400Y-111408000D02*
X139212400Y-112308000D01*
X137412400Y-112308000D02*
X138312400Y-111408000D01*
X135612400Y-102068000D02*
X137412400Y-102068000D01*
X153852400Y-102068000D02*
X153852400Y-112308000D01*
X133672400Y-107188000D02*
X135612400Y-107188000D01*
X137412400Y-102068000D02*
X138312400Y-102968000D01*
X139212400Y-102068000D02*
X153852400Y-102068000D01*
X139212400Y-112308000D02*
X153852400Y-112308000D01*
X138312400Y-102968000D02*
X139212400Y-102068000D01*
X133512400Y-104588000D02*
X135312400Y-104588000D01*
X161771000Y-78189064D02*
X161771000Y-77734936D01*
X160301000Y-78189064D02*
X160301000Y-77734936D01*
X137256800Y-99963600D02*
X138156800Y-99063600D01*
X133356800Y-92243600D02*
X135156800Y-92243600D01*
X138156800Y-90623600D02*
X139056800Y-89723600D01*
X139056800Y-89723600D02*
X153696800Y-89723600D01*
X135456800Y-99963600D02*
X137256800Y-99963600D01*
X135456800Y-89723600D02*
X135456800Y-99963600D01*
X153696800Y-89723600D02*
X153696800Y-99963600D01*
X137256800Y-89723600D02*
X138156800Y-90623600D01*
X155636800Y-94843600D02*
X153696800Y-94843600D01*
X138156800Y-99063600D02*
X139056800Y-99963600D01*
X135456800Y-89723600D02*
X137256800Y-89723600D01*
X134256800Y-91343600D02*
X134256800Y-93143600D01*
X133516800Y-94843600D02*
X135456800Y-94843600D01*
X139056800Y-99963600D02*
X153696800Y-99963600D01*
X160047000Y-93953064D02*
X160047000Y-93498936D01*
X161517000Y-93953064D02*
X161517000Y-93498936D01*
X129665400Y-113799864D02*
X129665400Y-113345736D01*
X128195400Y-113799864D02*
X128195400Y-113345736D01*
X166929800Y-102007200D02*
X165679800Y-102007200D01*
X165679800Y-102007200D02*
X165679800Y-112287200D01*
X170179800Y-112287200D02*
X170179800Y-102007200D01*
X165679800Y-112287200D02*
X170179800Y-112287200D01*
X170179800Y-102007200D02*
X168929800Y-102007200D01*
X166929800Y-102007200D02*
G75*
G03*
X168929800Y-102007200I1000000J0D01*
G01*
X148868000Y-116865000D02*
X150133000Y-116865000D01*
X145604000Y-116785000D02*
X150052000Y-116785000D01*
X144610000Y-118866000D02*
X146788000Y-118866000D01*
X148868000Y-117625000D02*
X150684000Y-117625000D01*
X144617000Y-118786000D02*
X146788000Y-118786000D01*
X144669000Y-118466000D02*
X146788000Y-118466000D01*
X148868000Y-116905000D02*
X150171000Y-116905000D01*
X144613000Y-118826000D02*
X146788000Y-118826000D01*
X148868000Y-117385000D02*
X150544000Y-117385000D01*
X148868000Y-118506000D02*
X150995000Y-118506000D01*
X145523000Y-116865000D02*
X146788000Y-116865000D01*
X145674000Y-122331241D02*
X146304000Y-122331241D01*
X144730000Y-118225000D02*
X146788000Y-118225000D01*
X145192000Y-117265000D02*
X146788000Y-117265000D01*
X144598000Y-119146000D02*
X151058000Y-119146000D01*
X148868000Y-117905000D02*
X150814000Y-117905000D01*
X146663000Y-116105000D02*
X148993000Y-116105000D01*
X148868000Y-118786000D02*
X151039000Y-118786000D01*
X145938000Y-116505000D02*
X149718000Y-116505000D01*
X146478000Y-116185000D02*
X149178000Y-116185000D01*
X144742000Y-118185000D02*
X146788000Y-118185000D01*
X148868000Y-117705000D02*
X150724000Y-117705000D01*
X144639000Y-118626000D02*
X146788000Y-118626000D01*
X145448000Y-116945000D02*
X146788000Y-116945000D01*
X144646000Y-118586000D02*
X146788000Y-118586000D01*
X144972000Y-117625000D02*
X146788000Y-117625000D01*
X145563000Y-116825000D02*
X150093000Y-116825000D01*
X144627000Y-118706000D02*
X146788000Y-118706000D01*
X145485000Y-116905000D02*
X146788000Y-116905000D01*
X148868000Y-117865000D02*
X150798000Y-117865000D01*
X146888000Y-116025000D02*
X148768000Y-116025000D01*
X148868000Y-118185000D02*
X150914000Y-118185000D01*
X145164000Y-117305000D02*
X146788000Y-117305000D01*
X148868000Y-118826000D02*
X151043000Y-118826000D01*
X144598000Y-119066000D02*
X151058000Y-119066000D01*
X148868000Y-118586000D02*
X151010000Y-118586000D01*
X148868000Y-118265000D02*
X150938000Y-118265000D01*
X148868000Y-117345000D02*
X150518000Y-117345000D01*
X147195000Y-115945000D02*
X148461000Y-115945000D01*
X145312000Y-117105000D02*
X146788000Y-117105000D01*
X147426000Y-115905000D02*
X148230000Y-115905000D01*
X145062000Y-117465000D02*
X146788000Y-117465000D01*
X148868000Y-117105000D02*
X150344000Y-117105000D01*
X144826000Y-117945000D02*
X146788000Y-117945000D01*
X148868000Y-117065000D02*
X150312000Y-117065000D01*
X146566000Y-116145000D02*
X149090000Y-116145000D01*
X145646000Y-116745000D02*
X150010000Y-116745000D01*
X144687000Y-118385000D02*
X146788000Y-118385000D01*
X144622000Y-118746000D02*
X146788000Y-118746000D01*
X144894000Y-117785000D02*
X146788000Y-117785000D01*
X148868000Y-117825000D02*
X150780000Y-117825000D01*
X147026000Y-115985000D02*
X148630000Y-115985000D01*
X148868000Y-118105000D02*
X150889000Y-118105000D01*
X148868000Y-118626000D02*
X151017000Y-118626000D01*
X148868000Y-117425000D02*
X150570000Y-117425000D01*
X148868000Y-117665000D02*
X150704000Y-117665000D01*
X144858000Y-117865000D02*
X146788000Y-117865000D01*
X144754000Y-118145000D02*
X146788000Y-118145000D01*
X146178000Y-116345000D02*
X149478000Y-116345000D01*
X145280000Y-117145000D02*
X146788000Y-117145000D01*
X148868000Y-116985000D02*
X150244000Y-116985000D01*
X148868000Y-117185000D02*
X150406000Y-117185000D01*
X148868000Y-116945000D02*
X150208000Y-116945000D01*
X145784000Y-116625000D02*
X149872000Y-116625000D01*
X148868000Y-118065000D02*
X150875000Y-118065000D01*
X144876000Y-117825000D02*
X146788000Y-117825000D01*
X148868000Y-118425000D02*
X150978000Y-118425000D01*
X144994000Y-117585000D02*
X146788000Y-117585000D01*
X145112000Y-117385000D02*
X146788000Y-117385000D01*
X148868000Y-118225000D02*
X150926000Y-118225000D01*
X145884000Y-116545000D02*
X149772000Y-116545000D01*
X148868000Y-117945000D02*
X150830000Y-117945000D01*
X145691000Y-116705000D02*
X149965000Y-116705000D01*
X145038000Y-117505000D02*
X146788000Y-117505000D01*
X145250000Y-117185000D02*
X146788000Y-117185000D01*
X144810000Y-117985000D02*
X146788000Y-117985000D01*
X146247000Y-116305000D02*
X149409000Y-116305000D01*
X145016000Y-117545000D02*
X146788000Y-117545000D01*
X146769000Y-116065000D02*
X148887000Y-116065000D01*
X148868000Y-118025000D02*
X150861000Y-118025000D01*
X145221000Y-117225000D02*
X146788000Y-117225000D01*
X148868000Y-118706000D02*
X151029000Y-118706000D01*
X145378000Y-117025000D02*
X146788000Y-117025000D01*
X144678000Y-118425000D02*
X146788000Y-118425000D01*
X148868000Y-118866000D02*
X151046000Y-118866000D01*
X148868000Y-117225000D02*
X150435000Y-117225000D01*
X148868000Y-117505000D02*
X150618000Y-117505000D01*
X148868000Y-118666000D02*
X151023000Y-118666000D01*
X148868000Y-117585000D02*
X150662000Y-117585000D01*
X144661000Y-118506000D02*
X146788000Y-118506000D01*
X146114000Y-116385000D02*
X149542000Y-116385000D01*
X145412000Y-116985000D02*
X146788000Y-116985000D01*
X144653000Y-118546000D02*
X146788000Y-118546000D01*
X144952000Y-117665000D02*
X146788000Y-117665000D01*
X148868000Y-118145000D02*
X150902000Y-118145000D01*
X148868000Y-117985000D02*
X150846000Y-117985000D01*
X146319000Y-116265000D02*
X149337000Y-116265000D01*
X144781000Y-118065000D02*
X146788000Y-118065000D01*
X144842000Y-117905000D02*
X146788000Y-117905000D01*
X148868000Y-117465000D02*
X150594000Y-117465000D01*
X145833000Y-116585000D02*
X149823000Y-116585000D01*
X144795000Y-118025000D02*
X146788000Y-118025000D01*
X148868000Y-117785000D02*
X150762000Y-117785000D01*
X146396000Y-116225000D02*
X149260000Y-116225000D01*
X144606000Y-118906000D02*
X146788000Y-118906000D01*
X148868000Y-117545000D02*
X150640000Y-117545000D01*
X148868000Y-117145000D02*
X150376000Y-117145000D01*
X146052000Y-116425000D02*
X149604000Y-116425000D01*
X144601000Y-118986000D02*
X151055000Y-118986000D01*
X148868000Y-118466000D02*
X150987000Y-118466000D01*
X145138000Y-117345000D02*
X146788000Y-117345000D01*
X144767000Y-118105000D02*
X146788000Y-118105000D01*
X145344000Y-117065000D02*
X146788000Y-117065000D01*
X148868000Y-118345000D02*
X150959000Y-118345000D01*
X144633000Y-118666000D02*
X146788000Y-118666000D01*
X145086000Y-117425000D02*
X146788000Y-117425000D01*
X148868000Y-117025000D02*
X150278000Y-117025000D01*
X145736000Y-116665000D02*
X149920000Y-116665000D01*
X148868000Y-117745000D02*
X150744000Y-117745000D01*
X145994000Y-116465000D02*
X149662000Y-116465000D01*
X148868000Y-118385000D02*
X150969000Y-118385000D01*
X148868000Y-118746000D02*
X151034000Y-118746000D01*
X145989000Y-122646241D02*
X145989000Y-122016241D01*
X144600000Y-119026000D02*
X151056000Y-119026000D01*
X148868000Y-117265000D02*
X150464000Y-117265000D01*
X148868000Y-118305000D02*
X150949000Y-118305000D01*
X148868000Y-118906000D02*
X151050000Y-118906000D01*
X144697000Y-118345000D02*
X146788000Y-118345000D01*
X144598000Y-119106000D02*
X151058000Y-119106000D01*
X148868000Y-117305000D02*
X150492000Y-117305000D01*
X144604000Y-118946000D02*
X151052000Y-118946000D01*
X148868000Y-118546000D02*
X151003000Y-118546000D01*
X144912000Y-117745000D02*
X146788000Y-117745000D01*
X144932000Y-117705000D02*
X146788000Y-117705000D01*
X144707000Y-118305000D02*
X146788000Y-118305000D01*
X144718000Y-118265000D02*
X146788000Y-118265000D01*
X151098000Y-119146000D02*
G75*
G03*
X151098000Y-119146000I-3270000J0D01*
G01*
X126128536Y-70283400D02*
X126582664Y-70283400D01*
X126128536Y-71753400D02*
X126582664Y-71753400D01*
X167182800Y-121116400D02*
X167182800Y-118456400D01*
X167182800Y-118456400D02*
X172322800Y-118456400D01*
X164582800Y-118456400D02*
X165912800Y-118456400D01*
X164582800Y-119786400D02*
X164582800Y-118456400D01*
X167182800Y-121116400D02*
X172322800Y-121116400D01*
X172322800Y-121116400D02*
X172322800Y-118456400D01*
X129668600Y-125179064D02*
X129668600Y-124724936D01*
X131138600Y-125179064D02*
X131138600Y-124724936D01*
X155746000Y-73618400D02*
X153946000Y-73618400D01*
X150046000Y-76138400D02*
X135406000Y-76138400D01*
X150946000Y-66798400D02*
X150046000Y-65898400D01*
X150946000Y-75238400D02*
X150046000Y-76138400D01*
X153646000Y-76138400D02*
X153646000Y-65898400D01*
X153646000Y-76138400D02*
X151846000Y-76138400D01*
X151846000Y-76138400D02*
X150946000Y-75238400D01*
X135406000Y-76138400D02*
X135406000Y-65898400D01*
X150046000Y-65898400D02*
X135406000Y-65898400D01*
X153646000Y-65898400D02*
X151846000Y-65898400D01*
X151846000Y-65898400D02*
X150946000Y-66798400D01*
X133466000Y-71018400D02*
X135406000Y-71018400D01*
X154846000Y-74518400D02*
X154846000Y-72718400D01*
X155586000Y-71018400D02*
X153646000Y-71018400D01*
X150046000Y-87670000D02*
X135406000Y-87670000D01*
X153646000Y-77430000D02*
X151846000Y-77430000D01*
X154846000Y-86050000D02*
X154846000Y-84250000D01*
X150946000Y-78330000D02*
X150046000Y-77430000D01*
X133466000Y-82550000D02*
X135406000Y-82550000D01*
X155586000Y-82550000D02*
X153646000Y-82550000D01*
X150946000Y-86770000D02*
X150046000Y-87670000D01*
X150046000Y-77430000D02*
X135406000Y-77430000D01*
X135406000Y-87670000D02*
X135406000Y-77430000D01*
X153646000Y-87670000D02*
X151846000Y-87670000D01*
X151846000Y-87670000D02*
X150946000Y-86770000D01*
X151846000Y-77430000D02*
X150946000Y-78330000D01*
X155746000Y-85150000D02*
X153946000Y-85150000D01*
X153646000Y-87670000D02*
X153646000Y-77430000D01*
X136886000Y-116671000D02*
X134286000Y-116671000D01*
X136886000Y-114011000D02*
X136886000Y-116671000D01*
X139486000Y-116671000D02*
X138156000Y-116671000D01*
X136886000Y-114011000D02*
X134286000Y-114011000D01*
X134286000Y-114011000D02*
X134286000Y-116671000D01*
X139486000Y-115341000D02*
X139486000Y-116671000D01*
X121708936Y-71804200D02*
X122163064Y-71804200D01*
X121708936Y-70334200D02*
X122163064Y-70334200D01*
X112904600Y-107465864D02*
X112904600Y-107011736D01*
X114374600Y-107465864D02*
X114374600Y-107011736D01*
X161720200Y-84012264D02*
X161720200Y-83558136D01*
X160250200Y-84012264D02*
X160250200Y-83558136D01*
X131037000Y-120370236D02*
X131037000Y-120824364D01*
X129567000Y-120370236D02*
X129567000Y-120824364D01*
X167471000Y-93492000D02*
X167471000Y-96092000D01*
X164811000Y-96092000D02*
X167471000Y-96092000D01*
X164811000Y-93492000D02*
X164811000Y-96092000D01*
X166141000Y-90892000D02*
X167471000Y-90892000D01*
X167471000Y-90892000D02*
X167471000Y-92222000D01*
X164811000Y-93492000D02*
X167471000Y-93492000D01*
X118373200Y-84785200D02*
X118373200Y-87385200D01*
X115713200Y-87385200D02*
X118373200Y-87385200D01*
X117043200Y-82185200D02*
X118373200Y-82185200D01*
X115713200Y-84785200D02*
X115713200Y-87385200D01*
X118373200Y-82185200D02*
X118373200Y-83515200D01*
X115713200Y-84785200D02*
X118373200Y-84785200D01*
X155170400Y-116992580D02*
X156846400Y-116992580D01*
X154685400Y-118313580D02*
X156846400Y-118313580D01*
X158926400Y-116552580D02*
X160266400Y-116552580D01*
X155370400Y-116712580D02*
X156846400Y-116712580D01*
X154853400Y-117632580D02*
X156846400Y-117632580D01*
X158926400Y-118473580D02*
X161104400Y-118473580D01*
X154656400Y-118713580D02*
X161116400Y-118713580D01*
X158926400Y-117232580D02*
X160742400Y-117232580D01*
X158926400Y-117792580D02*
X160972400Y-117792580D01*
X158926400Y-117872580D02*
X160996400Y-117872580D01*
X156827400Y-115672580D02*
X158945400Y-115672580D01*
X158926400Y-117472580D02*
X160856400Y-117472580D01*
X158926400Y-116952580D02*
X160576400Y-116952580D01*
X158926400Y-117632580D02*
X160919400Y-117632580D01*
X157484400Y-115512580D02*
X158288400Y-115512580D01*
X154662400Y-118553580D02*
X161110400Y-118553580D01*
X158926400Y-117952580D02*
X161017400Y-117952580D01*
X156536400Y-115792580D02*
X159236400Y-115792580D01*
X158926400Y-117152580D02*
X160698400Y-117152580D01*
X158926400Y-117312580D02*
X160782400Y-117312580D01*
X155279400Y-116832580D02*
X156846400Y-116832580D01*
X156377400Y-115872580D02*
X159395400Y-115872580D01*
X158926400Y-117112580D02*
X160676400Y-117112580D01*
X158926400Y-117592580D02*
X160904400Y-117592580D01*
X156721400Y-115712580D02*
X159051400Y-115712580D01*
X158926400Y-116832580D02*
X160493400Y-116832580D01*
X155794400Y-116272580D02*
X159978400Y-116272580D01*
X154745400Y-117992580D02*
X156846400Y-117992580D01*
X158926400Y-116672580D02*
X160370400Y-116672580D01*
X158926400Y-116592580D02*
X160302400Y-116592580D01*
X154675400Y-118393580D02*
X156846400Y-118393580D01*
X155470400Y-116592580D02*
X156846400Y-116592580D01*
X154736400Y-118032580D02*
X156846400Y-118032580D01*
X158926400Y-118233580D02*
X161075400Y-118233580D01*
X158926400Y-118273580D02*
X161081400Y-118273580D01*
X155052400Y-117192580D02*
X156846400Y-117192580D01*
X155250400Y-116872580D02*
X156846400Y-116872580D01*
X154719400Y-118113580D02*
X156846400Y-118113580D01*
X158926400Y-117992580D02*
X161027400Y-117992580D01*
X154704400Y-118193580D02*
X156846400Y-118193580D01*
X158926400Y-117752580D02*
X160960400Y-117752580D01*
X154839400Y-117672580D02*
X156846400Y-117672580D01*
X155144400Y-117032580D02*
X156846400Y-117032580D01*
X155030400Y-117232580D02*
X156846400Y-117232580D01*
X156052400Y-116072580D02*
X159720400Y-116072580D01*
X158926400Y-117912580D02*
X161007400Y-117912580D01*
X158926400Y-116632580D02*
X160336400Y-116632580D01*
X154658400Y-118633580D02*
X161114400Y-118633580D01*
X154868400Y-117592580D02*
X156846400Y-117592580D01*
X158926400Y-116992580D02*
X160602400Y-116992580D01*
X155196400Y-116952580D02*
X156846400Y-116952580D01*
X158926400Y-117672580D02*
X160933400Y-117672580D01*
X155338400Y-116752580D02*
X156846400Y-116752580D01*
X158926400Y-118393580D02*
X161097400Y-118393580D01*
X158926400Y-118193580D02*
X161068400Y-118193580D01*
X154900400Y-117512580D02*
X156846400Y-117512580D01*
X154755400Y-117952580D02*
X156846400Y-117952580D01*
X156172400Y-115992580D02*
X159600400Y-115992580D01*
X155621400Y-116432580D02*
X160151400Y-116432580D01*
X158926400Y-118313580D02*
X161087400Y-118313580D01*
X154825400Y-117712580D02*
X156846400Y-117712580D01*
X158926400Y-116712580D02*
X160402400Y-116712580D01*
X155402400Y-116672580D02*
X156846400Y-116672580D01*
X154788400Y-117832580D02*
X156846400Y-117832580D01*
X158926400Y-118353580D02*
X161092400Y-118353580D01*
X154727400Y-118073580D02*
X156846400Y-118073580D01*
X156454400Y-115832580D02*
X159318400Y-115832580D01*
X158926400Y-118073580D02*
X161045400Y-118073580D01*
X158926400Y-117832580D02*
X160984400Y-117832580D01*
X155942400Y-116152580D02*
X159830400Y-116152580D01*
X154659400Y-118593580D02*
X161113400Y-118593580D01*
X154656400Y-118753580D02*
X161116400Y-118753580D01*
X158926400Y-116792580D02*
X160464400Y-116792580D01*
X155732400Y-121938821D02*
X156362400Y-121938821D01*
X155120400Y-117072580D02*
X156846400Y-117072580D01*
X156236400Y-115952580D02*
X159536400Y-115952580D01*
X158926400Y-117032580D02*
X160628400Y-117032580D01*
X156305400Y-115912580D02*
X159467400Y-115912580D01*
X155842400Y-116232580D02*
X159930400Y-116232580D01*
X156624400Y-115752580D02*
X159148400Y-115752580D01*
X154776400Y-117872580D02*
X156846400Y-117872580D01*
X155581400Y-116472580D02*
X156846400Y-116472580D01*
X158926400Y-117272580D02*
X160762400Y-117272580D01*
X154812400Y-117752580D02*
X156846400Y-117752580D01*
X154671400Y-118433580D02*
X156846400Y-118433580D01*
X154765400Y-117912580D02*
X156846400Y-117912580D01*
X154934400Y-117432580D02*
X156846400Y-117432580D01*
X157084400Y-115592580D02*
X158688400Y-115592580D01*
X154697400Y-118233580D02*
X156846400Y-118233580D01*
X158926400Y-116512580D02*
X160229400Y-116512580D01*
X156110400Y-116032580D02*
X159662400Y-116032580D01*
X155074400Y-117152580D02*
X156846400Y-117152580D01*
X154884400Y-117552580D02*
X156846400Y-117552580D01*
X155891400Y-116192580D02*
X159881400Y-116192580D01*
X154970400Y-117352580D02*
X156846400Y-117352580D01*
X154668400Y-118473580D02*
X156846400Y-118473580D01*
X155010400Y-117272580D02*
X156846400Y-117272580D01*
X158926400Y-117072580D02*
X160652400Y-117072580D01*
X155996400Y-116112580D02*
X159776400Y-116112580D01*
X158926400Y-118513580D02*
X161108400Y-118513580D01*
X156047400Y-122253821D02*
X156047400Y-121623821D01*
X154711400Y-118153580D02*
X156846400Y-118153580D01*
X155506400Y-116552580D02*
X156846400Y-116552580D01*
X155222400Y-116912580D02*
X156846400Y-116912580D01*
X158926400Y-117392580D02*
X160820400Y-117392580D01*
X154990400Y-117312580D02*
X156846400Y-117312580D01*
X155308400Y-116792580D02*
X156846400Y-116792580D01*
X154916400Y-117472580D02*
X156846400Y-117472580D01*
X158926400Y-117712580D02*
X160947400Y-117712580D01*
X158926400Y-118433580D02*
X161101400Y-118433580D01*
X154800400Y-117792580D02*
X156846400Y-117792580D01*
X154952400Y-117392580D02*
X156846400Y-117392580D01*
X158926400Y-118113580D02*
X161053400Y-118113580D01*
X158926400Y-116472580D02*
X160191400Y-116472580D01*
X155543400Y-116512580D02*
X156846400Y-116512580D01*
X158926400Y-117512580D02*
X160872400Y-117512580D01*
X158926400Y-116752580D02*
X160434400Y-116752580D01*
X155704400Y-116352580D02*
X160068400Y-116352580D01*
X158926400Y-117192580D02*
X160720400Y-117192580D01*
X155436400Y-116632580D02*
X156846400Y-116632580D01*
X158926400Y-117552580D02*
X160888400Y-117552580D01*
X155749400Y-116312580D02*
X160023400Y-116312580D01*
X155096400Y-117112580D02*
X156846400Y-117112580D01*
X157253400Y-115552580D02*
X158519400Y-115552580D01*
X154680400Y-118353580D02*
X156846400Y-118353580D01*
X158926400Y-118153580D02*
X161061400Y-118153580D01*
X158926400Y-118032580D02*
X161036400Y-118032580D01*
X158926400Y-117352580D02*
X160802400Y-117352580D01*
X158926400Y-116912580D02*
X160550400Y-116912580D01*
X154691400Y-118273580D02*
X156846400Y-118273580D01*
X156946400Y-115632580D02*
X158826400Y-115632580D01*
X155662400Y-116392580D02*
X160110400Y-116392580D01*
X158926400Y-116872580D02*
X160522400Y-116872580D01*
X158926400Y-117432580D02*
X160838400Y-117432580D01*
X154664400Y-118513580D02*
X156846400Y-118513580D01*
X154656400Y-118673580D02*
X161116400Y-118673580D01*
X161156400Y-118753580D02*
G75*
G03*
X161156400Y-118753580I-3270000J0D01*
G01*
X128043000Y-108685064D02*
X128043000Y-108230936D01*
X129513000Y-108685064D02*
X129513000Y-108230936D01*
X115662400Y-78292000D02*
X118322400Y-78292000D01*
X116992400Y-73092000D02*
X118322400Y-73092000D01*
X115662400Y-75692000D02*
X115662400Y-78292000D01*
X115662400Y-75692000D02*
X118322400Y-75692000D01*
X118322400Y-73092000D02*
X118322400Y-74422000D01*
X118322400Y-75692000D02*
X118322400Y-78292000D01*
X119263600Y-116119600D02*
X119263600Y-126399600D01*
X119263600Y-126399600D02*
X123763600Y-126399600D01*
X120513600Y-116119600D02*
X119263600Y-116119600D01*
X123763600Y-116119600D02*
X122513600Y-116119600D01*
X123763600Y-126399600D02*
X123763600Y-116119600D01*
X120513600Y-116119600D02*
G75*
G03*
X122513600Y-116119600I1000000J0D01*
G01*
X123850200Y-110001200D02*
X123850200Y-99721200D01*
X119350200Y-110001200D02*
X123850200Y-110001200D01*
X123850200Y-99721200D02*
X122600200Y-99721200D01*
X119350200Y-99721200D02*
X119350200Y-110001200D01*
X120600200Y-99721200D02*
X119350200Y-99721200D01*
X120600200Y-99721200D02*
G75*
G03*
X122600200Y-99721200I1000000J0D01*
G01*
%LPC*%
D13*
X126441200Y-75488800D03*
D14*
X126441200Y-78028800D03*
D15*
X126136400Y-87792400D03*
X126136400Y-85252400D03*
X126136400Y-82712400D03*
D16*
X121021600Y-76777600D03*
X121021600Y-74777600D03*
D17*
X113792000Y-64008000D03*
D18*
X113792000Y-64008000D03*
D19*
X127492000Y-94742000D03*
X125492000Y-94742000D03*
D20*
X132232400Y-107188000D03*
D21*
X157232400Y-107188000D03*
D16*
X161036000Y-78962000D03*
X161036000Y-76962000D03*
D20*
X132076800Y-94843600D03*
D21*
X157076800Y-94843600D03*
D16*
X160782000Y-94726000D03*
X160782000Y-92726000D03*
X128930400Y-114572800D03*
X128930400Y-112572800D03*
D17*
X172974000Y-128524000D03*
D18*
X172974000Y-128524000D03*
D22*
X164119800Y-103337200D03*
D23*
X164119800Y-105877200D03*
X164119800Y-108417200D03*
X164119800Y-110957200D03*
X171739800Y-110957200D03*
X171739800Y-108417200D03*
X171739800Y-105877200D03*
X171739800Y-103337200D03*
D24*
X147828000Y-120396000D03*
D25*
X147828000Y-117896000D03*
D26*
X125355600Y-71018400D03*
X127355600Y-71018400D03*
D13*
X165912800Y-119786400D03*
D14*
X168452800Y-119786400D03*
X170992800Y-119786400D03*
D16*
X130403600Y-125952000D03*
X130403600Y-123952000D03*
D20*
X157026000Y-71018400D03*
D21*
X132026000Y-71018400D03*
D20*
X157026000Y-82550000D03*
D21*
X132026000Y-82550000D03*
D13*
X138156000Y-115341000D03*
D14*
X135616000Y-115341000D03*
D26*
X120936000Y-71069200D03*
X122936000Y-71069200D03*
D16*
X113639600Y-108238800D03*
X113639600Y-106238800D03*
X160985200Y-84785200D03*
X160985200Y-82785200D03*
D27*
X130302000Y-119684800D03*
X130302000Y-121509800D03*
D13*
X166141000Y-92222000D03*
D14*
X166141000Y-94762000D03*
D13*
X117043200Y-83515200D03*
D14*
X117043200Y-86055200D03*
D24*
X157886400Y-120003580D03*
D25*
X157886400Y-117503580D03*
D16*
X128778000Y-109458000D03*
X128778000Y-107458000D03*
D18*
X173228000Y-64262000D03*
D17*
X173228000Y-64262000D03*
D13*
X116992400Y-74422000D03*
D14*
X116992400Y-76962000D03*
D22*
X117703600Y-117449600D03*
D23*
X117703600Y-119989600D03*
X117703600Y-122529600D03*
X117703600Y-125069600D03*
X125323600Y-125069600D03*
X125323600Y-122529600D03*
X125323600Y-119989600D03*
X125323600Y-117449600D03*
D18*
X113284000Y-128524000D03*
D17*
X113284000Y-128524000D03*
D22*
X117790200Y-101051200D03*
D23*
X117790200Y-103591200D03*
X117790200Y-106131200D03*
X117790200Y-108671200D03*
X125410200Y-108671200D03*
X125410200Y-106131200D03*
X125410200Y-103591200D03*
X125410200Y-101051200D03*
M02*
