G04 #@! TF.GenerationSoftware,KiCad,Pcbnew,(6.0.9)*
G04 #@! TF.CreationDate,2022-12-01T15:56:23+01:00*
G04 #@! TF.ProjectId,Twin-T,5477696e-2d54-42e6-9b69-6361645f7063,rev?*
G04 #@! TF.SameCoordinates,Original*
G04 #@! TF.FileFunction,Legend,Bot*
G04 #@! TF.FilePolarity,Positive*
%FSLAX46Y46*%
G04 Gerber Fmt 4.6, Leading zero omitted, Abs format (unit mm)*
G04 Created by KiCad (PCBNEW (6.0.9)) date 2022-12-01 15:56:23*
%MOMM*%
%LPD*%
G01*
G04 APERTURE LIST*
G04 Aperture macros list*
%AMRoundRect*
0 Rectangle with rounded corners*
0 $1 Rounding radius*
0 $2 $3 $4 $5 $6 $7 $8 $9 X,Y pos of 4 corners*
0 Add a 4 corners polygon primitive as box body*
4,1,4,$2,$3,$4,$5,$6,$7,$8,$9,$2,$3,0*
0 Add four circle primitives for the rounded corners*
1,1,$1+$1,$2,$3*
1,1,$1+$1,$4,$5*
1,1,$1+$1,$6,$7*
1,1,$1+$1,$8,$9*
0 Add four rect primitives between the rounded corners*
20,1,$1+$1,$2,$3,$4,$5,0*
20,1,$1+$1,$4,$5,$6,$7,0*
20,1,$1+$1,$6,$7,$8,$9,0*
20,1,$1+$1,$8,$9,$2,$3,0*%
G04 Aperture macros list end*
%ADD10C,0.300000*%
%ADD11C,0.150000*%
%ADD12C,0.120000*%
%ADD13R,1.700000X1.700000*%
%ADD14O,1.700000X1.700000*%
%ADD15C,1.440000*%
%ADD16C,5.600000*%
%ADD17C,3.600000*%
%ADD18R,2.400000X2.400000*%
%ADD19O,2.400000X2.400000*%
%ADD20R,2.400000X1.600000*%
%ADD21O,2.400000X1.600000*%
%ADD22R,1.600000X1.600000*%
%ADD23C,1.600000*%
%ADD24RoundRect,0.250000X-0.475000X0.337500X-0.475000X-0.337500X0.475000X-0.337500X0.475000X0.337500X0*%
%ADD25RoundRect,0.250000X0.337500X0.475000X-0.337500X0.475000X-0.337500X-0.475000X0.337500X-0.475000X0*%
%ADD26RoundRect,0.250000X0.475000X-0.337500X0.475000X0.337500X-0.475000X0.337500X-0.475000X-0.337500X0*%
G04 APERTURE END LIST*
D10*
X152303714Y-127440571D02*
X152303714Y-128940571D01*
X152303714Y-127512000D02*
X152160857Y-127440571D01*
X151875142Y-127440571D01*
X151732285Y-127512000D01*
X151660857Y-127583428D01*
X151589428Y-127726285D01*
X151589428Y-128154857D01*
X151660857Y-128297714D01*
X151732285Y-128369142D01*
X151875142Y-128440571D01*
X152160857Y-128440571D01*
X152303714Y-128369142D01*
X150303714Y-128440571D02*
X150303714Y-127654857D01*
X150375142Y-127512000D01*
X150518000Y-127440571D01*
X150803714Y-127440571D01*
X150946571Y-127512000D01*
X150303714Y-128369142D02*
X150446571Y-128440571D01*
X150803714Y-128440571D01*
X150946571Y-128369142D01*
X151018000Y-128226285D01*
X151018000Y-128083428D01*
X150946571Y-127940571D01*
X150803714Y-127869142D01*
X150446571Y-127869142D01*
X150303714Y-127797714D01*
X148946571Y-127440571D02*
X148946571Y-128440571D01*
X149589428Y-127440571D02*
X149589428Y-128226285D01*
X149518000Y-128369142D01*
X149375142Y-128440571D01*
X149160857Y-128440571D01*
X149018000Y-128369142D01*
X148946571Y-128297714D01*
X148018000Y-128440571D02*
X148160857Y-128369142D01*
X148232285Y-128226285D01*
X148232285Y-126940571D01*
X147589428Y-127440571D02*
X147232285Y-128440571D01*
X146875142Y-127440571D01*
X144732285Y-129012000D02*
X144803714Y-128940571D01*
X144946571Y-128726285D01*
X145018000Y-128583428D01*
X145089428Y-128369142D01*
X145160857Y-128012000D01*
X145160857Y-127726285D01*
X145089428Y-127369142D01*
X145018000Y-127154857D01*
X144946571Y-127012000D01*
X144803714Y-126797714D01*
X144732285Y-126726285D01*
X143518000Y-128369142D02*
X143660857Y-128440571D01*
X143946571Y-128440571D01*
X144089428Y-128369142D01*
X144160857Y-128297714D01*
X144232285Y-128154857D01*
X144232285Y-127726285D01*
X144160857Y-127583428D01*
X144089428Y-127512000D01*
X143946571Y-127440571D01*
X143660857Y-127440571D01*
X143518000Y-127512000D01*
X143018000Y-129012000D02*
X142946571Y-128940571D01*
X142803714Y-128726285D01*
X142732285Y-128583428D01*
X142660857Y-128369142D01*
X142589428Y-128012000D01*
X142589428Y-127726285D01*
X142660857Y-127369142D01*
X142732285Y-127154857D01*
X142803714Y-127012000D01*
X142946571Y-126797714D01*
X143018000Y-126726285D01*
X140803714Y-127083428D02*
X140732285Y-127012000D01*
X140589428Y-126940571D01*
X140232285Y-126940571D01*
X140089428Y-127012000D01*
X140018000Y-127083428D01*
X139946571Y-127226285D01*
X139946571Y-127369142D01*
X140018000Y-127583428D01*
X140875142Y-128440571D01*
X139946571Y-128440571D01*
X139018000Y-126940571D02*
X138875142Y-126940571D01*
X138732285Y-127012000D01*
X138660857Y-127083428D01*
X138589428Y-127226285D01*
X138518000Y-127512000D01*
X138518000Y-127869142D01*
X138589428Y-128154857D01*
X138660857Y-128297714D01*
X138732285Y-128369142D01*
X138875142Y-128440571D01*
X139018000Y-128440571D01*
X139160857Y-128369142D01*
X139232285Y-128297714D01*
X139303714Y-128154857D01*
X139375142Y-127869142D01*
X139375142Y-127512000D01*
X139303714Y-127226285D01*
X139232285Y-127083428D01*
X139160857Y-127012000D01*
X139018000Y-126940571D01*
X137946571Y-127083428D02*
X137875142Y-127012000D01*
X137732285Y-126940571D01*
X137375142Y-126940571D01*
X137232285Y-127012000D01*
X137160857Y-127083428D01*
X137089428Y-127226285D01*
X137089428Y-127369142D01*
X137160857Y-127583428D01*
X138018000Y-128440571D01*
X137089428Y-128440571D01*
X136518000Y-127083428D02*
X136446571Y-127012000D01*
X136303714Y-126940571D01*
X135946571Y-126940571D01*
X135803714Y-127012000D01*
X135732285Y-127083428D01*
X135660857Y-127226285D01*
X135660857Y-127369142D01*
X135732285Y-127583428D01*
X136589428Y-128440571D01*
X135660857Y-128440571D01*
D11*
X174664666Y-104497142D02*
X174712285Y-104544761D01*
X174855142Y-104592380D01*
X174950380Y-104592380D01*
X175093238Y-104544761D01*
X175188476Y-104449523D01*
X175236095Y-104354285D01*
X175283714Y-104163809D01*
X175283714Y-104020952D01*
X175236095Y-103830476D01*
X175188476Y-103735238D01*
X175093238Y-103640000D01*
X174950380Y-103592380D01*
X174855142Y-103592380D01*
X174712285Y-103640000D01*
X174664666Y-103687619D01*
X174188476Y-104592380D02*
X173998000Y-104592380D01*
X173902761Y-104544761D01*
X173855142Y-104497142D01*
X173759904Y-104354285D01*
X173712285Y-104163809D01*
X173712285Y-103782857D01*
X173759904Y-103687619D01*
X173807523Y-103640000D01*
X173902761Y-103592380D01*
X174093238Y-103592380D01*
X174188476Y-103640000D01*
X174236095Y-103687619D01*
X174283714Y-103782857D01*
X174283714Y-104020952D01*
X174236095Y-104116190D01*
X174188476Y-104163809D01*
X174093238Y-104211428D01*
X173902761Y-104211428D01*
X173807523Y-104163809D01*
X173759904Y-104116190D01*
X173712285Y-104020952D01*
X123324857Y-129389142D02*
X123372476Y-129436761D01*
X123515333Y-129484380D01*
X123610571Y-129484380D01*
X123753428Y-129436761D01*
X123848666Y-129341523D01*
X123896285Y-129246285D01*
X123943904Y-129055809D01*
X123943904Y-128912952D01*
X123896285Y-128722476D01*
X123848666Y-128627238D01*
X123753428Y-128532000D01*
X123610571Y-128484380D01*
X123515333Y-128484380D01*
X123372476Y-128532000D01*
X123324857Y-128579619D01*
X122372476Y-129484380D02*
X122943904Y-129484380D01*
X122658190Y-129484380D02*
X122658190Y-128484380D01*
X122753428Y-128627238D01*
X122848666Y-128722476D01*
X122943904Y-128770095D01*
X121991523Y-128579619D02*
X121943904Y-128532000D01*
X121848666Y-128484380D01*
X121610571Y-128484380D01*
X121515333Y-128532000D01*
X121467714Y-128579619D01*
X121420095Y-128674857D01*
X121420095Y-128770095D01*
X121467714Y-128912952D01*
X122039142Y-129484380D01*
X121420095Y-129484380D01*
X161678857Y-109577142D02*
X161726476Y-109624761D01*
X161869333Y-109672380D01*
X161964571Y-109672380D01*
X162107428Y-109624761D01*
X162202666Y-109529523D01*
X162250285Y-109434285D01*
X162297904Y-109243809D01*
X162297904Y-109100952D01*
X162250285Y-108910476D01*
X162202666Y-108815238D01*
X162107428Y-108720000D01*
X161964571Y-108672380D01*
X161869333Y-108672380D01*
X161726476Y-108720000D01*
X161678857Y-108767619D01*
X160726476Y-109672380D02*
X161297904Y-109672380D01*
X161012190Y-109672380D02*
X161012190Y-108672380D01*
X161107428Y-108815238D01*
X161202666Y-108910476D01*
X161297904Y-108958095D01*
X160107428Y-108672380D02*
X160012190Y-108672380D01*
X159916952Y-108720000D01*
X159869333Y-108767619D01*
X159821714Y-108862857D01*
X159774095Y-109053333D01*
X159774095Y-109291428D01*
X159821714Y-109481904D01*
X159869333Y-109577142D01*
X159916952Y-109624761D01*
X160012190Y-109672380D01*
X160107428Y-109672380D01*
X160202666Y-109624761D01*
X160250285Y-109577142D01*
X160297904Y-109481904D01*
X160345523Y-109291428D01*
X160345523Y-109053333D01*
X160297904Y-108862857D01*
X160250285Y-108767619D01*
X160202666Y-108720000D01*
X160107428Y-108672380D01*
X113603066Y-111507542D02*
X113650685Y-111555161D01*
X113793542Y-111602780D01*
X113888780Y-111602780D01*
X114031638Y-111555161D01*
X114126876Y-111459923D01*
X114174495Y-111364685D01*
X114222114Y-111174209D01*
X114222114Y-111031352D01*
X114174495Y-110840876D01*
X114126876Y-110745638D01*
X114031638Y-110650400D01*
X113888780Y-110602780D01*
X113793542Y-110602780D01*
X113650685Y-110650400D01*
X113603066Y-110698019D01*
X113031638Y-111031352D02*
X113126876Y-110983733D01*
X113174495Y-110936114D01*
X113222114Y-110840876D01*
X113222114Y-110793257D01*
X113174495Y-110698019D01*
X113126876Y-110650400D01*
X113031638Y-110602780D01*
X112841161Y-110602780D01*
X112745923Y-110650400D01*
X112698304Y-110698019D01*
X112650685Y-110793257D01*
X112650685Y-110840876D01*
X112698304Y-110936114D01*
X112745923Y-110983733D01*
X112841161Y-111031352D01*
X113031638Y-111031352D01*
X113126876Y-111078971D01*
X113174495Y-111126590D01*
X113222114Y-111221828D01*
X113222114Y-111412304D01*
X113174495Y-111507542D01*
X113126876Y-111555161D01*
X113031638Y-111602780D01*
X112841161Y-111602780D01*
X112745923Y-111555161D01*
X112698304Y-111507542D01*
X112650685Y-111412304D01*
X112650685Y-111221828D01*
X112698304Y-111126590D01*
X112745923Y-111078971D01*
X112841161Y-111031352D01*
X130386057Y-118463542D02*
X130433676Y-118511161D01*
X130576533Y-118558780D01*
X130671771Y-118558780D01*
X130814628Y-118511161D01*
X130909866Y-118415923D01*
X130957485Y-118320685D01*
X131005104Y-118130209D01*
X131005104Y-117987352D01*
X130957485Y-117796876D01*
X130909866Y-117701638D01*
X130814628Y-117606400D01*
X130671771Y-117558780D01*
X130576533Y-117558780D01*
X130433676Y-117606400D01*
X130386057Y-117654019D01*
X129433676Y-118558780D02*
X130005104Y-118558780D01*
X129719390Y-118558780D02*
X129719390Y-117558780D01*
X129814628Y-117701638D01*
X129909866Y-117796876D01*
X130005104Y-117844495D01*
X128481295Y-118558780D02*
X129052723Y-118558780D01*
X128767009Y-118558780D02*
X128767009Y-117558780D01*
X128862247Y-117701638D01*
X128957485Y-117796876D01*
X129052723Y-117844495D01*
X129706666Y-99925142D02*
X129754285Y-99972761D01*
X129897142Y-100020380D01*
X129992380Y-100020380D01*
X130135238Y-99972761D01*
X130230476Y-99877523D01*
X130278095Y-99782285D01*
X130325714Y-99591809D01*
X130325714Y-99448952D01*
X130278095Y-99258476D01*
X130230476Y-99163238D01*
X130135238Y-99068000D01*
X129992380Y-99020380D01*
X129897142Y-99020380D01*
X129754285Y-99068000D01*
X129706666Y-99115619D01*
X129373333Y-99020380D02*
X128706666Y-99020380D01*
X129135238Y-100020380D01*
D12*
X174017000Y-106774348D02*
X174017000Y-107296852D01*
X175487000Y-106774348D02*
X175487000Y-107296852D01*
X119133252Y-128852600D02*
X118610748Y-128852600D01*
X119133252Y-127382600D02*
X118610748Y-127382600D01*
X160301000Y-111854348D02*
X160301000Y-112376852D01*
X161771000Y-111854348D02*
X161771000Y-112376852D01*
X116847252Y-110263000D02*
X116324748Y-110263000D01*
X116847252Y-111733000D02*
X116324748Y-111733000D01*
X130004452Y-120521400D02*
X129481948Y-120521400D01*
X130004452Y-119051400D02*
X129481948Y-119051400D01*
X128601800Y-102898752D02*
X128601800Y-102376248D01*
X130071800Y-102898752D02*
X130071800Y-102376248D01*
%LPC*%
D13*
X126441200Y-75488800D03*
D14*
X126441200Y-78028800D03*
D15*
X126136400Y-87792400D03*
X126136400Y-85252400D03*
X126136400Y-82712400D03*
D16*
X113792000Y-64008000D03*
D17*
X113792000Y-64008000D03*
D18*
X132232400Y-107188000D03*
D19*
X157232400Y-107188000D03*
D18*
X132076800Y-94843600D03*
D19*
X157076800Y-94843600D03*
D17*
X172974000Y-128524000D03*
D16*
X172974000Y-128524000D03*
D20*
X164119800Y-103337200D03*
D21*
X164119800Y-105877200D03*
X164119800Y-108417200D03*
X164119800Y-110957200D03*
X171739800Y-110957200D03*
X171739800Y-108417200D03*
X171739800Y-105877200D03*
X171739800Y-103337200D03*
D22*
X147828000Y-120396000D03*
D23*
X147828000Y-117896000D03*
D13*
X165912800Y-119786400D03*
D14*
X168452800Y-119786400D03*
X170992800Y-119786400D03*
D18*
X157026000Y-71018400D03*
D19*
X132026000Y-71018400D03*
D18*
X157026000Y-82550000D03*
D19*
X132026000Y-82550000D03*
D13*
X138156000Y-115341000D03*
D14*
X135616000Y-115341000D03*
D13*
X166141000Y-92222000D03*
D14*
X166141000Y-94762000D03*
D13*
X117043200Y-83515200D03*
D14*
X117043200Y-86055200D03*
D22*
X157886400Y-120003580D03*
D23*
X157886400Y-117503580D03*
D16*
X173228000Y-64262000D03*
D17*
X173228000Y-64262000D03*
D13*
X116992400Y-74422000D03*
D14*
X116992400Y-76962000D03*
D20*
X117703600Y-117449600D03*
D21*
X117703600Y-119989600D03*
X117703600Y-122529600D03*
X117703600Y-125069600D03*
X125323600Y-125069600D03*
X125323600Y-122529600D03*
X125323600Y-119989600D03*
X125323600Y-117449600D03*
D17*
X113284000Y-128524000D03*
D16*
X113284000Y-128524000D03*
D20*
X117790200Y-101051200D03*
D21*
X117790200Y-103591200D03*
X117790200Y-106131200D03*
X117790200Y-108671200D03*
X125410200Y-108671200D03*
X125410200Y-106131200D03*
X125410200Y-103591200D03*
X125410200Y-101051200D03*
D24*
X174752000Y-105998100D03*
X174752000Y-108073100D03*
D25*
X119909500Y-128117600D03*
X117834500Y-128117600D03*
D24*
X161036000Y-111078100D03*
X161036000Y-113153100D03*
D25*
X117623500Y-110998000D03*
X115548500Y-110998000D03*
X130780700Y-119786400D03*
X128705700Y-119786400D03*
D26*
X129336800Y-103675000D03*
X129336800Y-101600000D03*
M02*
