G04 #@! TF.GenerationSoftware,KiCad,Pcbnew,(6.0.9)*
G04 #@! TF.CreationDate,2022-12-01T15:56:23+01:00*
G04 #@! TF.ProjectId,Twin-T,5477696e-2d54-42e6-9b69-6361645f7063,rev?*
G04 #@! TF.SameCoordinates,Original*
G04 #@! TF.FileFunction,Copper,L1,Top*
G04 #@! TF.FilePolarity,Positive*
%FSLAX46Y46*%
G04 Gerber Fmt 4.6, Leading zero omitted, Abs format (unit mm)*
G04 Created by KiCad (PCBNEW (6.0.9)) date 2022-12-01 15:56:23*
%MOMM*%
%LPD*%
G01*
G04 APERTURE LIST*
G04 Aperture macros list*
%AMRoundRect*
0 Rectangle with rounded corners*
0 $1 Rounding radius*
0 $2 $3 $4 $5 $6 $7 $8 $9 X,Y pos of 4 corners*
0 Add a 4 corners polygon primitive as box body*
4,1,4,$2,$3,$4,$5,$6,$7,$8,$9,$2,$3,0*
0 Add four circle primitives for the rounded corners*
1,1,$1+$1,$2,$3*
1,1,$1+$1,$4,$5*
1,1,$1+$1,$6,$7*
1,1,$1+$1,$8,$9*
0 Add four rect primitives between the rounded corners*
20,1,$1+$1,$2,$3,$4,$5,0*
20,1,$1+$1,$4,$5,$6,$7,0*
20,1,$1+$1,$6,$7,$8,$9,0*
20,1,$1+$1,$8,$9,$2,$3,0*%
G04 Aperture macros list end*
G04 #@! TA.AperFunction,ComponentPad*
%ADD10R,1.700000X1.700000*%
G04 #@! TD*
G04 #@! TA.AperFunction,ComponentPad*
%ADD11O,1.700000X1.700000*%
G04 #@! TD*
G04 #@! TA.AperFunction,ComponentPad*
%ADD12C,1.440000*%
G04 #@! TD*
G04 #@! TA.AperFunction,SMDPad,CuDef*
%ADD13RoundRect,0.250000X0.450000X-0.350000X0.450000X0.350000X-0.450000X0.350000X-0.450000X-0.350000X0*%
G04 #@! TD*
G04 #@! TA.AperFunction,ConnectorPad*
%ADD14C,5.600000*%
G04 #@! TD*
G04 #@! TA.AperFunction,ComponentPad*
%ADD15C,3.600000*%
G04 #@! TD*
G04 #@! TA.AperFunction,SMDPad,CuDef*
%ADD16RoundRect,0.250000X0.350000X0.450000X-0.350000X0.450000X-0.350000X-0.450000X0.350000X-0.450000X0*%
G04 #@! TD*
G04 #@! TA.AperFunction,ComponentPad*
%ADD17R,2.400000X2.400000*%
G04 #@! TD*
G04 #@! TA.AperFunction,ComponentPad*
%ADD18O,2.400000X2.400000*%
G04 #@! TD*
G04 #@! TA.AperFunction,ComponentPad*
%ADD19R,2.400000X1.600000*%
G04 #@! TD*
G04 #@! TA.AperFunction,ComponentPad*
%ADD20O,2.400000X1.600000*%
G04 #@! TD*
G04 #@! TA.AperFunction,ComponentPad*
%ADD21R,1.600000X1.600000*%
G04 #@! TD*
G04 #@! TA.AperFunction,ComponentPad*
%ADD22C,1.600000*%
G04 #@! TD*
G04 #@! TA.AperFunction,SMDPad,CuDef*
%ADD23RoundRect,0.250000X-0.350000X-0.450000X0.350000X-0.450000X0.350000X0.450000X-0.350000X0.450000X0*%
G04 #@! TD*
G04 #@! TA.AperFunction,SMDPad,CuDef*
%ADD24RoundRect,0.250000X-0.450000X0.262500X-0.450000X-0.262500X0.450000X-0.262500X0.450000X0.262500X0*%
G04 #@! TD*
G04 #@! TA.AperFunction,ViaPad*
%ADD25C,0.800000*%
G04 #@! TD*
G04 #@! TA.AperFunction,Conductor*
%ADD26C,1.000000*%
G04 #@! TD*
G04 #@! TA.AperFunction,Conductor*
%ADD27C,0.250000*%
G04 #@! TD*
G04 APERTURE END LIST*
D10*
X126441200Y-75488800D03*
D11*
X126441200Y-78028800D03*
D12*
X126136400Y-87792400D03*
X126136400Y-85252400D03*
X126136400Y-82712400D03*
D13*
X121021600Y-76777600D03*
X121021600Y-74777600D03*
D14*
X113792000Y-64008000D03*
D15*
X113792000Y-64008000D03*
D16*
X127492000Y-94742000D03*
X125492000Y-94742000D03*
D17*
X132232400Y-107188000D03*
D18*
X157232400Y-107188000D03*
D13*
X161036000Y-78962000D03*
X161036000Y-76962000D03*
D17*
X132076800Y-94843600D03*
D18*
X157076800Y-94843600D03*
D13*
X160782000Y-94726000D03*
X160782000Y-92726000D03*
X128930400Y-114572800D03*
X128930400Y-112572800D03*
D14*
X172974000Y-128524000D03*
D15*
X172974000Y-128524000D03*
D19*
X164119800Y-103337200D03*
D20*
X164119800Y-105877200D03*
X164119800Y-108417200D03*
X164119800Y-110957200D03*
X171739800Y-110957200D03*
X171739800Y-108417200D03*
X171739800Y-105877200D03*
X171739800Y-103337200D03*
D21*
X147828000Y-120396000D03*
D22*
X147828000Y-117896000D03*
D23*
X125355600Y-71018400D03*
X127355600Y-71018400D03*
D10*
X165912800Y-119786400D03*
D11*
X168452800Y-119786400D03*
X170992800Y-119786400D03*
D13*
X130403600Y-125952000D03*
X130403600Y-123952000D03*
D17*
X157026000Y-71018400D03*
D18*
X132026000Y-71018400D03*
D17*
X157026000Y-82550000D03*
D18*
X132026000Y-82550000D03*
D10*
X138156000Y-115341000D03*
D11*
X135616000Y-115341000D03*
D23*
X120936000Y-71069200D03*
X122936000Y-71069200D03*
D13*
X113639600Y-108238800D03*
X113639600Y-106238800D03*
X160985200Y-84785200D03*
X160985200Y-82785200D03*
D24*
X130302000Y-119684800D03*
X130302000Y-121509800D03*
D10*
X166141000Y-92222000D03*
D11*
X166141000Y-94762000D03*
D10*
X117043200Y-83515200D03*
D11*
X117043200Y-86055200D03*
D21*
X157886400Y-120003580D03*
D22*
X157886400Y-117503580D03*
D13*
X128778000Y-109458000D03*
X128778000Y-107458000D03*
D15*
X173228000Y-64262000D03*
D14*
X173228000Y-64262000D03*
D10*
X116992400Y-74422000D03*
D11*
X116992400Y-76962000D03*
D19*
X117703600Y-117449600D03*
D20*
X117703600Y-119989600D03*
X117703600Y-122529600D03*
X117703600Y-125069600D03*
X125323600Y-125069600D03*
X125323600Y-122529600D03*
X125323600Y-119989600D03*
X125323600Y-117449600D03*
D15*
X113284000Y-128524000D03*
D14*
X113284000Y-128524000D03*
D19*
X117790200Y-101051200D03*
D20*
X117790200Y-103591200D03*
X117790200Y-106131200D03*
X117790200Y-108671200D03*
X125410200Y-108671200D03*
X125410200Y-106131200D03*
X125410200Y-103591200D03*
X125410200Y-101051200D03*
D25*
X157226000Y-64516000D03*
X175006000Y-69596000D03*
X149352000Y-84836000D03*
X140462000Y-105156000D03*
X111506000Y-120142000D03*
X175006000Y-79502000D03*
X162306000Y-64516000D03*
X111506000Y-99822000D03*
X111506000Y-94996000D03*
X149606000Y-110236000D03*
X149606000Y-105156000D03*
X124714000Y-114046000D03*
X111506000Y-74422000D03*
X111506000Y-69596000D03*
X175006000Y-84836000D03*
X144526000Y-125476000D03*
X137160000Y-64516000D03*
X175006000Y-115316000D03*
X167132000Y-64516000D03*
X111506000Y-79756000D03*
X139700000Y-125476000D03*
X131826000Y-64516000D03*
X111506000Y-89662000D03*
X175006000Y-110236000D03*
X126746000Y-64516000D03*
X175006000Y-89662000D03*
X147320000Y-64516000D03*
X142240000Y-64516000D03*
X154686000Y-125476000D03*
X149606000Y-97536000D03*
X134112000Y-125476000D03*
X175006000Y-120650000D03*
X159766000Y-125476000D03*
X175006000Y-74676000D03*
X111506000Y-110236000D03*
X139446000Y-97536000D03*
X111506000Y-84582000D03*
X139446000Y-84836000D03*
X119634000Y-114046000D03*
X175006000Y-94996000D03*
X111506000Y-115316000D03*
X165100000Y-125476000D03*
X132334000Y-114046000D03*
X149352000Y-79756000D03*
X149606000Y-125476000D03*
X175260000Y-100076000D03*
X149352000Y-73660000D03*
X111506000Y-105156000D03*
X139446000Y-92456000D03*
X121666000Y-64516000D03*
X137160000Y-110490000D03*
X152146000Y-64516000D03*
X139446000Y-79756000D03*
X149352000Y-68580000D03*
X139700000Y-68580000D03*
X139700000Y-73660000D03*
X149606000Y-92456000D03*
D26*
X168452800Y-122123200D02*
X165100000Y-125476000D01*
X168452800Y-119786400D02*
X168452800Y-122123200D01*
X168452800Y-118059200D02*
X168452800Y-119786400D01*
X171196000Y-115316000D02*
X175006000Y-115316000D01*
X168452800Y-118059200D02*
X171196000Y-115316000D01*
X167640000Y-116332000D02*
X165912800Y-118059200D01*
X169458800Y-105877200D02*
X167640000Y-107696000D01*
X171739800Y-105877200D02*
X169458800Y-105877200D01*
X165912800Y-118059200D02*
X165912800Y-119786400D01*
X167640000Y-107696000D02*
X167640000Y-116332000D01*
D27*
X131873600Y-71018400D02*
X127355600Y-71018400D01*
X127403200Y-75488800D02*
X126441200Y-75488800D01*
X131873600Y-71018400D02*
X127403200Y-75488800D01*
X132076800Y-94843600D02*
X132076800Y-107032400D01*
X120837200Y-76962000D02*
X121021600Y-76777600D01*
X132076800Y-107032400D02*
X132232400Y-107188000D01*
X116992400Y-76962000D02*
X120837200Y-76962000D01*
X132076800Y-94843600D02*
X127593600Y-94843600D01*
X127593600Y-94843600D02*
X127492000Y-94742000D01*
X160664400Y-94843600D02*
X157076800Y-94843600D01*
X158543200Y-105877200D02*
X164119800Y-105877200D01*
X160818000Y-94762000D02*
X160782000Y-94726000D01*
X160782000Y-94726000D02*
X160664400Y-94843600D01*
X166141000Y-94762000D02*
X160818000Y-94762000D01*
X157232400Y-107188000D02*
X158543200Y-105877200D01*
X157076800Y-107032400D02*
X157232400Y-107188000D01*
X157076800Y-94843600D02*
X157076800Y-107032400D01*
X131863600Y-82712400D02*
X132026000Y-82550000D01*
X118190200Y-106131200D02*
X117790200Y-106131200D01*
X121158000Y-103163400D02*
X118190200Y-106131200D01*
X113747200Y-106131200D02*
X117790200Y-106131200D01*
X123789600Y-82712400D02*
X121158000Y-85344000D01*
X121158000Y-85344000D02*
X121158000Y-103163400D01*
X132066800Y-82712400D02*
X132127600Y-82651600D01*
X126136400Y-82712400D02*
X131863600Y-82712400D01*
X126441200Y-78028800D02*
X126441200Y-82407600D01*
X113639600Y-106238800D02*
X113747200Y-106131200D01*
X126136400Y-82712400D02*
X123789600Y-82712400D01*
X126441200Y-82407600D02*
X126136400Y-82712400D01*
X120666000Y-74422000D02*
X121021600Y-74777600D01*
X121021600Y-71154800D02*
X120936000Y-71069200D01*
X116992400Y-74422000D02*
X120666000Y-74422000D01*
X121021600Y-74777600D02*
X121021600Y-71154800D01*
X166141000Y-92222000D02*
X161286000Y-92222000D01*
X160985200Y-84785200D02*
X166141000Y-89941000D01*
X166141000Y-89941000D02*
X166141000Y-92222000D01*
X161286000Y-92222000D02*
X160782000Y-92726000D01*
X127451200Y-106131200D02*
X125410200Y-106131200D01*
X128778000Y-107458000D02*
X127451200Y-106131200D01*
X135616000Y-115341000D02*
X131272200Y-119684800D01*
X127457200Y-122529600D02*
X125323600Y-122529600D01*
X131272200Y-119684800D02*
X130302000Y-119684800D01*
X130302000Y-119684800D02*
X127457200Y-122529600D01*
X122936000Y-71069200D02*
X125304800Y-71069200D01*
X125304800Y-71069200D02*
X125355600Y-71018400D01*
X128778000Y-112420400D02*
X128930400Y-112572800D01*
X128778000Y-109458000D02*
X128778000Y-112420400D01*
X164119800Y-108417200D02*
X159806800Y-108417200D01*
X159806800Y-108417200D02*
X155651200Y-112572800D01*
X155651200Y-112572800D02*
X128930400Y-112572800D01*
X157026000Y-71018400D02*
X157026000Y-76908000D01*
X157026000Y-76908000D02*
X157026000Y-82550000D01*
X161036000Y-76962000D02*
X157080000Y-76962000D01*
X157080000Y-76962000D02*
X157026000Y-76908000D01*
X124206000Y-128016000D02*
X126339600Y-128016000D01*
X121920000Y-122936000D02*
X121920000Y-125730000D01*
X126339600Y-128016000D02*
X130403600Y-123952000D01*
X130302000Y-121509800D02*
X130302000Y-123850400D01*
X121920000Y-125730000D02*
X124206000Y-128016000D01*
X130302000Y-123850400D02*
X130403600Y-123952000D01*
X118973600Y-119989600D02*
X121920000Y-122936000D01*
X117703600Y-119989600D02*
X118973600Y-119989600D01*
X161036000Y-78962000D02*
X161036000Y-82734400D01*
X126136400Y-85252400D02*
X126075600Y-85252400D01*
X126075600Y-85252400D02*
X126136400Y-85313200D01*
X126136400Y-87792400D02*
X126136400Y-94097600D01*
X126136400Y-94097600D02*
X125492000Y-94742000D01*
X126136400Y-85313200D02*
X126136400Y-87792400D01*
G04 #@! TA.AperFunction,Conductor*
G36*
X176979621Y-59964502D02*
G01*
X177026114Y-60018158D01*
X177037500Y-60070500D01*
X177037500Y-132461500D01*
X177017498Y-132529621D01*
X176963842Y-132576114D01*
X176911500Y-132587500D01*
X109600500Y-132587500D01*
X109532379Y-132567498D01*
X109485886Y-132513842D01*
X109474500Y-132461500D01*
X109474500Y-131040381D01*
X111133160Y-131040381D01*
X111133237Y-131041470D01*
X111135698Y-131045206D01*
X111409632Y-131255404D01*
X111415262Y-131259259D01*
X111715591Y-131441862D01*
X111721593Y-131445080D01*
X112039897Y-131594184D01*
X112046202Y-131596732D01*
X112378743Y-131710587D01*
X112385313Y-131712446D01*
X112728183Y-131789714D01*
X112734912Y-131790853D01*
X113084143Y-131830643D01*
X113090933Y-131831046D01*
X113442419Y-131832886D01*
X113449220Y-131832554D01*
X113798853Y-131796423D01*
X113805581Y-131795357D01*
X114149274Y-131721676D01*
X114155822Y-131719897D01*
X114489549Y-131609527D01*
X114495891Y-131607041D01*
X114815718Y-131461288D01*
X114821777Y-131458121D01*
X115123995Y-131278676D01*
X115129659Y-131274884D01*
X115410732Y-131063849D01*
X115415958Y-131059464D01*
X115425613Y-131050428D01*
X115431540Y-131040381D01*
X170823160Y-131040381D01*
X170823237Y-131041470D01*
X170825698Y-131045206D01*
X171099632Y-131255404D01*
X171105262Y-131259259D01*
X171405591Y-131441862D01*
X171411593Y-131445080D01*
X171729897Y-131594184D01*
X171736202Y-131596732D01*
X172068743Y-131710587D01*
X172075313Y-131712446D01*
X172418183Y-131789714D01*
X172424912Y-131790853D01*
X172774143Y-131830643D01*
X172780933Y-131831046D01*
X173132419Y-131832886D01*
X173139220Y-131832554D01*
X173488853Y-131796423D01*
X173495581Y-131795357D01*
X173839274Y-131721676D01*
X173845822Y-131719897D01*
X174179549Y-131609527D01*
X174185891Y-131607041D01*
X174505718Y-131461288D01*
X174511777Y-131458121D01*
X174813995Y-131278676D01*
X174819659Y-131274884D01*
X175100732Y-131063849D01*
X175105958Y-131059464D01*
X175115613Y-131050428D01*
X175123682Y-131036750D01*
X175123654Y-131036024D01*
X175118512Y-131027723D01*
X172986810Y-128896020D01*
X172972869Y-128888408D01*
X172971034Y-128888539D01*
X172964420Y-128892790D01*
X170830774Y-131026437D01*
X170823160Y-131040381D01*
X115431540Y-131040381D01*
X115433682Y-131036750D01*
X115433654Y-131036024D01*
X115428512Y-131027723D01*
X113296810Y-128896020D01*
X113282869Y-128888408D01*
X113281034Y-128888539D01*
X113274420Y-128892790D01*
X111140774Y-131026437D01*
X111133160Y-131040381D01*
X109474500Y-131040381D01*
X109474500Y-128515832D01*
X109971333Y-128515832D01*
X109989117Y-128866893D01*
X109989827Y-128873649D01*
X110045420Y-129220723D01*
X110046859Y-129227378D01*
X110139608Y-129566410D01*
X110141757Y-129572871D01*
X110270581Y-129899912D01*
X110273412Y-129906095D01*
X110436803Y-130217310D01*
X110440286Y-130223152D01*
X110636330Y-130514896D01*
X110640433Y-130520340D01*
X110760425Y-130662836D01*
X110773164Y-130671279D01*
X110783608Y-130665181D01*
X112911980Y-128536810D01*
X112918357Y-128525131D01*
X113648408Y-128525131D01*
X113648539Y-128526966D01*
X113652790Y-128533580D01*
X115783009Y-130663798D01*
X115796605Y-130671223D01*
X115806218Y-130664522D01*
X115906518Y-130547912D01*
X115910676Y-130542514D01*
X116109762Y-130252840D01*
X116113310Y-130247029D01*
X116279942Y-129937559D01*
X116282849Y-129931381D01*
X116415090Y-129605713D01*
X116417304Y-129599283D01*
X116513598Y-129261237D01*
X116515105Y-129254607D01*
X116574332Y-128908118D01*
X116575112Y-128901378D01*
X116596668Y-128548925D01*
X116596784Y-128545323D01*
X116596853Y-128525819D01*
X116596761Y-128522194D01*
X116577666Y-128169615D01*
X116576931Y-128162849D01*
X116520130Y-127815985D01*
X116518663Y-127809313D01*
X116424736Y-127470627D01*
X116422562Y-127464163D01*
X116292598Y-127137578D01*
X116289742Y-127131398D01*
X116125269Y-126820763D01*
X116121764Y-126814929D01*
X116041118Y-126695815D01*
X116019490Y-126628193D01*
X116037855Y-126559613D01*
X116090381Y-126511848D01*
X116148253Y-126499206D01*
X121871053Y-126626379D01*
X121938713Y-126647890D01*
X121957349Y-126663253D01*
X123702343Y-128408247D01*
X123709887Y-128416537D01*
X123714000Y-128423018D01*
X123719777Y-128428443D01*
X123763667Y-128469658D01*
X123766509Y-128472413D01*
X123786230Y-128492134D01*
X123789425Y-128494612D01*
X123798447Y-128502318D01*
X123830679Y-128532586D01*
X123837628Y-128536406D01*
X123848432Y-128542346D01*
X123864956Y-128553199D01*
X123880959Y-128565613D01*
X123921543Y-128583176D01*
X123932173Y-128588383D01*
X123970940Y-128609695D01*
X123978617Y-128611666D01*
X123978622Y-128611668D01*
X123990558Y-128614732D01*
X124009266Y-128621137D01*
X124027855Y-128629181D01*
X124035683Y-128630421D01*
X124035690Y-128630423D01*
X124071524Y-128636099D01*
X124083144Y-128638505D01*
X124114959Y-128646673D01*
X124125970Y-128649500D01*
X124146224Y-128649500D01*
X124165934Y-128651051D01*
X124185943Y-128654220D01*
X124193835Y-128653474D01*
X124212580Y-128651702D01*
X124229962Y-128650059D01*
X124241819Y-128649500D01*
X126260833Y-128649500D01*
X126272016Y-128650027D01*
X126279509Y-128651702D01*
X126287435Y-128651453D01*
X126287436Y-128651453D01*
X126347586Y-128649562D01*
X126351545Y-128649500D01*
X126379456Y-128649500D01*
X126383391Y-128649003D01*
X126383456Y-128648995D01*
X126395293Y-128648062D01*
X126427551Y-128647048D01*
X126431570Y-128646922D01*
X126439489Y-128646673D01*
X126458943Y-128641021D01*
X126478300Y-128637013D01*
X126490530Y-128635468D01*
X126490531Y-128635468D01*
X126498397Y-128634474D01*
X126505768Y-128631555D01*
X126505770Y-128631555D01*
X126539512Y-128618196D01*
X126550742Y-128614351D01*
X126585583Y-128604229D01*
X126585584Y-128604229D01*
X126593193Y-128602018D01*
X126600012Y-128597985D01*
X126600017Y-128597983D01*
X126610628Y-128591707D01*
X126628376Y-128583012D01*
X126647217Y-128575552D01*
X126667587Y-128560753D01*
X126682987Y-128549564D01*
X126692907Y-128543048D01*
X126724135Y-128524580D01*
X126724138Y-128524578D01*
X126730962Y-128520542D01*
X126735672Y-128515832D01*
X169661333Y-128515832D01*
X169679117Y-128866893D01*
X169679827Y-128873649D01*
X169735420Y-129220723D01*
X169736859Y-129227378D01*
X169829608Y-129566410D01*
X169831757Y-129572871D01*
X169960581Y-129899912D01*
X169963412Y-129906095D01*
X170126803Y-130217310D01*
X170130286Y-130223152D01*
X170326330Y-130514896D01*
X170330433Y-130520340D01*
X170450425Y-130662836D01*
X170463164Y-130671279D01*
X170473608Y-130665181D01*
X172601980Y-128536810D01*
X172608357Y-128525131D01*
X173338408Y-128525131D01*
X173338539Y-128526966D01*
X173342790Y-128533580D01*
X175473009Y-130663798D01*
X175486605Y-130671223D01*
X175496218Y-130664522D01*
X175596518Y-130547912D01*
X175600676Y-130542514D01*
X175799762Y-130252840D01*
X175803310Y-130247029D01*
X175969942Y-129937559D01*
X175972849Y-129931381D01*
X176105090Y-129605713D01*
X176107304Y-129599283D01*
X176203598Y-129261237D01*
X176205105Y-129254607D01*
X176264332Y-128908118D01*
X176265112Y-128901378D01*
X176286668Y-128548925D01*
X176286784Y-128545323D01*
X176286853Y-128525819D01*
X176286761Y-128522194D01*
X176267666Y-128169615D01*
X176266931Y-128162849D01*
X176210130Y-127815985D01*
X176208663Y-127809313D01*
X176114736Y-127470627D01*
X176112562Y-127464163D01*
X175982598Y-127137578D01*
X175979742Y-127131398D01*
X175815269Y-126820763D01*
X175811769Y-126814937D01*
X175614697Y-126523862D01*
X175610590Y-126518453D01*
X175497565Y-126385179D01*
X175484740Y-126376743D01*
X175474416Y-126382795D01*
X173346020Y-128511190D01*
X173338408Y-128525131D01*
X172608357Y-128525131D01*
X172609592Y-128522869D01*
X172609461Y-128521034D01*
X172605210Y-128514420D01*
X170474992Y-126384203D01*
X170461455Y-126376811D01*
X170451753Y-126383599D01*
X170344430Y-126509257D01*
X170340296Y-126514664D01*
X170142215Y-126805041D01*
X170138697Y-126810851D01*
X169973134Y-127120922D01*
X169970259Y-127127087D01*
X169839155Y-127453218D01*
X169836962Y-127459658D01*
X169741846Y-127798044D01*
X169740363Y-127804679D01*
X169682350Y-128151354D01*
X169681591Y-128158126D01*
X169661357Y-128509037D01*
X169661333Y-128515832D01*
X126735672Y-128515832D01*
X126745283Y-128506221D01*
X126760317Y-128493380D01*
X126762032Y-128492134D01*
X126776707Y-128481472D01*
X126804898Y-128447395D01*
X126812888Y-128438616D01*
X128980887Y-126270617D01*
X129043198Y-126236592D01*
X129114013Y-126241657D01*
X129170849Y-126284204D01*
X129195516Y-126352371D01*
X129195601Y-126352362D01*
X129195637Y-126352705D01*
X129195812Y-126353190D01*
X129195937Y-126355600D01*
X129205857Y-126451206D01*
X129208749Y-126464600D01*
X129260188Y-126618784D01*
X129266361Y-126631962D01*
X129351663Y-126769807D01*
X129360699Y-126781208D01*
X129475429Y-126895739D01*
X129486840Y-126904751D01*
X129624843Y-126989816D01*
X129638024Y-126995963D01*
X129792310Y-127047138D01*
X129805686Y-127050005D01*
X129900038Y-127059672D01*
X129906454Y-127060000D01*
X130131485Y-127060000D01*
X130146724Y-127055525D01*
X130147929Y-127054135D01*
X130149600Y-127046452D01*
X130149600Y-127041884D01*
X130657600Y-127041884D01*
X130662075Y-127057123D01*
X130663465Y-127058328D01*
X130671148Y-127059999D01*
X130900695Y-127059999D01*
X130907214Y-127059662D01*
X131002806Y-127049743D01*
X131016200Y-127046851D01*
X131170384Y-126995412D01*
X131183562Y-126989239D01*
X131321407Y-126903937D01*
X131332808Y-126894901D01*
X131447339Y-126780171D01*
X131456351Y-126768760D01*
X131541416Y-126630757D01*
X131547563Y-126617576D01*
X131598738Y-126463290D01*
X131601605Y-126449914D01*
X131611272Y-126355562D01*
X131611600Y-126349146D01*
X131611600Y-126224115D01*
X131607125Y-126208876D01*
X131605735Y-126207671D01*
X131598052Y-126206000D01*
X130675715Y-126206000D01*
X130660476Y-126210475D01*
X130659271Y-126211865D01*
X130657600Y-126219548D01*
X130657600Y-127041884D01*
X130149600Y-127041884D01*
X130149600Y-126010862D01*
X170823950Y-126010862D01*
X170823986Y-126011704D01*
X170829037Y-126019826D01*
X172191710Y-127382500D01*
X172961190Y-128151980D01*
X172975131Y-128159592D01*
X172976966Y-128159461D01*
X172983580Y-128155210D01*
X173756290Y-127382500D01*
X175116798Y-126021991D01*
X175124412Y-126008047D01*
X175124344Y-126007090D01*
X175119834Y-126000271D01*
X175118418Y-125999065D01*
X174838813Y-125786064D01*
X174833187Y-125782240D01*
X174532214Y-125600681D01*
X174526202Y-125597484D01*
X174207370Y-125449487D01*
X174201070Y-125446967D01*
X173868129Y-125334273D01*
X173861551Y-125332437D01*
X173518417Y-125256367D01*
X173511678Y-125255251D01*
X173162310Y-125216680D01*
X173155529Y-125216301D01*
X172804015Y-125215687D01*
X172797242Y-125216042D01*
X172447720Y-125253395D01*
X172441010Y-125254482D01*
X172097586Y-125329361D01*
X172091011Y-125331172D01*
X171757683Y-125442702D01*
X171751361Y-125445205D01*
X171432034Y-125592079D01*
X171425991Y-125595265D01*
X171124401Y-125775763D01*
X171118755Y-125779571D01*
X170838408Y-125991596D01*
X170833211Y-125995987D01*
X170831972Y-125997155D01*
X170823950Y-126010862D01*
X130149600Y-126010862D01*
X130149600Y-125824000D01*
X130169602Y-125755879D01*
X130223258Y-125709386D01*
X130275600Y-125698000D01*
X131593484Y-125698000D01*
X131608723Y-125693525D01*
X131609928Y-125692135D01*
X131611599Y-125684452D01*
X131611599Y-125554905D01*
X131611262Y-125548386D01*
X131601343Y-125452794D01*
X131598451Y-125439400D01*
X131547012Y-125285216D01*
X131540839Y-125272038D01*
X131455537Y-125134193D01*
X131446501Y-125122792D01*
X131365138Y-125041570D01*
X131331059Y-124979287D01*
X131336062Y-124908467D01*
X131364983Y-124863380D01*
X131447730Y-124780488D01*
X131447734Y-124780483D01*
X131452905Y-124775303D01*
X131545715Y-124624738D01*
X131601397Y-124456861D01*
X131612100Y-124352400D01*
X131612100Y-123551600D01*
X131601126Y-123445834D01*
X131545150Y-123278054D01*
X131452078Y-123127652D01*
X131326903Y-123002695D01*
X131304631Y-122988966D01*
X131182568Y-122913725D01*
X131182566Y-122913724D01*
X131176338Y-122909885D01*
X131071197Y-122875011D01*
X131021833Y-122858638D01*
X130963473Y-122818207D01*
X130936236Y-122752643D01*
X130935500Y-122739045D01*
X130935500Y-122601497D01*
X130955502Y-122533376D01*
X131009158Y-122486883D01*
X131021623Y-122481974D01*
X131069002Y-122466167D01*
X131069004Y-122466166D01*
X131075946Y-122463850D01*
X131226348Y-122370778D01*
X131351305Y-122245603D01*
X131444115Y-122095038D01*
X131472603Y-122009149D01*
X131497632Y-121933689D01*
X131497632Y-121933687D01*
X131499797Y-121927161D01*
X131510500Y-121822700D01*
X131510500Y-121244134D01*
X146519500Y-121244134D01*
X146526255Y-121306316D01*
X146577385Y-121442705D01*
X146664739Y-121559261D01*
X146781295Y-121646615D01*
X146917684Y-121697745D01*
X146979866Y-121704500D01*
X148676134Y-121704500D01*
X148738316Y-121697745D01*
X148874705Y-121646615D01*
X148991261Y-121559261D01*
X149078615Y-121442705D01*
X149129745Y-121306316D01*
X149136500Y-121244134D01*
X149136500Y-120848249D01*
X156578401Y-120848249D01*
X156578771Y-120855070D01*
X156584295Y-120905932D01*
X156587921Y-120921184D01*
X156633076Y-121041634D01*
X156641614Y-121057229D01*
X156718115Y-121159304D01*
X156730676Y-121171865D01*
X156832751Y-121248366D01*
X156848346Y-121256904D01*
X156968794Y-121302058D01*
X156984049Y-121305685D01*
X157034914Y-121311211D01*
X157041728Y-121311580D01*
X157614285Y-121311580D01*
X157629524Y-121307105D01*
X157630729Y-121305715D01*
X157632400Y-121298032D01*
X157632400Y-121293464D01*
X158140400Y-121293464D01*
X158144875Y-121308703D01*
X158146265Y-121309908D01*
X158153948Y-121311579D01*
X158731069Y-121311579D01*
X158737890Y-121311209D01*
X158788752Y-121305685D01*
X158804004Y-121302059D01*
X158924454Y-121256904D01*
X158940049Y-121248366D01*
X159042124Y-121171865D01*
X159054685Y-121159304D01*
X159131186Y-121057229D01*
X159139724Y-121041634D01*
X159184878Y-120921186D01*
X159188505Y-120905931D01*
X159194031Y-120855066D01*
X159194400Y-120848252D01*
X159194400Y-120275695D01*
X159189925Y-120260456D01*
X159188535Y-120259251D01*
X159180852Y-120257580D01*
X158158515Y-120257580D01*
X158143276Y-120262055D01*
X158142071Y-120263445D01*
X158140400Y-120271128D01*
X158140400Y-121293464D01*
X157632400Y-121293464D01*
X157632400Y-120275695D01*
X157627925Y-120260456D01*
X157626535Y-120259251D01*
X157618852Y-120257580D01*
X156596516Y-120257580D01*
X156581277Y-120262055D01*
X156580072Y-120263445D01*
X156578401Y-120271128D01*
X156578401Y-120848249D01*
X149136500Y-120848249D01*
X149136500Y-119547866D01*
X149129745Y-119485684D01*
X149078615Y-119349295D01*
X148991261Y-119232739D01*
X148874705Y-119145385D01*
X148738316Y-119094255D01*
X148694748Y-119089522D01*
X148679514Y-119087867D01*
X148679511Y-119087867D01*
X148676134Y-119087500D01*
X148672815Y-119087500D01*
X148605890Y-119063847D01*
X148570196Y-119017844D01*
X148568266Y-119018859D01*
X148562558Y-119008000D01*
X148562368Y-119007755D01*
X148562347Y-119007597D01*
X148542356Y-118969566D01*
X147840812Y-118268022D01*
X147826868Y-118260408D01*
X147825035Y-118260539D01*
X147818420Y-118264790D01*
X147112923Y-118970287D01*
X147090129Y-119012029D01*
X147087953Y-119022029D01*
X147037747Y-119072227D01*
X146984186Y-119087451D01*
X146983281Y-119087500D01*
X146979866Y-119087500D01*
X146976470Y-119087869D01*
X146976468Y-119087869D01*
X146964121Y-119089210D01*
X146917684Y-119094255D01*
X146781295Y-119145385D01*
X146664739Y-119232739D01*
X146577385Y-119349295D01*
X146526255Y-119485684D01*
X146519500Y-119547866D01*
X146519500Y-121244134D01*
X131510500Y-121244134D01*
X131510500Y-121196900D01*
X131510163Y-121193650D01*
X131500238Y-121097992D01*
X131500237Y-121097988D01*
X131499526Y-121091134D01*
X131488215Y-121057229D01*
X131445868Y-120930302D01*
X131443550Y-120923354D01*
X131350478Y-120772952D01*
X131263891Y-120686516D01*
X131229812Y-120624234D01*
X131234815Y-120553414D01*
X131263736Y-120508325D01*
X131346133Y-120425784D01*
X131351305Y-120420603D01*
X131399288Y-120342761D01*
X131452060Y-120295268D01*
X131460163Y-120291726D01*
X131464016Y-120290201D01*
X131472116Y-120286994D01*
X131483342Y-120283151D01*
X131518183Y-120273029D01*
X131518184Y-120273029D01*
X131525793Y-120270818D01*
X131532612Y-120266785D01*
X131532617Y-120266783D01*
X131543228Y-120260507D01*
X131560976Y-120251812D01*
X131579817Y-120244352D01*
X131615587Y-120218364D01*
X131625507Y-120211848D01*
X131656735Y-120193380D01*
X131656738Y-120193378D01*
X131663562Y-120189342D01*
X131677883Y-120175021D01*
X131692917Y-120162180D01*
X131702894Y-120154931D01*
X131709307Y-120150272D01*
X131737498Y-120116195D01*
X131745488Y-120107416D01*
X133951430Y-117901475D01*
X146515483Y-117901475D01*
X146534472Y-118118519D01*
X146536375Y-118129312D01*
X146592764Y-118339761D01*
X146596510Y-118350053D01*
X146688586Y-118547511D01*
X146694069Y-118557006D01*
X146730509Y-118609048D01*
X146740988Y-118617424D01*
X146754434Y-118610356D01*
X147455978Y-117908812D01*
X147462356Y-117897132D01*
X148192408Y-117897132D01*
X148192539Y-117898965D01*
X148196790Y-117905580D01*
X148902287Y-118611077D01*
X148914062Y-118617507D01*
X148926077Y-118608211D01*
X148961931Y-118557006D01*
X148967414Y-118547511D01*
X149059490Y-118350053D01*
X149063236Y-118339761D01*
X149119625Y-118129312D01*
X149121528Y-118118519D01*
X149140517Y-117901475D01*
X149140517Y-117890525D01*
X149121528Y-117673481D01*
X149119625Y-117662688D01*
X149076993Y-117503580D01*
X156572902Y-117503580D01*
X156592857Y-117731667D01*
X156594281Y-117736980D01*
X156594281Y-117736982D01*
X156637194Y-117897132D01*
X156652116Y-117952823D01*
X156654439Y-117957804D01*
X156654439Y-117957805D01*
X156746551Y-118155342D01*
X156746554Y-118155347D01*
X156748877Y-118160329D01*
X156752034Y-118164837D01*
X156875695Y-118341443D01*
X156880202Y-118347880D01*
X157026322Y-118494000D01*
X157060348Y-118556312D01*
X157055283Y-118627127D01*
X157012736Y-118683963D01*
X156975794Y-118701263D01*
X156976193Y-118702328D01*
X156848346Y-118750256D01*
X156832751Y-118758794D01*
X156730676Y-118835295D01*
X156718115Y-118847856D01*
X156641614Y-118949931D01*
X156633076Y-118965526D01*
X156587922Y-119085974D01*
X156584295Y-119101229D01*
X156578769Y-119152094D01*
X156578400Y-119158908D01*
X156578400Y-119731465D01*
X156582875Y-119746704D01*
X156584265Y-119747909D01*
X156591948Y-119749580D01*
X159176284Y-119749580D01*
X159191523Y-119745105D01*
X159192728Y-119743715D01*
X159194399Y-119736032D01*
X159194399Y-119158911D01*
X159194029Y-119152090D01*
X159188505Y-119101228D01*
X159184879Y-119085976D01*
X159139724Y-118965526D01*
X159131186Y-118949931D01*
X159054685Y-118847856D01*
X159042124Y-118835295D01*
X158940049Y-118758794D01*
X158924454Y-118750256D01*
X158796607Y-118702328D01*
X158797304Y-118700468D01*
X158744772Y-118670449D01*
X158711958Y-118607490D01*
X158718392Y-118536786D01*
X158746479Y-118493999D01*
X158892598Y-118347880D01*
X158897106Y-118341443D01*
X159020766Y-118164837D01*
X159023923Y-118160329D01*
X159026246Y-118155347D01*
X159026249Y-118155342D01*
X159118361Y-117957805D01*
X159118361Y-117957804D01*
X159120684Y-117952823D01*
X159135607Y-117897132D01*
X159178519Y-117736982D01*
X159178519Y-117736980D01*
X159179943Y-117731667D01*
X159199898Y-117503580D01*
X159179943Y-117275493D01*
X159178519Y-117270178D01*
X159122107Y-117059647D01*
X159122106Y-117059645D01*
X159120684Y-117054337D01*
X159103544Y-117017579D01*
X159026249Y-116851818D01*
X159026246Y-116851813D01*
X159023923Y-116846831D01*
X158922579Y-116702097D01*
X158895757Y-116663791D01*
X158895755Y-116663788D01*
X158892598Y-116659280D01*
X158730700Y-116497382D01*
X158726192Y-116494225D01*
X158726189Y-116494223D01*
X158633465Y-116429297D01*
X158543149Y-116366057D01*
X158538167Y-116363734D01*
X158538162Y-116363731D01*
X158340625Y-116271619D01*
X158340624Y-116271619D01*
X158335643Y-116269296D01*
X158330335Y-116267874D01*
X158330333Y-116267873D01*
X158119802Y-116211461D01*
X158119800Y-116211461D01*
X158114487Y-116210037D01*
X157886400Y-116190082D01*
X157658313Y-116210037D01*
X157653000Y-116211461D01*
X157652998Y-116211461D01*
X157442467Y-116267873D01*
X157442465Y-116267874D01*
X157437157Y-116269296D01*
X157432176Y-116271619D01*
X157432175Y-116271619D01*
X157234638Y-116363731D01*
X157234633Y-116363734D01*
X157229651Y-116366057D01*
X157139335Y-116429297D01*
X157046611Y-116494223D01*
X157046608Y-116494225D01*
X157042100Y-116497382D01*
X156880202Y-116659280D01*
X156877045Y-116663788D01*
X156877043Y-116663791D01*
X156850221Y-116702097D01*
X156748877Y-116846831D01*
X156746554Y-116851813D01*
X156746551Y-116851818D01*
X156669256Y-117017579D01*
X156652116Y-117054337D01*
X156650694Y-117059645D01*
X156650693Y-117059647D01*
X156594281Y-117270178D01*
X156592857Y-117275493D01*
X156572902Y-117503580D01*
X149076993Y-117503580D01*
X149063236Y-117452239D01*
X149059490Y-117441947D01*
X148967414Y-117244489D01*
X148961931Y-117234994D01*
X148925491Y-117182952D01*
X148915012Y-117174576D01*
X148901566Y-117181644D01*
X148200022Y-117883188D01*
X148192408Y-117897132D01*
X147462356Y-117897132D01*
X147463592Y-117894868D01*
X147463461Y-117893035D01*
X147459210Y-117886420D01*
X146753713Y-117180923D01*
X146741938Y-117174493D01*
X146729923Y-117183789D01*
X146694069Y-117234994D01*
X146688586Y-117244489D01*
X146596510Y-117441947D01*
X146592764Y-117452239D01*
X146536375Y-117662688D01*
X146534472Y-117673481D01*
X146515483Y-117890525D01*
X146515483Y-117901475D01*
X133951430Y-117901475D01*
X135043917Y-116808988D01*
X147106576Y-116808988D01*
X147113644Y-116822434D01*
X147815188Y-117523978D01*
X147829132Y-117531592D01*
X147830965Y-117531461D01*
X147837580Y-117527210D01*
X148543077Y-116821713D01*
X148549507Y-116809938D01*
X148540211Y-116797923D01*
X148489006Y-116762069D01*
X148479511Y-116756586D01*
X148282053Y-116664510D01*
X148271761Y-116660764D01*
X148061312Y-116604375D01*
X148050519Y-116602472D01*
X147833475Y-116583483D01*
X147822525Y-116583483D01*
X147605481Y-116602472D01*
X147594688Y-116604375D01*
X147384239Y-116660764D01*
X147373947Y-116664510D01*
X147176489Y-116756586D01*
X147166994Y-116762069D01*
X147114952Y-116798509D01*
X147106576Y-116808988D01*
X135043917Y-116808988D01*
X135160550Y-116692355D01*
X135222862Y-116658329D01*
X135274762Y-116657979D01*
X135454597Y-116694567D01*
X135459772Y-116694757D01*
X135459774Y-116694757D01*
X135672673Y-116702564D01*
X135672677Y-116702564D01*
X135677837Y-116702753D01*
X135682957Y-116702097D01*
X135682959Y-116702097D01*
X135894288Y-116675025D01*
X135894289Y-116675025D01*
X135899416Y-116674368D01*
X135904366Y-116672883D01*
X136108429Y-116611661D01*
X136108434Y-116611659D01*
X136113384Y-116610174D01*
X136313994Y-116511896D01*
X136495860Y-116382173D01*
X136604091Y-116274319D01*
X136666462Y-116240404D01*
X136737268Y-116245592D01*
X136794030Y-116288238D01*
X136811012Y-116319341D01*
X136855385Y-116437705D01*
X136942739Y-116554261D01*
X137059295Y-116641615D01*
X137195684Y-116692745D01*
X137257866Y-116699500D01*
X139054134Y-116699500D01*
X139116316Y-116692745D01*
X139252705Y-116641615D01*
X139369261Y-116554261D01*
X139456615Y-116437705D01*
X139507745Y-116301316D01*
X139514500Y-116239134D01*
X139514500Y-114442866D01*
X139507745Y-114380684D01*
X139456615Y-114244295D01*
X139369261Y-114127739D01*
X139252705Y-114040385D01*
X139116316Y-113989255D01*
X139054134Y-113982500D01*
X137257866Y-113982500D01*
X137195684Y-113989255D01*
X137059295Y-114040385D01*
X136942739Y-114127739D01*
X136855385Y-114244295D01*
X136852233Y-114252703D01*
X136810919Y-114362907D01*
X136768277Y-114419671D01*
X136701716Y-114444371D01*
X136632367Y-114429163D01*
X136599743Y-114403476D01*
X136549151Y-114347875D01*
X136549142Y-114347866D01*
X136545670Y-114344051D01*
X136541619Y-114340852D01*
X136541615Y-114340848D01*
X136374414Y-114208800D01*
X136374410Y-114208798D01*
X136370359Y-114205598D01*
X136174789Y-114097638D01*
X136169920Y-114095914D01*
X136169916Y-114095912D01*
X135969087Y-114024795D01*
X135969083Y-114024794D01*
X135964212Y-114023069D01*
X135959119Y-114022162D01*
X135959116Y-114022161D01*
X135749373Y-113984800D01*
X135749367Y-113984799D01*
X135744284Y-113983894D01*
X135670452Y-113982992D01*
X135526081Y-113981228D01*
X135526079Y-113981228D01*
X135520911Y-113981165D01*
X135300091Y-114014955D01*
X135087756Y-114084357D01*
X134889607Y-114187507D01*
X134885474Y-114190610D01*
X134885471Y-114190612D01*
X134732785Y-114305252D01*
X134710965Y-114321635D01*
X134671525Y-114362907D01*
X134617280Y-114419671D01*
X134556629Y-114483138D01*
X134430743Y-114667680D01*
X134428564Y-114672375D01*
X134348474Y-114844915D01*
X134336688Y-114870305D01*
X134276989Y-115085570D01*
X134253251Y-115307695D01*
X134253548Y-115312848D01*
X134253548Y-115312851D01*
X134258629Y-115400971D01*
X134266110Y-115530715D01*
X134267247Y-115535761D01*
X134267248Y-115535767D01*
X134299453Y-115678668D01*
X134294917Y-115749520D01*
X134265631Y-115795464D01*
X131303647Y-118757448D01*
X131241335Y-118791474D01*
X131170520Y-118786409D01*
X131148436Y-118775613D01*
X131080968Y-118734025D01*
X131080966Y-118734024D01*
X131074738Y-118730185D01*
X130952664Y-118689695D01*
X130913389Y-118676668D01*
X130913387Y-118676668D01*
X130906861Y-118674503D01*
X130900025Y-118673803D01*
X130900022Y-118673802D01*
X130856969Y-118669391D01*
X130802400Y-118663800D01*
X129801600Y-118663800D01*
X129798354Y-118664137D01*
X129798350Y-118664137D01*
X129702692Y-118674062D01*
X129702688Y-118674063D01*
X129695834Y-118674774D01*
X129689298Y-118676955D01*
X129689296Y-118676955D01*
X129618820Y-118700468D01*
X129528054Y-118730750D01*
X129377652Y-118823822D01*
X129252695Y-118948997D01*
X129248855Y-118955227D01*
X129248854Y-118955228D01*
X129167093Y-119087869D01*
X129159885Y-119099562D01*
X129104203Y-119267439D01*
X129093500Y-119371900D01*
X129093500Y-119945206D01*
X129073498Y-120013327D01*
X129056595Y-120034301D01*
X127469095Y-121621800D01*
X127406783Y-121655826D01*
X127335967Y-121650761D01*
X127279132Y-121608214D01*
X127254321Y-121541694D01*
X127254000Y-121532705D01*
X127254000Y-115824000D01*
X115824000Y-116078000D01*
X115824000Y-126291021D01*
X115803998Y-126359142D01*
X115787095Y-126380116D01*
X113656020Y-128511190D01*
X113648408Y-128525131D01*
X112918357Y-128525131D01*
X112919592Y-128522869D01*
X112919461Y-128521034D01*
X112915210Y-128514420D01*
X110784992Y-126384203D01*
X110771455Y-126376811D01*
X110761753Y-126383599D01*
X110654430Y-126509257D01*
X110650296Y-126514664D01*
X110452215Y-126805041D01*
X110448697Y-126810851D01*
X110283134Y-127120922D01*
X110280259Y-127127087D01*
X110149155Y-127453218D01*
X110146962Y-127459658D01*
X110051846Y-127798044D01*
X110050363Y-127804679D01*
X109992350Y-128151354D01*
X109991591Y-128158126D01*
X109971357Y-128509037D01*
X109971333Y-128515832D01*
X109474500Y-128515832D01*
X109474500Y-126010862D01*
X111133950Y-126010862D01*
X111133986Y-126011704D01*
X111139037Y-126019826D01*
X113271190Y-128151980D01*
X113285131Y-128159592D01*
X113286966Y-128159461D01*
X113293580Y-128155210D01*
X115426798Y-126021991D01*
X115434412Y-126008047D01*
X115434344Y-126007089D01*
X115429836Y-126000272D01*
X115428418Y-125999065D01*
X115148813Y-125786064D01*
X115143187Y-125782240D01*
X114842214Y-125600681D01*
X114836202Y-125597484D01*
X114517370Y-125449487D01*
X114511070Y-125446967D01*
X114178129Y-125334273D01*
X114171551Y-125332437D01*
X113828417Y-125256367D01*
X113821678Y-125255251D01*
X113472310Y-125216680D01*
X113465529Y-125216301D01*
X113114015Y-125215687D01*
X113107242Y-125216042D01*
X112757720Y-125253395D01*
X112751010Y-125254482D01*
X112407586Y-125329361D01*
X112401011Y-125331172D01*
X112067683Y-125442702D01*
X112061361Y-125445205D01*
X111742034Y-125592079D01*
X111735991Y-125595265D01*
X111434401Y-125775763D01*
X111428755Y-125779571D01*
X111148408Y-125991596D01*
X111143211Y-125995987D01*
X111141972Y-125997155D01*
X111133950Y-126010862D01*
X109474500Y-126010862D01*
X109474500Y-114969895D01*
X127722401Y-114969895D01*
X127722738Y-114976414D01*
X127732657Y-115072006D01*
X127735549Y-115085400D01*
X127786988Y-115239584D01*
X127793161Y-115252762D01*
X127878463Y-115390607D01*
X127887499Y-115402008D01*
X128002229Y-115516539D01*
X128013640Y-115525551D01*
X128151643Y-115610616D01*
X128164824Y-115616763D01*
X128319110Y-115667938D01*
X128332486Y-115670805D01*
X128426838Y-115680472D01*
X128433254Y-115680800D01*
X128658285Y-115680800D01*
X128673524Y-115676325D01*
X128674729Y-115674935D01*
X128676400Y-115667252D01*
X128676400Y-115662684D01*
X129184400Y-115662684D01*
X129188875Y-115677923D01*
X129190265Y-115679128D01*
X129197948Y-115680799D01*
X129427495Y-115680799D01*
X129434014Y-115680462D01*
X129529606Y-115670543D01*
X129543000Y-115667651D01*
X129697184Y-115616212D01*
X129710362Y-115610039D01*
X129848207Y-115524737D01*
X129859608Y-115515701D01*
X129974139Y-115400971D01*
X129983151Y-115389560D01*
X130068216Y-115251557D01*
X130074363Y-115238376D01*
X130125538Y-115084090D01*
X130128405Y-115070714D01*
X130138072Y-114976362D01*
X130138400Y-114969946D01*
X130138400Y-114844915D01*
X130133925Y-114829676D01*
X130132535Y-114828471D01*
X130124852Y-114826800D01*
X129202515Y-114826800D01*
X129187276Y-114831275D01*
X129186071Y-114832665D01*
X129184400Y-114840348D01*
X129184400Y-115662684D01*
X128676400Y-115662684D01*
X128676400Y-114844915D01*
X128671925Y-114829676D01*
X128670535Y-114828471D01*
X128662852Y-114826800D01*
X127740516Y-114826800D01*
X127725277Y-114831275D01*
X127724072Y-114832665D01*
X127722401Y-114840348D01*
X127722401Y-114969895D01*
X109474500Y-114969895D01*
X109474500Y-108635895D01*
X112431601Y-108635895D01*
X112431938Y-108642414D01*
X112441857Y-108738006D01*
X112444749Y-108751400D01*
X112496188Y-108905584D01*
X112502361Y-108918762D01*
X112587663Y-109056607D01*
X112596699Y-109068008D01*
X112711429Y-109182539D01*
X112722840Y-109191551D01*
X112860843Y-109276616D01*
X112874024Y-109282763D01*
X113028310Y-109333938D01*
X113041686Y-109336805D01*
X113136038Y-109346472D01*
X113142454Y-109346800D01*
X113367485Y-109346800D01*
X113382724Y-109342325D01*
X113383929Y-109340935D01*
X113385600Y-109333252D01*
X113385600Y-109328684D01*
X113893600Y-109328684D01*
X113898075Y-109343923D01*
X113899465Y-109345128D01*
X113907148Y-109346799D01*
X114136695Y-109346799D01*
X114143214Y-109346462D01*
X114238806Y-109336543D01*
X114252200Y-109333651D01*
X114406384Y-109282212D01*
X114419562Y-109276039D01*
X114557407Y-109190737D01*
X114568808Y-109181701D01*
X114683339Y-109066971D01*
X114692351Y-109055560D01*
X114777416Y-108917557D01*
X114783563Y-108904376D01*
X114834738Y-108750090D01*
X114837605Y-108736714D01*
X114847272Y-108642362D01*
X114847600Y-108635946D01*
X114847600Y-108510915D01*
X114843125Y-108495676D01*
X114841735Y-108494471D01*
X114834052Y-108492800D01*
X113911715Y-108492800D01*
X113896476Y-108497275D01*
X113895271Y-108498665D01*
X113893600Y-108506348D01*
X113893600Y-109328684D01*
X113385600Y-109328684D01*
X113385600Y-108510915D01*
X113381125Y-108495676D01*
X113379735Y-108494471D01*
X113372052Y-108492800D01*
X112449716Y-108492800D01*
X112434477Y-108497275D01*
X112433272Y-108498665D01*
X112431601Y-108506348D01*
X112431601Y-108635895D01*
X109474500Y-108635895D01*
X109474500Y-106639200D01*
X112431100Y-106639200D01*
X112431437Y-106642446D01*
X112431437Y-106642450D01*
X112435617Y-106682732D01*
X112442074Y-106744966D01*
X112444255Y-106751502D01*
X112444255Y-106751504D01*
X112488328Y-106883606D01*
X112498050Y-106912746D01*
X112591122Y-107063148D01*
X112596304Y-107068321D01*
X112678063Y-107149938D01*
X112712142Y-107212221D01*
X112707139Y-107283041D01*
X112678218Y-107328129D01*
X112595861Y-107410629D01*
X112586849Y-107422040D01*
X112501784Y-107560043D01*
X112495637Y-107573224D01*
X112444462Y-107727510D01*
X112441595Y-107740886D01*
X112431928Y-107835238D01*
X112431600Y-107841655D01*
X112431600Y-107966685D01*
X112436075Y-107981924D01*
X112437465Y-107983129D01*
X112445148Y-107984800D01*
X114829484Y-107984800D01*
X114844723Y-107980325D01*
X114845928Y-107978935D01*
X114847599Y-107971252D01*
X114847599Y-107841705D01*
X114847262Y-107835186D01*
X114837343Y-107739594D01*
X114834451Y-107726200D01*
X114783012Y-107572016D01*
X114776839Y-107558838D01*
X114691537Y-107420993D01*
X114682501Y-107409592D01*
X114601138Y-107328370D01*
X114567059Y-107266087D01*
X114572062Y-107195267D01*
X114600983Y-107150180D01*
X114683730Y-107067288D01*
X114683734Y-107067283D01*
X114688905Y-107062103D01*
X114764534Y-106939411D01*
X114777875Y-106917768D01*
X114777876Y-106917766D01*
X114781715Y-106911538D01*
X114801784Y-106851032D01*
X114842215Y-106792672D01*
X114907780Y-106765436D01*
X114921377Y-106764700D01*
X115698000Y-106764700D01*
X115766121Y-106784702D01*
X115812614Y-106838358D01*
X115824000Y-106890700D01*
X115824000Y-110490000D01*
X115838947Y-110489336D01*
X115838948Y-110489336D01*
X121537425Y-110236070D01*
X127254000Y-109982000D01*
X127254000Y-107134094D01*
X127274002Y-107065973D01*
X127327658Y-107019480D01*
X127397932Y-107009376D01*
X127462512Y-107038870D01*
X127469095Y-107044999D01*
X127532595Y-107108499D01*
X127566621Y-107170811D01*
X127569500Y-107197594D01*
X127569500Y-107858400D01*
X127569837Y-107861646D01*
X127569837Y-107861650D01*
X127576616Y-107926979D01*
X127580474Y-107964166D01*
X127582655Y-107970702D01*
X127582655Y-107970704D01*
X127594268Y-108005512D01*
X127636450Y-108131946D01*
X127729522Y-108282348D01*
X127762538Y-108315306D01*
X127816109Y-108368784D01*
X127850188Y-108431066D01*
X127845185Y-108501886D01*
X127816264Y-108546975D01*
X127792227Y-108571054D01*
X127728695Y-108634697D01*
X127724855Y-108640927D01*
X127724854Y-108640928D01*
X127653527Y-108756642D01*
X127635885Y-108785262D01*
X127580203Y-108953139D01*
X127569500Y-109057600D01*
X127569500Y-109858400D01*
X127580474Y-109964166D01*
X127636450Y-110131946D01*
X127729522Y-110282348D01*
X127854697Y-110407305D01*
X127860927Y-110411145D01*
X127860928Y-110411146D01*
X127988853Y-110490000D01*
X128005262Y-110500115D01*
X128058168Y-110517663D01*
X128116527Y-110558094D01*
X128143764Y-110623658D01*
X128144500Y-110637256D01*
X128144500Y-111468445D01*
X128124498Y-111536566D01*
X128084803Y-111575589D01*
X128006052Y-111624322D01*
X127881095Y-111749497D01*
X127788285Y-111900062D01*
X127732603Y-112067939D01*
X127721900Y-112172400D01*
X127721900Y-112973200D01*
X127722237Y-112976446D01*
X127722237Y-112976450D01*
X127731220Y-113063021D01*
X127732874Y-113078966D01*
X127735055Y-113085502D01*
X127735055Y-113085504D01*
X127756075Y-113148507D01*
X127788850Y-113246746D01*
X127881922Y-113397148D01*
X127887104Y-113402321D01*
X127968863Y-113483938D01*
X128002942Y-113546221D01*
X127997939Y-113617041D01*
X127969018Y-113662129D01*
X127886661Y-113744629D01*
X127877649Y-113756040D01*
X127792584Y-113894043D01*
X127786437Y-113907224D01*
X127735262Y-114061510D01*
X127732395Y-114074886D01*
X127722728Y-114169238D01*
X127722400Y-114175655D01*
X127722400Y-114300685D01*
X127726875Y-114315924D01*
X127728265Y-114317129D01*
X127735948Y-114318800D01*
X130120284Y-114318800D01*
X130135523Y-114314325D01*
X130136728Y-114312935D01*
X130138399Y-114305252D01*
X130138399Y-114175705D01*
X130138062Y-114169186D01*
X130128143Y-114073594D01*
X130125251Y-114060200D01*
X130073812Y-113906016D01*
X130067639Y-113892838D01*
X129982337Y-113754993D01*
X129973301Y-113743592D01*
X129891938Y-113662370D01*
X129857859Y-113600087D01*
X129862862Y-113529267D01*
X129891783Y-113484180D01*
X129974530Y-113401288D01*
X129974534Y-113401283D01*
X129979705Y-113396103D01*
X130059789Y-113266184D01*
X130112562Y-113218690D01*
X130167049Y-113206300D01*
X155572433Y-113206300D01*
X155583616Y-113206827D01*
X155591109Y-113208502D01*
X155599035Y-113208253D01*
X155599036Y-113208253D01*
X155659186Y-113206362D01*
X155663145Y-113206300D01*
X155691056Y-113206300D01*
X155694991Y-113205803D01*
X155695056Y-113205795D01*
X155706893Y-113204862D01*
X155739151Y-113203848D01*
X155743170Y-113203722D01*
X155751089Y-113203473D01*
X155770543Y-113197821D01*
X155789900Y-113193813D01*
X155802130Y-113192268D01*
X155802131Y-113192268D01*
X155809997Y-113191274D01*
X155817368Y-113188355D01*
X155817370Y-113188355D01*
X155851112Y-113174996D01*
X155862342Y-113171151D01*
X155897183Y-113161029D01*
X155897184Y-113161029D01*
X155904793Y-113158818D01*
X155911612Y-113154785D01*
X155911617Y-113154783D01*
X155922228Y-113148507D01*
X155939976Y-113139812D01*
X155958817Y-113132352D01*
X155994587Y-113106364D01*
X156004507Y-113099848D01*
X156035735Y-113081380D01*
X156035738Y-113081378D01*
X156042562Y-113077342D01*
X156056883Y-113063021D01*
X156071917Y-113050180D01*
X156081894Y-113042931D01*
X156088307Y-113038272D01*
X156116498Y-113004195D01*
X156124488Y-112995416D01*
X160032300Y-109087605D01*
X160094612Y-109053579D01*
X160121395Y-109050700D01*
X161926000Y-109050700D01*
X161994121Y-109070702D01*
X162040614Y-109124358D01*
X162052000Y-109176700D01*
X162052000Y-112522000D01*
X166505500Y-112522000D01*
X166573621Y-112542002D01*
X166620114Y-112595658D01*
X166631500Y-112648000D01*
X166631500Y-115862076D01*
X166611498Y-115930197D01*
X166594595Y-115951171D01*
X165243421Y-117302345D01*
X165233278Y-117311447D01*
X165203775Y-117335168D01*
X165199808Y-117339896D01*
X165171509Y-117373621D01*
X165168328Y-117377269D01*
X165166685Y-117379081D01*
X165164491Y-117381275D01*
X165137158Y-117414549D01*
X165136496Y-117415347D01*
X165076646Y-117486674D01*
X165074078Y-117491344D01*
X165070697Y-117495461D01*
X165051394Y-117531461D01*
X165026823Y-117577286D01*
X165026194Y-117578445D01*
X164984338Y-117654581D01*
X164984335Y-117654589D01*
X164981367Y-117659987D01*
X164979755Y-117665069D01*
X164977238Y-117669763D01*
X164950038Y-117758731D01*
X164949718Y-117759759D01*
X164921565Y-117848506D01*
X164920971Y-117853802D01*
X164919413Y-117858898D01*
X164910412Y-117947513D01*
X164910018Y-117951387D01*
X164909889Y-117952593D01*
X164904300Y-118002427D01*
X164904300Y-118005954D01*
X164904245Y-118006939D01*
X164903798Y-118012619D01*
X164899426Y-118055662D01*
X164900006Y-118061793D01*
X164903741Y-118101309D01*
X164904300Y-118113167D01*
X164904300Y-118365391D01*
X164884298Y-118433512D01*
X164830642Y-118480005D01*
X164825106Y-118482303D01*
X164824504Y-118482632D01*
X164816095Y-118485785D01*
X164699539Y-118573139D01*
X164612185Y-118689695D01*
X164561055Y-118826084D01*
X164554300Y-118888266D01*
X164554300Y-120684534D01*
X164561055Y-120746716D01*
X164612185Y-120883105D01*
X164699539Y-120999661D01*
X164816095Y-121087015D01*
X164952484Y-121138145D01*
X165014666Y-121144900D01*
X166810934Y-121144900D01*
X166873116Y-121138145D01*
X167009505Y-121087015D01*
X167126061Y-120999661D01*
X167213415Y-120883105D01*
X167257598Y-120765248D01*
X167300240Y-120708484D01*
X167366801Y-120683784D01*
X167436150Y-120698992D01*
X167470817Y-120726980D01*
X167496018Y-120756073D01*
X167503380Y-120763283D01*
X167667234Y-120899316D01*
X167675681Y-120905231D01*
X167859556Y-121012679D01*
X167868842Y-121017129D01*
X168067801Y-121093103D01*
X168077699Y-121095979D01*
X168181050Y-121117006D01*
X168195099Y-121115810D01*
X168198800Y-121105465D01*
X168198800Y-121104917D01*
X168706800Y-121104917D01*
X168710864Y-121118759D01*
X168724278Y-121120793D01*
X168730984Y-121119934D01*
X168741062Y-121117792D01*
X168945055Y-121056591D01*
X168954642Y-121052833D01*
X169145895Y-120959139D01*
X169154745Y-120953864D01*
X169328128Y-120830192D01*
X169336000Y-120823539D01*
X169486852Y-120673212D01*
X169493530Y-120665365D01*
X169620822Y-120488219D01*
X169622079Y-120489122D01*
X169669173Y-120445762D01*
X169739111Y-120433545D01*
X169804551Y-120461078D01*
X169832379Y-120492911D01*
X169892787Y-120591488D01*
X170039050Y-120760338D01*
X170210926Y-120903032D01*
X170403800Y-121015738D01*
X170612492Y-121095430D01*
X170617560Y-121096461D01*
X170617563Y-121096462D01*
X170712662Y-121115810D01*
X170831397Y-121139967D01*
X170836572Y-121140157D01*
X170836574Y-121140157D01*
X171049473Y-121147964D01*
X171049477Y-121147964D01*
X171054637Y-121148153D01*
X171059757Y-121147497D01*
X171059759Y-121147497D01*
X171271088Y-121120425D01*
X171271089Y-121120425D01*
X171276216Y-121119768D01*
X171281166Y-121118283D01*
X171485229Y-121057061D01*
X171485234Y-121057059D01*
X171490184Y-121055574D01*
X171690794Y-120957296D01*
X171872660Y-120827573D01*
X171921223Y-120779180D01*
X172016952Y-120683784D01*
X172030896Y-120669889D01*
X172161253Y-120488477D01*
X172174795Y-120461078D01*
X172257936Y-120292853D01*
X172257937Y-120292851D01*
X172260230Y-120288211D01*
X172312493Y-120116195D01*
X172323665Y-120079423D01*
X172323665Y-120079421D01*
X172325170Y-120074469D01*
X172354329Y-119852990D01*
X172355956Y-119786400D01*
X172337652Y-119563761D01*
X172283231Y-119347102D01*
X172194154Y-119142240D01*
X172107152Y-119007755D01*
X172075622Y-118959017D01*
X172075620Y-118959014D01*
X172072814Y-118954677D01*
X171922470Y-118789451D01*
X171918419Y-118786252D01*
X171918415Y-118786248D01*
X171751214Y-118654200D01*
X171751210Y-118654198D01*
X171747159Y-118650998D01*
X171710828Y-118630942D01*
X171686490Y-118617507D01*
X171551589Y-118543038D01*
X171546720Y-118541314D01*
X171546716Y-118541312D01*
X171345887Y-118470195D01*
X171345883Y-118470194D01*
X171341012Y-118468469D01*
X171335919Y-118467562D01*
X171335916Y-118467561D01*
X171126173Y-118430200D01*
X171126167Y-118430199D01*
X171121084Y-118429294D01*
X171047252Y-118428392D01*
X170902881Y-118426628D01*
X170902879Y-118426628D01*
X170897711Y-118426565D01*
X170676891Y-118460355D01*
X170464556Y-118529757D01*
X170430451Y-118547511D01*
X170296150Y-118617424D01*
X170266407Y-118632907D01*
X170262274Y-118636010D01*
X170262271Y-118636012D01*
X170098741Y-118758794D01*
X170087765Y-118767035D01*
X169933429Y-118928538D01*
X169930515Y-118932810D01*
X169930514Y-118932811D01*
X169905442Y-118969566D01*
X169826034Y-119085974D01*
X169825698Y-119086466D01*
X169770787Y-119131469D01*
X169700262Y-119139640D01*
X169636515Y-119108386D01*
X169615818Y-119083902D01*
X169535226Y-118959326D01*
X169528936Y-118951157D01*
X169385606Y-118793640D01*
X169378073Y-118786615D01*
X169210939Y-118654622D01*
X169202352Y-118648917D01*
X169015917Y-118545999D01*
X169006505Y-118541769D01*
X168805759Y-118470680D01*
X168795788Y-118468046D01*
X168724637Y-118455372D01*
X168711340Y-118456832D01*
X168706800Y-118471389D01*
X168706800Y-121104917D01*
X168198800Y-121104917D01*
X168198800Y-118469502D01*
X168194882Y-118456158D01*
X168180606Y-118454171D01*
X168142124Y-118460060D01*
X168132088Y-118462451D01*
X167929668Y-118528612D01*
X167920159Y-118532609D01*
X167731263Y-118630942D01*
X167722538Y-118636436D01*
X167552233Y-118764305D01*
X167544526Y-118771148D01*
X167467278Y-118851984D01*
X167405754Y-118887414D01*
X167334842Y-118883957D01*
X167277055Y-118842711D01*
X167258202Y-118809163D01*
X167216567Y-118698103D01*
X167213415Y-118689695D01*
X167126061Y-118573139D01*
X167085898Y-118543038D01*
X167070321Y-118531364D01*
X167027806Y-118474505D01*
X167022780Y-118403686D01*
X167056791Y-118341443D01*
X168309379Y-117088855D01*
X168319522Y-117079753D01*
X168344218Y-117059897D01*
X168349025Y-117056032D01*
X168381292Y-117017578D01*
X168384472Y-117013931D01*
X168386115Y-117012119D01*
X168388309Y-117009925D01*
X168415642Y-116976651D01*
X168416348Y-116975800D01*
X168472195Y-116909244D01*
X168476154Y-116904526D01*
X168478722Y-116899856D01*
X168482103Y-116895739D01*
X168526015Y-116813842D01*
X168526624Y-116812720D01*
X168528154Y-116809938D01*
X168557484Y-116756586D01*
X168568466Y-116736611D01*
X168568468Y-116736606D01*
X168571433Y-116731213D01*
X168573044Y-116726135D01*
X168575563Y-116721437D01*
X168602753Y-116632502D01*
X168603136Y-116631272D01*
X168629371Y-116548570D01*
X168631235Y-116542694D01*
X168631828Y-116537403D01*
X168633388Y-116532302D01*
X168642795Y-116439689D01*
X168642915Y-116438569D01*
X168648500Y-116388773D01*
X168648500Y-116385244D01*
X168648555Y-116384261D01*
X168649004Y-116378556D01*
X168652752Y-116341664D01*
X168652752Y-116341661D01*
X168653374Y-116335537D01*
X168649059Y-116289888D01*
X168648500Y-116278031D01*
X168648500Y-112648000D01*
X168668502Y-112579879D01*
X168722158Y-112533386D01*
X168774500Y-112522000D01*
X173482000Y-112522000D01*
X173482000Y-101854000D01*
X162052000Y-101854000D01*
X162052000Y-105117700D01*
X162031998Y-105185821D01*
X161978342Y-105232314D01*
X161926000Y-105243700D01*
X158621967Y-105243700D01*
X158610784Y-105243173D01*
X158603291Y-105241498D01*
X158595365Y-105241747D01*
X158595364Y-105241747D01*
X158535214Y-105243638D01*
X158531255Y-105243700D01*
X158503344Y-105243700D01*
X158499410Y-105244197D01*
X158499409Y-105244197D01*
X158499344Y-105244205D01*
X158487507Y-105245138D01*
X158455690Y-105246138D01*
X158451229Y-105246278D01*
X158443310Y-105246527D01*
X158425654Y-105251656D01*
X158423858Y-105252178D01*
X158404506Y-105256186D01*
X158397435Y-105257080D01*
X158384403Y-105258726D01*
X158377034Y-105261643D01*
X158377032Y-105261644D01*
X158343297Y-105275000D01*
X158332069Y-105278845D01*
X158289607Y-105291182D01*
X158282784Y-105295217D01*
X158282782Y-105295218D01*
X158272172Y-105301493D01*
X158254424Y-105310188D01*
X158235583Y-105317648D01*
X158229167Y-105322310D01*
X158229166Y-105322310D01*
X158199813Y-105343636D01*
X158189893Y-105350152D01*
X158158665Y-105368620D01*
X158158662Y-105368622D01*
X158151838Y-105372658D01*
X158137517Y-105386979D01*
X158122484Y-105399819D01*
X158106093Y-105411728D01*
X158095906Y-105424042D01*
X158077902Y-105445805D01*
X158069912Y-105454584D01*
X157967040Y-105557456D01*
X157904728Y-105591482D01*
X157839534Y-105588363D01*
X157797889Y-105575033D01*
X157739108Y-105535217D01*
X157711185Y-105469942D01*
X157710300Y-105455031D01*
X157710300Y-96514025D01*
X157730302Y-96445904D01*
X157786563Y-96398257D01*
X157867910Y-96363308D01*
X157871890Y-96360845D01*
X157871894Y-96360843D01*
X158079864Y-96232147D01*
X158079866Y-96232145D01*
X158083847Y-96229682D01*
X158182626Y-96146060D01*
X158274089Y-96068631D01*
X158274091Y-96068629D01*
X158277662Y-96065606D01*
X158445095Y-95874684D01*
X158470943Y-95834500D01*
X158579941Y-95665042D01*
X158582469Y-95661112D01*
X158631914Y-95551349D01*
X158678130Y-95497455D01*
X158746796Y-95477100D01*
X159617991Y-95477100D01*
X159686112Y-95497102D01*
X159725134Y-95536795D01*
X159729669Y-95544123D01*
X159729673Y-95544128D01*
X159733522Y-95550348D01*
X159858697Y-95675305D01*
X159864927Y-95679145D01*
X159864928Y-95679146D01*
X160002090Y-95763694D01*
X160009262Y-95768115D01*
X160063588Y-95786134D01*
X160170611Y-95821632D01*
X160170613Y-95821632D01*
X160177139Y-95823797D01*
X160183975Y-95824497D01*
X160183978Y-95824498D01*
X160227031Y-95828909D01*
X160281600Y-95834500D01*
X161282400Y-95834500D01*
X161285646Y-95834163D01*
X161285650Y-95834163D01*
X161381308Y-95824238D01*
X161381312Y-95824237D01*
X161388166Y-95823526D01*
X161394702Y-95821345D01*
X161394704Y-95821345D01*
X161526806Y-95777272D01*
X161555946Y-95767550D01*
X161706348Y-95674478D01*
X161831305Y-95549303D01*
X161839475Y-95536049D01*
X161889198Y-95455384D01*
X161941971Y-95407890D01*
X161996458Y-95395500D01*
X164865274Y-95395500D01*
X164933395Y-95415502D01*
X164972707Y-95455665D01*
X165040987Y-95567088D01*
X165187250Y-95735938D01*
X165359126Y-95878632D01*
X165552000Y-95991338D01*
X165760692Y-96071030D01*
X165765760Y-96072061D01*
X165765763Y-96072062D01*
X165862455Y-96091734D01*
X165979597Y-96115567D01*
X165984772Y-96115757D01*
X165984774Y-96115757D01*
X166197673Y-96123564D01*
X166197677Y-96123564D01*
X166202837Y-96123753D01*
X166207957Y-96123097D01*
X166207959Y-96123097D01*
X166419288Y-96096025D01*
X166419289Y-96096025D01*
X166424416Y-96095368D01*
X166447918Y-96088317D01*
X166633429Y-96032661D01*
X166633434Y-96032659D01*
X166638384Y-96031174D01*
X166838994Y-95932896D01*
X167020860Y-95803173D01*
X167033600Y-95790478D01*
X167102209Y-95722107D01*
X167179096Y-95645489D01*
X167209556Y-95603100D01*
X167306435Y-95468277D01*
X167309453Y-95464077D01*
X167313611Y-95455665D01*
X167406136Y-95268453D01*
X167406137Y-95268451D01*
X167408430Y-95263811D01*
X167440900Y-95156940D01*
X167471865Y-95055023D01*
X167471865Y-95055021D01*
X167473370Y-95050069D01*
X167502529Y-94828590D01*
X167504156Y-94762000D01*
X167485852Y-94539361D01*
X167431431Y-94322702D01*
X167342354Y-94117840D01*
X167221014Y-93930277D01*
X167201588Y-93908928D01*
X167073798Y-93768488D01*
X167042746Y-93704642D01*
X167051141Y-93634143D01*
X167096317Y-93579375D01*
X167122761Y-93565706D01*
X167229297Y-93525767D01*
X167237705Y-93522615D01*
X167354261Y-93435261D01*
X167441615Y-93318705D01*
X167492745Y-93182316D01*
X167499500Y-93120134D01*
X167499500Y-91323866D01*
X167492745Y-91261684D01*
X167441615Y-91125295D01*
X167354261Y-91008739D01*
X167237705Y-90921385D01*
X167101316Y-90870255D01*
X167039134Y-90863500D01*
X166900500Y-90863500D01*
X166832379Y-90843498D01*
X166785886Y-90789842D01*
X166774500Y-90737500D01*
X166774500Y-90019767D01*
X166775027Y-90008584D01*
X166776702Y-90001091D01*
X166774562Y-89933014D01*
X166774500Y-89929055D01*
X166774500Y-89901144D01*
X166773995Y-89897144D01*
X166773062Y-89885301D01*
X166771922Y-89849029D01*
X166771673Y-89841110D01*
X166766022Y-89821658D01*
X166762014Y-89802306D01*
X166760467Y-89790063D01*
X166759474Y-89782203D01*
X166756556Y-89774832D01*
X166743200Y-89741097D01*
X166739355Y-89729870D01*
X166738721Y-89727687D01*
X166727018Y-89687407D01*
X166722984Y-89680585D01*
X166722981Y-89680579D01*
X166716706Y-89669968D01*
X166708010Y-89652218D01*
X166703472Y-89640756D01*
X166703469Y-89640751D01*
X166700552Y-89633383D01*
X166674573Y-89597625D01*
X166668057Y-89587707D01*
X166649575Y-89556457D01*
X166645542Y-89549637D01*
X166631218Y-89535313D01*
X166618376Y-89520278D01*
X166606472Y-89503893D01*
X166572406Y-89475711D01*
X166563627Y-89467722D01*
X162230605Y-85134700D01*
X162196579Y-85072388D01*
X162193700Y-85045605D01*
X162193700Y-84384800D01*
X162193363Y-84381550D01*
X162183438Y-84285892D01*
X162183437Y-84285888D01*
X162182726Y-84279034D01*
X162177126Y-84262247D01*
X162129068Y-84118202D01*
X162126750Y-84111254D01*
X162033678Y-83960852D01*
X161947091Y-83874416D01*
X161913012Y-83812134D01*
X161918015Y-83741314D01*
X161946936Y-83696225D01*
X162029334Y-83613683D01*
X162034505Y-83608503D01*
X162049241Y-83584597D01*
X162123475Y-83464168D01*
X162123476Y-83464166D01*
X162127315Y-83457938D01*
X162182997Y-83290061D01*
X162193700Y-83185600D01*
X162193700Y-82384800D01*
X162185048Y-82301411D01*
X162183438Y-82285892D01*
X162183437Y-82285888D01*
X162182726Y-82279034D01*
X162160173Y-82211433D01*
X162129068Y-82118202D01*
X162126750Y-82111254D01*
X162033678Y-81960852D01*
X161908503Y-81835895D01*
X161805142Y-81772182D01*
X161764168Y-81746925D01*
X161764166Y-81746924D01*
X161757938Y-81743085D01*
X161750991Y-81740781D01*
X161744356Y-81737687D01*
X161745503Y-81735228D01*
X161697480Y-81701965D01*
X161670237Y-81636403D01*
X161669500Y-81622794D01*
X161669500Y-80141197D01*
X161689502Y-80073076D01*
X161743158Y-80026583D01*
X161755623Y-80021674D01*
X161803002Y-80005867D01*
X161803004Y-80005866D01*
X161809946Y-80003550D01*
X161960348Y-79910478D01*
X162085305Y-79785303D01*
X162178115Y-79634738D01*
X162233797Y-79466861D01*
X162244500Y-79362400D01*
X162244500Y-78561600D01*
X162244163Y-78558350D01*
X162234238Y-78462692D01*
X162234237Y-78462688D01*
X162233526Y-78455834D01*
X162227056Y-78436439D01*
X162179868Y-78295002D01*
X162177550Y-78288054D01*
X162084478Y-78137652D01*
X161997891Y-78051216D01*
X161963812Y-77988934D01*
X161968815Y-77918114D01*
X161997736Y-77873025D01*
X162080134Y-77790483D01*
X162085305Y-77785303D01*
X162165504Y-77655197D01*
X162174275Y-77640968D01*
X162174276Y-77640966D01*
X162178115Y-77634738D01*
X162233797Y-77466861D01*
X162244500Y-77362400D01*
X162244500Y-76561600D01*
X162244163Y-76558350D01*
X162234238Y-76462692D01*
X162234237Y-76462688D01*
X162233526Y-76455834D01*
X162211673Y-76390331D01*
X162179868Y-76295002D01*
X162177550Y-76288054D01*
X162084478Y-76137652D01*
X161959303Y-76012695D01*
X161953072Y-76008854D01*
X161814968Y-75923725D01*
X161814966Y-75923724D01*
X161808738Y-75919885D01*
X161728995Y-75893436D01*
X161647389Y-75866368D01*
X161647387Y-75866368D01*
X161640861Y-75864203D01*
X161634025Y-75863503D01*
X161634022Y-75863502D01*
X161590969Y-75859091D01*
X161536400Y-75853500D01*
X160535600Y-75853500D01*
X160532354Y-75853837D01*
X160532350Y-75853837D01*
X160436692Y-75863762D01*
X160436688Y-75863763D01*
X160429834Y-75864474D01*
X160423298Y-75866655D01*
X160423296Y-75866655D01*
X160309436Y-75904642D01*
X160262054Y-75920450D01*
X160111652Y-76013522D01*
X159986695Y-76138697D01*
X159982855Y-76144927D01*
X159982854Y-76144928D01*
X159906611Y-76268616D01*
X159853838Y-76316110D01*
X159799351Y-76328500D01*
X157785500Y-76328500D01*
X157717379Y-76308498D01*
X157670886Y-76254842D01*
X157659500Y-76202500D01*
X157659500Y-72852900D01*
X157679502Y-72784779D01*
X157733158Y-72738286D01*
X157785500Y-72726900D01*
X158274134Y-72726900D01*
X158336316Y-72720145D01*
X158472705Y-72669015D01*
X158589261Y-72581661D01*
X158676615Y-72465105D01*
X158727745Y-72328716D01*
X158734500Y-72266534D01*
X158734500Y-69770266D01*
X158727745Y-69708084D01*
X158676615Y-69571695D01*
X158589261Y-69455139D01*
X158472705Y-69367785D01*
X158336316Y-69316655D01*
X158274134Y-69309900D01*
X155777866Y-69309900D01*
X155715684Y-69316655D01*
X155579295Y-69367785D01*
X155462739Y-69455139D01*
X155375385Y-69571695D01*
X155324255Y-69708084D01*
X155317500Y-69770266D01*
X155317500Y-72266534D01*
X155324255Y-72328716D01*
X155375385Y-72465105D01*
X155462739Y-72581661D01*
X155579295Y-72669015D01*
X155715684Y-72720145D01*
X155777866Y-72726900D01*
X156266500Y-72726900D01*
X156334621Y-72746902D01*
X156381114Y-72800558D01*
X156392500Y-72852900D01*
X156392500Y-76829233D01*
X156391973Y-76840416D01*
X156390298Y-76847909D01*
X156390547Y-76855835D01*
X156390547Y-76855836D01*
X156392438Y-76915986D01*
X156392500Y-76919945D01*
X156392500Y-80715500D01*
X156372498Y-80783621D01*
X156318842Y-80830114D01*
X156266500Y-80841500D01*
X155777866Y-80841500D01*
X155715684Y-80848255D01*
X155579295Y-80899385D01*
X155462739Y-80986739D01*
X155375385Y-81103295D01*
X155324255Y-81239684D01*
X155317500Y-81301866D01*
X155317500Y-83798134D01*
X155324255Y-83860316D01*
X155375385Y-83996705D01*
X155462739Y-84113261D01*
X155579295Y-84200615D01*
X155715684Y-84251745D01*
X155777866Y-84258500D01*
X158274134Y-84258500D01*
X158336316Y-84251745D01*
X158472705Y-84200615D01*
X158589261Y-84113261D01*
X158676615Y-83996705D01*
X158727745Y-83860316D01*
X158734500Y-83798134D01*
X158734500Y-81301866D01*
X158727745Y-81239684D01*
X158676615Y-81103295D01*
X158589261Y-80986739D01*
X158472705Y-80899385D01*
X158336316Y-80848255D01*
X158274134Y-80841500D01*
X157785500Y-80841500D01*
X157717379Y-80821498D01*
X157670886Y-80767842D01*
X157659500Y-80715500D01*
X157659500Y-77721500D01*
X157679502Y-77653379D01*
X157733158Y-77606886D01*
X157785500Y-77595500D01*
X159799219Y-77595500D01*
X159867340Y-77615502D01*
X159906363Y-77655197D01*
X159987522Y-77786348D01*
X160016519Y-77815294D01*
X160074109Y-77872784D01*
X160108188Y-77935066D01*
X160103185Y-78005886D01*
X160074264Y-78050975D01*
X160026614Y-78098708D01*
X159986695Y-78138697D01*
X159982855Y-78144927D01*
X159982854Y-78144928D01*
X159906261Y-78269185D01*
X159893885Y-78289262D01*
X159882508Y-78323564D01*
X159846742Y-78431396D01*
X159838203Y-78457139D01*
X159827500Y-78561600D01*
X159827500Y-79362400D01*
X159838474Y-79468166D01*
X159894450Y-79635946D01*
X159987522Y-79786348D01*
X160112697Y-79911305D01*
X160263262Y-80004115D01*
X160316168Y-80021663D01*
X160374527Y-80062094D01*
X160401764Y-80127658D01*
X160402500Y-80141256D01*
X160402500Y-81589054D01*
X160382498Y-81657175D01*
X160328842Y-81703668D01*
X160316377Y-81708577D01*
X160218207Y-81741330D01*
X160218205Y-81741331D01*
X160211254Y-81743650D01*
X160060852Y-81836722D01*
X159935895Y-81961897D01*
X159932055Y-81968127D01*
X159932054Y-81968128D01*
X159855124Y-82092932D01*
X159843085Y-82112462D01*
X159825251Y-82166229D01*
X159796459Y-82253037D01*
X159787403Y-82280339D01*
X159786703Y-82287175D01*
X159786702Y-82287178D01*
X159785244Y-82301411D01*
X159776700Y-82384800D01*
X159776700Y-83185600D01*
X159787674Y-83291366D01*
X159789855Y-83297902D01*
X159789855Y-83297904D01*
X159823794Y-83399630D01*
X159843650Y-83459146D01*
X159936722Y-83609548D01*
X160001307Y-83674020D01*
X160023309Y-83695984D01*
X160057388Y-83758266D01*
X160052385Y-83829086D01*
X160023464Y-83874175D01*
X159970873Y-83926858D01*
X159935895Y-83961897D01*
X159932055Y-83968127D01*
X159932054Y-83968128D01*
X159852866Y-84096595D01*
X159843085Y-84112462D01*
X159840781Y-84119409D01*
X159793465Y-84262064D01*
X159787403Y-84280339D01*
X159786703Y-84287175D01*
X159786702Y-84287178D01*
X159782291Y-84330231D01*
X159776700Y-84384800D01*
X159776700Y-85185600D01*
X159777037Y-85188846D01*
X159777037Y-85188850D01*
X159784035Y-85256289D01*
X159787674Y-85291366D01*
X159789855Y-85297902D01*
X159789855Y-85297904D01*
X159813228Y-85367961D01*
X159843650Y-85459146D01*
X159936722Y-85609548D01*
X160061897Y-85734505D01*
X160068127Y-85738345D01*
X160068128Y-85738346D01*
X160170096Y-85801200D01*
X160212462Y-85827315D01*
X160292205Y-85853764D01*
X160373811Y-85880832D01*
X160373813Y-85880832D01*
X160380339Y-85882997D01*
X160387175Y-85883697D01*
X160387178Y-85883698D01*
X160430231Y-85888109D01*
X160484800Y-85893700D01*
X161145606Y-85893700D01*
X161213727Y-85913702D01*
X161234701Y-85930605D01*
X165470595Y-90166499D01*
X165504621Y-90228811D01*
X165507500Y-90255594D01*
X165507500Y-90737500D01*
X165487498Y-90805621D01*
X165433842Y-90852114D01*
X165381500Y-90863500D01*
X165242866Y-90863500D01*
X165180684Y-90870255D01*
X165044295Y-90921385D01*
X164927739Y-91008739D01*
X164840385Y-91125295D01*
X164789255Y-91261684D01*
X164782500Y-91323866D01*
X164782500Y-91462500D01*
X164762498Y-91530621D01*
X164708842Y-91577114D01*
X164656500Y-91588500D01*
X161364768Y-91588500D01*
X161353585Y-91587973D01*
X161346092Y-91586298D01*
X161338166Y-91586547D01*
X161338165Y-91586547D01*
X161278002Y-91588438D01*
X161274044Y-91588500D01*
X161246144Y-91588500D01*
X161242154Y-91589004D01*
X161230320Y-91589936D01*
X161186111Y-91591326D01*
X161178495Y-91593539D01*
X161178493Y-91593539D01*
X161166652Y-91596979D01*
X161147293Y-91600988D01*
X161145983Y-91601154D01*
X161127203Y-91603526D01*
X161119837Y-91606443D01*
X161119831Y-91606444D01*
X161114255Y-91608652D01*
X161067872Y-91617500D01*
X160281600Y-91617500D01*
X160278354Y-91617837D01*
X160278350Y-91617837D01*
X160182692Y-91627762D01*
X160182688Y-91627763D01*
X160175834Y-91628474D01*
X160169298Y-91630655D01*
X160169296Y-91630655D01*
X160037194Y-91674728D01*
X160008054Y-91684450D01*
X159857652Y-91777522D01*
X159732695Y-91902697D01*
X159639885Y-92053262D01*
X159584203Y-92221139D01*
X159573500Y-92325600D01*
X159573500Y-93126400D01*
X159573837Y-93129646D01*
X159573837Y-93129650D01*
X159580968Y-93198371D01*
X159584474Y-93232166D01*
X159586655Y-93238702D01*
X159586655Y-93238704D01*
X159600546Y-93280339D01*
X159640450Y-93399946D01*
X159733522Y-93550348D01*
X159813563Y-93630249D01*
X159820109Y-93636784D01*
X159854188Y-93699066D01*
X159849185Y-93769886D01*
X159820264Y-93814975D01*
X159790200Y-93845092D01*
X159732695Y-93902697D01*
X159728855Y-93908927D01*
X159728854Y-93908928D01*
X159691664Y-93969262D01*
X159639885Y-94053262D01*
X159623735Y-94101953D01*
X159616499Y-94123768D01*
X159576068Y-94182128D01*
X159510503Y-94209364D01*
X159496906Y-94210100D01*
X158749863Y-94210100D01*
X158681742Y-94190098D01*
X158635249Y-94136442D01*
X158632430Y-94129767D01*
X158624884Y-94110362D01*
X158624883Y-94110360D01*
X158623191Y-94106009D01*
X158602666Y-94070098D01*
X158499502Y-93889597D01*
X158499500Y-93889595D01*
X158497183Y-93885540D01*
X158339971Y-93686117D01*
X158226500Y-93579375D01*
X158158410Y-93515322D01*
X158158408Y-93515320D01*
X158155009Y-93512123D01*
X158111283Y-93481789D01*
X157950193Y-93370037D01*
X157950190Y-93370035D01*
X157946361Y-93367379D01*
X157942184Y-93365319D01*
X157942177Y-93365315D01*
X157722796Y-93257128D01*
X157722792Y-93257127D01*
X157718610Y-93255064D01*
X157476760Y-93177647D01*
X157457191Y-93174460D01*
X157230735Y-93137580D01*
X157230734Y-93137580D01*
X157226123Y-93136829D01*
X157099164Y-93135167D01*
X156976883Y-93133566D01*
X156976880Y-93133566D01*
X156972206Y-93133505D01*
X156720587Y-93167749D01*
X156716101Y-93169057D01*
X156716099Y-93169057D01*
X156651984Y-93187745D01*
X156476793Y-93238808D01*
X156246180Y-93345122D01*
X156242271Y-93347685D01*
X156037728Y-93481789D01*
X156037723Y-93481793D01*
X156033815Y-93484355D01*
X155844362Y-93653448D01*
X155681983Y-93848687D01*
X155550247Y-94065782D01*
X155548438Y-94070096D01*
X155548437Y-94070098D01*
X155517457Y-94143978D01*
X155452046Y-94299965D01*
X155450895Y-94304497D01*
X155450894Y-94304500D01*
X155444997Y-94327720D01*
X155389538Y-94546090D01*
X155364096Y-94798751D01*
X155364320Y-94803417D01*
X155364320Y-94803422D01*
X155369833Y-94918179D01*
X155376280Y-95052398D01*
X155377193Y-95056986D01*
X155418333Y-95263811D01*
X155425821Y-95301457D01*
X155427400Y-95305855D01*
X155427402Y-95305862D01*
X155460748Y-95398738D01*
X155511631Y-95540458D01*
X155513848Y-95544584D01*
X155616666Y-95735938D01*
X155631825Y-95764151D01*
X155634620Y-95767894D01*
X155634622Y-95767897D01*
X155780971Y-95963882D01*
X155780976Y-95963888D01*
X155783763Y-95967620D01*
X155787072Y-95970900D01*
X155787077Y-95970906D01*
X155960790Y-96143109D01*
X155964107Y-96146397D01*
X155967869Y-96149155D01*
X155967872Y-96149158D01*
X156073564Y-96226654D01*
X156168894Y-96296553D01*
X156173031Y-96298729D01*
X156173038Y-96298734D01*
X156375967Y-96405500D01*
X156426940Y-96454919D01*
X156443300Y-96517008D01*
X156443300Y-105594243D01*
X156423298Y-105662364D01*
X156386385Y-105699615D01*
X156193328Y-105826189D01*
X156193323Y-105826193D01*
X156189415Y-105828755D01*
X155999962Y-105997848D01*
X155837583Y-106193087D01*
X155705847Y-106410182D01*
X155704038Y-106414496D01*
X155704037Y-106414498D01*
X155609527Y-106639880D01*
X155607646Y-106644365D01*
X155606495Y-106648897D01*
X155606494Y-106648900D01*
X155580436Y-106751504D01*
X155545138Y-106890490D01*
X155519696Y-107143151D01*
X155519920Y-107147817D01*
X155519920Y-107147822D01*
X155521850Y-107188000D01*
X155531880Y-107396798D01*
X155536693Y-107420993D01*
X155564352Y-107560043D01*
X155581421Y-107645857D01*
X155583000Y-107650255D01*
X155583002Y-107650262D01*
X155653474Y-107846541D01*
X155667231Y-107884858D01*
X155669448Y-107888984D01*
X155721472Y-107985805D01*
X155787425Y-108108551D01*
X155790220Y-108112294D01*
X155790222Y-108112297D01*
X155936571Y-108308282D01*
X155936576Y-108308288D01*
X155939363Y-108312020D01*
X155942672Y-108315300D01*
X155942677Y-108315306D01*
X156116390Y-108487509D01*
X156119707Y-108490797D01*
X156123469Y-108493555D01*
X156123472Y-108493558D01*
X156229164Y-108571054D01*
X156324494Y-108640953D01*
X156328629Y-108643129D01*
X156328633Y-108643131D01*
X156446689Y-108705243D01*
X156549227Y-108759191D01*
X156788968Y-108842912D01*
X157038450Y-108890278D01*
X157158932Y-108895011D01*
X157287525Y-108900064D01*
X157287530Y-108900064D01*
X157292193Y-108900247D01*
X157391174Y-108889407D01*
X157539969Y-108873112D01*
X157539975Y-108873111D01*
X157544622Y-108872602D01*
X157654080Y-108843784D01*
X157785673Y-108809138D01*
X157790193Y-108807948D01*
X157955996Y-108736714D01*
X158019207Y-108709557D01*
X158019210Y-108709555D01*
X158023510Y-108707708D01*
X158027490Y-108705245D01*
X158027494Y-108705243D01*
X158235464Y-108576547D01*
X158235466Y-108576545D01*
X158239447Y-108574082D01*
X158243024Y-108571054D01*
X158429689Y-108413031D01*
X158429691Y-108413029D01*
X158433262Y-108410006D01*
X158600695Y-108219084D01*
X158661990Y-108123791D01*
X158735541Y-108009442D01*
X158738069Y-108005512D01*
X158842367Y-107773980D01*
X158911296Y-107529575D01*
X158924976Y-107422040D01*
X158942945Y-107280798D01*
X158942945Y-107280792D01*
X158943343Y-107277667D01*
X158943647Y-107266087D01*
X158945440Y-107197594D01*
X158945691Y-107188000D01*
X158944414Y-107170811D01*
X158927218Y-106939411D01*
X158927217Y-106939407D01*
X158926872Y-106934759D01*
X158923028Y-106917768D01*
X158871859Y-106691639D01*
X158870828Y-106687082D01*
X158868998Y-106682376D01*
X158868987Y-106682243D01*
X158867767Y-106678254D01*
X158868623Y-106677992D01*
X158862945Y-106611639D01*
X158896096Y-106548857D01*
X158957927Y-106513965D01*
X158986427Y-106510700D01*
X161926000Y-106510700D01*
X161994121Y-106530702D01*
X162040614Y-106584358D01*
X162052000Y-106636700D01*
X162052000Y-107657700D01*
X162031998Y-107725821D01*
X161978342Y-107772314D01*
X161926000Y-107783700D01*
X159885567Y-107783700D01*
X159874384Y-107783173D01*
X159866891Y-107781498D01*
X159858965Y-107781747D01*
X159858964Y-107781747D01*
X159798801Y-107783638D01*
X159794843Y-107783700D01*
X159766944Y-107783700D01*
X159762954Y-107784204D01*
X159751120Y-107785136D01*
X159706911Y-107786526D01*
X159699297Y-107788738D01*
X159699292Y-107788739D01*
X159687459Y-107792177D01*
X159668096Y-107796188D01*
X159648003Y-107798726D01*
X159640636Y-107801643D01*
X159640631Y-107801644D01*
X159606892Y-107815002D01*
X159595665Y-107818846D01*
X159553207Y-107831182D01*
X159546381Y-107835219D01*
X159535772Y-107841493D01*
X159518024Y-107850188D01*
X159499183Y-107857648D01*
X159492767Y-107862310D01*
X159492766Y-107862310D01*
X159463413Y-107883636D01*
X159453493Y-107890152D01*
X159422265Y-107908620D01*
X159422262Y-107908622D01*
X159415438Y-107912658D01*
X159401117Y-107926979D01*
X159386084Y-107939819D01*
X159369693Y-107951728D01*
X159344713Y-107981924D01*
X159341502Y-107985805D01*
X159333512Y-107994584D01*
X155425700Y-111902395D01*
X155363388Y-111936421D01*
X155336605Y-111939300D01*
X130167181Y-111939300D01*
X130099060Y-111919298D01*
X130060037Y-111879603D01*
X129982732Y-111754680D01*
X129978878Y-111748452D01*
X129853703Y-111623495D01*
X129847472Y-111619654D01*
X129709368Y-111534525D01*
X129709366Y-111534524D01*
X129703138Y-111530685D01*
X129623395Y-111504236D01*
X129541789Y-111477168D01*
X129541787Y-111477168D01*
X129535261Y-111475003D01*
X129527809Y-111474239D01*
X129524663Y-111473917D01*
X129522494Y-111473031D01*
X129521690Y-111472859D01*
X129521721Y-111472716D01*
X129458935Y-111447079D01*
X129418150Y-111388966D01*
X129411500Y-111348573D01*
X129411500Y-110637197D01*
X129431502Y-110569076D01*
X129485158Y-110522583D01*
X129497623Y-110517674D01*
X129545002Y-110501867D01*
X129545004Y-110501866D01*
X129551946Y-110499550D01*
X129571660Y-110487351D01*
X129696120Y-110410332D01*
X129702348Y-110406478D01*
X129827305Y-110281303D01*
X129920115Y-110130738D01*
X129969449Y-109982000D01*
X129973632Y-109969389D01*
X129973632Y-109969387D01*
X129975797Y-109962861D01*
X129986500Y-109858400D01*
X129986500Y-109057600D01*
X129975526Y-108951834D01*
X129958146Y-108899738D01*
X129921868Y-108791002D01*
X129919550Y-108784054D01*
X129826478Y-108633652D01*
X129739891Y-108547216D01*
X129705812Y-108484934D01*
X129710815Y-108414114D01*
X129739736Y-108369025D01*
X129822134Y-108286483D01*
X129827305Y-108281303D01*
X129920115Y-108130738D01*
X129960347Y-108009442D01*
X129973632Y-107969389D01*
X129973632Y-107969387D01*
X129975797Y-107962861D01*
X129979474Y-107926979D01*
X129983366Y-107888984D01*
X129986500Y-107858400D01*
X129986500Y-107057600D01*
X129982545Y-107019480D01*
X129976238Y-106958692D01*
X129976237Y-106958688D01*
X129975526Y-106951834D01*
X129971382Y-106939411D01*
X129921868Y-106791002D01*
X129919550Y-106784054D01*
X129826478Y-106633652D01*
X129701303Y-106508695D01*
X129550738Y-106415885D01*
X129470995Y-106389436D01*
X129389389Y-106362368D01*
X129389387Y-106362368D01*
X129382861Y-106360203D01*
X129376025Y-106359503D01*
X129376022Y-106359502D01*
X129332969Y-106355091D01*
X129278400Y-106349500D01*
X128617595Y-106349500D01*
X128549474Y-106329498D01*
X128528500Y-106312595D01*
X127954852Y-105738947D01*
X127947312Y-105730661D01*
X127943200Y-105724182D01*
X127893548Y-105677556D01*
X127890707Y-105674802D01*
X127870970Y-105655065D01*
X127867773Y-105652585D01*
X127858751Y-105644880D01*
X127832300Y-105620041D01*
X127826521Y-105614614D01*
X127819575Y-105610795D01*
X127819572Y-105610793D01*
X127808766Y-105604852D01*
X127792247Y-105594001D01*
X127784978Y-105588363D01*
X127776241Y-105581586D01*
X127768972Y-105578441D01*
X127768968Y-105578438D01*
X127735663Y-105564026D01*
X127725013Y-105558809D01*
X127686260Y-105537505D01*
X127673517Y-105534233D01*
X127666638Y-105532467D01*
X127647934Y-105526063D01*
X127636620Y-105521167D01*
X127636619Y-105521167D01*
X127629345Y-105518019D01*
X127621522Y-105516780D01*
X127621512Y-105516777D01*
X127585676Y-105511101D01*
X127574056Y-105508695D01*
X127538911Y-105499672D01*
X127538910Y-105499672D01*
X127531230Y-105497700D01*
X127510976Y-105497700D01*
X127491265Y-105496149D01*
X127479086Y-105494220D01*
X127471257Y-105492980D01*
X127463365Y-105493726D01*
X127427239Y-105497141D01*
X127415381Y-105497700D01*
X127380000Y-105497700D01*
X127311879Y-105477698D01*
X127265386Y-105424042D01*
X127254000Y-105371700D01*
X127254000Y-99568000D01*
X121917500Y-99568000D01*
X121849379Y-99547998D01*
X121802886Y-99494342D01*
X121791500Y-99442000D01*
X121791500Y-85658594D01*
X121811502Y-85590473D01*
X121828405Y-85569499D01*
X124015099Y-83382805D01*
X124077411Y-83348779D01*
X124104194Y-83345900D01*
X125014669Y-83345900D01*
X125082790Y-83365902D01*
X125117882Y-83399630D01*
X125191719Y-83505081D01*
X125343719Y-83657081D01*
X125519803Y-83780376D01*
X125524781Y-83782697D01*
X125524784Y-83782699D01*
X125708153Y-83868205D01*
X125761438Y-83915122D01*
X125780899Y-83983400D01*
X125760357Y-84051359D01*
X125708153Y-84096595D01*
X125524785Y-84182101D01*
X125524782Y-84182103D01*
X125519804Y-84184424D01*
X125343719Y-84307719D01*
X125191719Y-84459719D01*
X125068424Y-84635804D01*
X125066103Y-84640782D01*
X125066101Y-84640785D01*
X124984483Y-84815815D01*
X124977578Y-84830623D01*
X124976156Y-84835931D01*
X124976155Y-84835933D01*
X124927113Y-85018959D01*
X124921942Y-85038258D01*
X124903207Y-85252400D01*
X124921942Y-85466542D01*
X124923366Y-85471855D01*
X124923366Y-85471857D01*
X124973403Y-85658594D01*
X124977578Y-85674177D01*
X124979900Y-85679157D01*
X124979901Y-85679159D01*
X125048988Y-85827315D01*
X125068424Y-85868996D01*
X125191719Y-86045081D01*
X125343719Y-86197081D01*
X125348231Y-86200240D01*
X125449170Y-86270918D01*
X125493499Y-86326375D01*
X125502900Y-86374131D01*
X125502900Y-86670669D01*
X125482898Y-86738790D01*
X125449170Y-86773882D01*
X125343719Y-86847719D01*
X125191719Y-86999719D01*
X125068424Y-87175804D01*
X125066103Y-87180782D01*
X125066101Y-87180785D01*
X124998670Y-87325391D01*
X124977578Y-87370623D01*
X124921942Y-87578258D01*
X124903207Y-87792400D01*
X124921942Y-88006542D01*
X124977578Y-88214177D01*
X125068424Y-88408996D01*
X125191719Y-88585081D01*
X125343719Y-88737081D01*
X125348231Y-88740240D01*
X125449170Y-88810918D01*
X125493499Y-88866375D01*
X125502900Y-88914131D01*
X125502900Y-93407500D01*
X125482898Y-93475621D01*
X125429242Y-93522114D01*
X125376900Y-93533500D01*
X125091600Y-93533500D01*
X125088354Y-93533837D01*
X125088350Y-93533837D01*
X124992692Y-93543762D01*
X124992688Y-93543763D01*
X124985834Y-93544474D01*
X124979298Y-93546655D01*
X124979296Y-93546655D01*
X124955833Y-93554483D01*
X124818054Y-93600450D01*
X124667652Y-93693522D01*
X124542695Y-93818697D01*
X124538855Y-93824927D01*
X124538854Y-93824928D01*
X124471241Y-93934617D01*
X124449885Y-93969262D01*
X124447581Y-93976209D01*
X124399029Y-94122590D01*
X124394203Y-94137139D01*
X124393503Y-94143975D01*
X124393502Y-94143978D01*
X124389593Y-94182128D01*
X124383500Y-94241600D01*
X124383500Y-95242400D01*
X124383837Y-95245646D01*
X124383837Y-95245650D01*
X124390085Y-95305862D01*
X124394474Y-95348166D01*
X124396655Y-95354702D01*
X124396655Y-95354704D01*
X124416939Y-95415502D01*
X124450450Y-95515946D01*
X124543522Y-95666348D01*
X124668697Y-95791305D01*
X124674927Y-95795145D01*
X124674928Y-95795146D01*
X124812090Y-95879694D01*
X124819262Y-95884115D01*
X124899005Y-95910564D01*
X124980611Y-95937632D01*
X124980613Y-95937632D01*
X124987139Y-95939797D01*
X124993975Y-95940497D01*
X124993978Y-95940498D01*
X125037031Y-95944909D01*
X125091600Y-95950500D01*
X125892400Y-95950500D01*
X125895646Y-95950163D01*
X125895650Y-95950163D01*
X125991308Y-95940238D01*
X125991312Y-95940237D01*
X125998166Y-95939526D01*
X126004702Y-95937345D01*
X126004704Y-95937345D01*
X126136806Y-95893272D01*
X126165946Y-95883550D01*
X126316348Y-95790478D01*
X126402784Y-95703891D01*
X126465066Y-95669812D01*
X126535886Y-95674815D01*
X126580975Y-95703736D01*
X126613233Y-95735938D01*
X126668697Y-95791305D01*
X126674927Y-95795145D01*
X126674928Y-95795146D01*
X126812090Y-95879694D01*
X126819262Y-95884115D01*
X126899005Y-95910564D01*
X126980611Y-95937632D01*
X126980613Y-95937632D01*
X126987139Y-95939797D01*
X126993975Y-95940497D01*
X126993978Y-95940498D01*
X127037031Y-95944909D01*
X127091600Y-95950500D01*
X127892400Y-95950500D01*
X127895646Y-95950163D01*
X127895650Y-95950163D01*
X127991308Y-95940238D01*
X127991312Y-95940237D01*
X127998166Y-95939526D01*
X128004702Y-95937345D01*
X128004704Y-95937345D01*
X128136806Y-95893272D01*
X128165946Y-95883550D01*
X128316348Y-95790478D01*
X128441305Y-95665303D01*
X128520403Y-95536983D01*
X128573174Y-95489491D01*
X128627662Y-95477100D01*
X130242300Y-95477100D01*
X130310421Y-95497102D01*
X130356914Y-95550758D01*
X130368300Y-95603100D01*
X130368300Y-96091734D01*
X130375055Y-96153916D01*
X130426185Y-96290305D01*
X130513539Y-96406861D01*
X130630095Y-96494215D01*
X130766484Y-96545345D01*
X130828666Y-96552100D01*
X131317300Y-96552100D01*
X131385421Y-96572102D01*
X131431914Y-96625758D01*
X131443300Y-96678100D01*
X131443300Y-105353500D01*
X131423298Y-105421621D01*
X131369642Y-105468114D01*
X131317300Y-105479500D01*
X130984266Y-105479500D01*
X130922084Y-105486255D01*
X130785695Y-105537385D01*
X130669139Y-105624739D01*
X130581785Y-105741295D01*
X130530655Y-105877684D01*
X130523900Y-105939866D01*
X130523900Y-108436134D01*
X130530655Y-108498316D01*
X130581785Y-108634705D01*
X130669139Y-108751261D01*
X130785695Y-108838615D01*
X130922084Y-108889745D01*
X130984266Y-108896500D01*
X133480534Y-108896500D01*
X133542716Y-108889745D01*
X133679105Y-108838615D01*
X133795661Y-108751261D01*
X133883015Y-108634705D01*
X133934145Y-108498316D01*
X133940900Y-108436134D01*
X133940900Y-105939866D01*
X133934145Y-105877684D01*
X133883015Y-105741295D01*
X133795661Y-105624739D01*
X133679105Y-105537385D01*
X133542716Y-105486255D01*
X133480534Y-105479500D01*
X132836300Y-105479500D01*
X132768179Y-105459498D01*
X132721686Y-105405842D01*
X132710300Y-105353500D01*
X132710300Y-96678100D01*
X132730302Y-96609979D01*
X132783958Y-96563486D01*
X132836300Y-96552100D01*
X133324934Y-96552100D01*
X133387116Y-96545345D01*
X133523505Y-96494215D01*
X133640061Y-96406861D01*
X133727415Y-96290305D01*
X133778545Y-96153916D01*
X133785300Y-96091734D01*
X133785300Y-93595466D01*
X133778545Y-93533284D01*
X133727415Y-93396895D01*
X133640061Y-93280339D01*
X133523505Y-93192985D01*
X133387116Y-93141855D01*
X133324934Y-93135100D01*
X130828666Y-93135100D01*
X130766484Y-93141855D01*
X130630095Y-93192985D01*
X130513539Y-93280339D01*
X130426185Y-93396895D01*
X130375055Y-93533284D01*
X130368300Y-93595466D01*
X130368300Y-94084100D01*
X130348298Y-94152221D01*
X130294642Y-94198714D01*
X130242300Y-94210100D01*
X128705094Y-94210100D01*
X128636973Y-94190098D01*
X128590480Y-94136442D01*
X128585570Y-94123976D01*
X128535868Y-93975002D01*
X128533550Y-93968054D01*
X128440478Y-93817652D01*
X128315303Y-93692695D01*
X128287794Y-93675738D01*
X128170968Y-93603725D01*
X128170966Y-93603724D01*
X128164738Y-93599885D01*
X128055824Y-93563760D01*
X128003389Y-93546368D01*
X128003387Y-93546368D01*
X127996861Y-93544203D01*
X127990025Y-93543503D01*
X127990022Y-93543502D01*
X127946969Y-93539091D01*
X127892400Y-93533500D01*
X127091600Y-93533500D01*
X127088354Y-93533837D01*
X127088350Y-93533837D01*
X126992692Y-93543762D01*
X126992688Y-93543763D01*
X126985834Y-93544474D01*
X126979301Y-93546654D01*
X126979290Y-93546656D01*
X126935777Y-93561174D01*
X126864827Y-93563760D01*
X126803743Y-93527576D01*
X126771918Y-93464112D01*
X126769900Y-93441651D01*
X126769900Y-88914131D01*
X126789902Y-88846010D01*
X126823630Y-88810918D01*
X126924569Y-88740240D01*
X126929081Y-88737081D01*
X127081081Y-88585081D01*
X127204376Y-88408996D01*
X127295222Y-88214177D01*
X127350858Y-88006542D01*
X127369593Y-87792400D01*
X127350858Y-87578258D01*
X127295222Y-87370623D01*
X127274130Y-87325391D01*
X127206699Y-87180785D01*
X127206697Y-87180782D01*
X127204376Y-87175804D01*
X127081081Y-86999719D01*
X126929081Y-86847719D01*
X126823630Y-86773882D01*
X126779301Y-86718425D01*
X126769900Y-86670669D01*
X126769900Y-86374131D01*
X126789902Y-86306010D01*
X126823630Y-86270918D01*
X126924569Y-86200240D01*
X126929081Y-86197081D01*
X127081081Y-86045081D01*
X127204376Y-85868996D01*
X127223813Y-85827315D01*
X127292899Y-85679159D01*
X127292900Y-85679157D01*
X127295222Y-85674177D01*
X127299398Y-85658594D01*
X127349434Y-85471857D01*
X127349434Y-85471855D01*
X127350858Y-85466542D01*
X127369593Y-85252400D01*
X127350858Y-85038258D01*
X127345687Y-85018959D01*
X127296645Y-84835933D01*
X127296644Y-84835931D01*
X127295222Y-84830623D01*
X127288317Y-84815815D01*
X127206699Y-84640785D01*
X127206697Y-84640782D01*
X127204376Y-84635804D01*
X127081081Y-84459719D01*
X126929081Y-84307719D01*
X126752997Y-84184424D01*
X126748019Y-84182103D01*
X126748016Y-84182101D01*
X126564647Y-84096595D01*
X126511362Y-84049678D01*
X126491901Y-83981400D01*
X126512443Y-83913441D01*
X126564647Y-83868205D01*
X126748016Y-83782699D01*
X126748019Y-83782697D01*
X126752997Y-83780376D01*
X126929081Y-83657081D01*
X127081081Y-83505081D01*
X127154918Y-83399630D01*
X127210375Y-83355301D01*
X127258131Y-83345900D01*
X130438713Y-83345900D01*
X130506834Y-83365902D01*
X130549705Y-83412261D01*
X130581025Y-83470551D01*
X130583820Y-83474294D01*
X130583822Y-83474297D01*
X130730171Y-83670282D01*
X130730176Y-83670288D01*
X130732963Y-83674020D01*
X130736272Y-83677300D01*
X130736277Y-83677306D01*
X130889388Y-83829086D01*
X130913307Y-83852797D01*
X130917069Y-83855555D01*
X130917072Y-83855558D01*
X131014313Y-83926858D01*
X131118094Y-84002953D01*
X131122229Y-84005129D01*
X131122233Y-84005131D01*
X131184597Y-84037942D01*
X131342827Y-84121191D01*
X131582568Y-84204912D01*
X131832050Y-84252278D01*
X131952532Y-84257011D01*
X132081125Y-84262064D01*
X132081130Y-84262064D01*
X132085793Y-84262247D01*
X132184774Y-84251407D01*
X132333569Y-84235112D01*
X132333575Y-84235111D01*
X132338222Y-84234602D01*
X132447680Y-84205784D01*
X132579273Y-84171138D01*
X132583793Y-84169948D01*
X132715737Y-84113261D01*
X132812807Y-84071557D01*
X132812810Y-84071555D01*
X132817110Y-84069708D01*
X132821090Y-84067245D01*
X132821094Y-84067243D01*
X133029064Y-83938547D01*
X133029066Y-83938545D01*
X133033047Y-83936082D01*
X133131826Y-83852460D01*
X133223289Y-83775031D01*
X133223291Y-83775029D01*
X133226862Y-83772006D01*
X133394295Y-83581084D01*
X133440677Y-83508976D01*
X133496275Y-83422539D01*
X133531669Y-83367512D01*
X133635967Y-83135980D01*
X133704896Y-82891575D01*
X133736943Y-82639667D01*
X133737446Y-82620483D01*
X133739208Y-82553160D01*
X133739291Y-82550000D01*
X133720472Y-82296759D01*
X133718892Y-82289773D01*
X133677086Y-82105024D01*
X133664428Y-82049082D01*
X133647816Y-82006365D01*
X133574084Y-81816762D01*
X133574083Y-81816760D01*
X133572391Y-81812409D01*
X133551866Y-81776498D01*
X133448702Y-81595997D01*
X133448700Y-81595995D01*
X133446383Y-81591940D01*
X133289171Y-81392517D01*
X133104209Y-81218523D01*
X133060483Y-81188189D01*
X132899393Y-81076437D01*
X132899390Y-81076435D01*
X132895561Y-81073779D01*
X132891384Y-81071719D01*
X132891377Y-81071715D01*
X132671996Y-80963528D01*
X132671992Y-80963527D01*
X132667810Y-80961464D01*
X132425960Y-80884047D01*
X132421355Y-80883297D01*
X132179935Y-80843980D01*
X132179934Y-80843980D01*
X132175323Y-80843229D01*
X132048365Y-80841567D01*
X131926083Y-80839966D01*
X131926080Y-80839966D01*
X131921406Y-80839905D01*
X131669787Y-80874149D01*
X131425993Y-80945208D01*
X131195380Y-81051522D01*
X131191471Y-81054085D01*
X130986928Y-81188189D01*
X130986923Y-81188193D01*
X130983015Y-81190755D01*
X130793562Y-81359848D01*
X130631183Y-81555087D01*
X130499447Y-81772182D01*
X130497638Y-81776496D01*
X130497637Y-81776498D01*
X130403233Y-82001626D01*
X130358444Y-82056712D01*
X130287036Y-82078900D01*
X127258131Y-82078900D01*
X127190010Y-82058898D01*
X127154920Y-82025173D01*
X127097485Y-81943147D01*
X127074700Y-81870879D01*
X127074700Y-79309227D01*
X127094702Y-79241106D01*
X127135818Y-79201350D01*
X127139194Y-79199696D01*
X127321060Y-79069973D01*
X127479296Y-78912289D01*
X127538794Y-78829489D01*
X127606635Y-78735077D01*
X127609653Y-78730877D01*
X127691725Y-78564817D01*
X127706336Y-78535253D01*
X127706337Y-78535251D01*
X127708630Y-78530611D01*
X127741100Y-78423740D01*
X127772065Y-78321823D01*
X127772065Y-78321821D01*
X127773570Y-78316869D01*
X127802729Y-78095390D01*
X127803075Y-78081242D01*
X127804274Y-78032165D01*
X127804274Y-78032161D01*
X127804356Y-78028800D01*
X127786052Y-77806161D01*
X127731631Y-77589502D01*
X127642554Y-77384640D01*
X127580675Y-77288989D01*
X127524022Y-77201417D01*
X127524020Y-77201414D01*
X127521214Y-77197077D01*
X127517732Y-77193250D01*
X127373998Y-77035288D01*
X127342946Y-76971442D01*
X127351341Y-76900943D01*
X127396517Y-76846175D01*
X127422961Y-76832506D01*
X127529497Y-76792567D01*
X127537905Y-76789415D01*
X127654461Y-76702061D01*
X127741815Y-76585505D01*
X127792945Y-76449116D01*
X127799700Y-76386934D01*
X127799700Y-76045567D01*
X127819702Y-75977446D01*
X127836965Y-75956700D01*
X127840307Y-75954272D01*
X127868498Y-75920195D01*
X127876488Y-75911416D01*
X131182507Y-72605397D01*
X131244819Y-72571371D01*
X131315634Y-72576436D01*
X131330261Y-72582980D01*
X131342827Y-72589591D01*
X131582568Y-72673312D01*
X131832050Y-72720678D01*
X131952532Y-72725411D01*
X132081125Y-72730464D01*
X132081130Y-72730464D01*
X132085793Y-72730647D01*
X132184774Y-72719807D01*
X132333569Y-72703512D01*
X132333575Y-72703511D01*
X132338222Y-72703002D01*
X132447680Y-72674184D01*
X132579273Y-72639538D01*
X132583793Y-72638348D01*
X132715737Y-72581661D01*
X132812807Y-72539957D01*
X132812810Y-72539955D01*
X132817110Y-72538108D01*
X132821090Y-72535645D01*
X132821094Y-72535643D01*
X133029064Y-72406947D01*
X133029066Y-72406945D01*
X133033047Y-72404482D01*
X133036624Y-72401454D01*
X133223289Y-72243431D01*
X133223291Y-72243429D01*
X133226862Y-72240406D01*
X133394295Y-72049484D01*
X133406226Y-72030936D01*
X133529141Y-71839842D01*
X133531669Y-71835912D01*
X133635967Y-71604380D01*
X133704896Y-71359975D01*
X133736943Y-71108067D01*
X133739291Y-71018400D01*
X133720472Y-70765159D01*
X133664428Y-70517482D01*
X133662735Y-70513128D01*
X133574084Y-70285162D01*
X133574083Y-70285160D01*
X133572391Y-70280809D01*
X133570073Y-70276753D01*
X133448702Y-70064397D01*
X133448700Y-70064395D01*
X133446383Y-70060340D01*
X133289171Y-69860917D01*
X133104209Y-69686923D01*
X133060483Y-69656589D01*
X132899393Y-69544837D01*
X132899390Y-69544835D01*
X132895561Y-69542179D01*
X132891384Y-69540119D01*
X132891377Y-69540115D01*
X132671996Y-69431928D01*
X132671992Y-69431927D01*
X132667810Y-69429864D01*
X132425960Y-69352447D01*
X132421355Y-69351697D01*
X132179935Y-69312380D01*
X132179934Y-69312380D01*
X132175323Y-69311629D01*
X132048364Y-69309967D01*
X131926083Y-69308366D01*
X131926080Y-69308366D01*
X131921406Y-69308305D01*
X131669787Y-69342549D01*
X131425993Y-69413608D01*
X131195380Y-69519922D01*
X131191471Y-69522485D01*
X130986928Y-69656589D01*
X130986923Y-69656593D01*
X130983015Y-69659155D01*
X130928195Y-69708084D01*
X130802128Y-69820603D01*
X130793562Y-69828248D01*
X130631183Y-70023487D01*
X130499447Y-70240582D01*
X130497638Y-70244896D01*
X130497637Y-70244898D01*
X130471333Y-70307626D01*
X130426544Y-70362712D01*
X130355136Y-70384900D01*
X128534797Y-70384900D01*
X128466676Y-70364898D01*
X128420183Y-70311242D01*
X128415274Y-70298777D01*
X128399467Y-70251398D01*
X128399466Y-70251396D01*
X128397150Y-70244454D01*
X128304078Y-70094052D01*
X128178903Y-69969095D01*
X128111667Y-69927650D01*
X128034568Y-69880125D01*
X128034566Y-69880124D01*
X128028338Y-69876285D01*
X127894361Y-69831847D01*
X127866989Y-69822768D01*
X127866987Y-69822768D01*
X127860461Y-69820603D01*
X127853625Y-69819903D01*
X127853622Y-69819902D01*
X127810569Y-69815491D01*
X127756000Y-69809900D01*
X126955200Y-69809900D01*
X126951954Y-69810237D01*
X126951950Y-69810237D01*
X126856292Y-69820162D01*
X126856288Y-69820163D01*
X126849434Y-69820874D01*
X126842898Y-69823055D01*
X126842896Y-69823055D01*
X126739002Y-69857717D01*
X126681654Y-69876850D01*
X126531252Y-69969922D01*
X126475368Y-70025904D01*
X126444816Y-70056509D01*
X126382534Y-70090588D01*
X126311714Y-70085585D01*
X126266625Y-70056664D01*
X126184083Y-69974266D01*
X126178903Y-69969095D01*
X126111667Y-69927650D01*
X126034568Y-69880125D01*
X126034566Y-69880124D01*
X126028338Y-69876285D01*
X125894361Y-69831847D01*
X125866989Y-69822768D01*
X125866987Y-69822768D01*
X125860461Y-69820603D01*
X125853625Y-69819903D01*
X125853622Y-69819902D01*
X125810569Y-69815491D01*
X125756000Y-69809900D01*
X124955200Y-69809900D01*
X124951954Y-69810237D01*
X124951950Y-69810237D01*
X124856292Y-69820162D01*
X124856288Y-69820163D01*
X124849434Y-69820874D01*
X124842898Y-69823055D01*
X124842896Y-69823055D01*
X124739002Y-69857717D01*
X124681654Y-69876850D01*
X124531252Y-69969922D01*
X124406295Y-70095097D01*
X124402455Y-70101327D01*
X124402454Y-70101328D01*
X124319083Y-70236581D01*
X124313485Y-70245662D01*
X124296636Y-70296462D01*
X124279088Y-70349367D01*
X124238658Y-70407727D01*
X124173094Y-70434964D01*
X124159495Y-70435700D01*
X124115197Y-70435700D01*
X124047076Y-70415698D01*
X124000583Y-70362042D01*
X123995674Y-70349577D01*
X123979867Y-70302198D01*
X123979866Y-70302196D01*
X123977550Y-70295254D01*
X123946862Y-70245662D01*
X123888332Y-70151080D01*
X123884478Y-70144852D01*
X123759303Y-70019895D01*
X123686639Y-69975104D01*
X123614968Y-69930925D01*
X123614966Y-69930924D01*
X123608738Y-69927085D01*
X123468909Y-69880706D01*
X123447389Y-69873568D01*
X123447387Y-69873568D01*
X123440861Y-69871403D01*
X123434025Y-69870703D01*
X123434022Y-69870702D01*
X123390969Y-69866291D01*
X123336400Y-69860700D01*
X122535600Y-69860700D01*
X122532354Y-69861037D01*
X122532350Y-69861037D01*
X122436692Y-69870962D01*
X122436688Y-69870963D01*
X122429834Y-69871674D01*
X122423298Y-69873855D01*
X122423296Y-69873855D01*
X122291194Y-69917928D01*
X122262054Y-69927650D01*
X122111652Y-70020722D01*
X122031187Y-70101328D01*
X122025216Y-70107309D01*
X121962934Y-70141388D01*
X121892114Y-70136385D01*
X121847025Y-70107464D01*
X121764483Y-70025066D01*
X121759303Y-70019895D01*
X121686639Y-69975104D01*
X121614968Y-69930925D01*
X121614966Y-69930924D01*
X121608738Y-69927085D01*
X121468909Y-69880706D01*
X121447389Y-69873568D01*
X121447387Y-69873568D01*
X121440861Y-69871403D01*
X121434025Y-69870703D01*
X121434022Y-69870702D01*
X121390969Y-69866291D01*
X121336400Y-69860700D01*
X120535600Y-69860700D01*
X120532354Y-69861037D01*
X120532350Y-69861037D01*
X120436692Y-69870962D01*
X120436688Y-69870963D01*
X120429834Y-69871674D01*
X120423298Y-69873855D01*
X120423296Y-69873855D01*
X120291194Y-69917928D01*
X120262054Y-69927650D01*
X120111652Y-70020722D01*
X119986695Y-70145897D01*
X119982855Y-70152127D01*
X119982854Y-70152128D01*
X119903534Y-70280809D01*
X119893885Y-70296462D01*
X119891581Y-70303409D01*
X119855053Y-70413539D01*
X119838203Y-70464339D01*
X119827500Y-70568800D01*
X119827500Y-71569600D01*
X119827837Y-71572846D01*
X119827837Y-71572850D01*
X119836116Y-71652636D01*
X119838474Y-71675366D01*
X119840655Y-71681902D01*
X119840655Y-71681904D01*
X119855219Y-71725558D01*
X119894450Y-71843146D01*
X119987522Y-71993548D01*
X120112697Y-72118505D01*
X120118927Y-72122345D01*
X120118928Y-72122346D01*
X120256090Y-72206894D01*
X120263262Y-72211315D01*
X120301770Y-72224087D01*
X120360128Y-72264519D01*
X120387364Y-72330083D01*
X120388100Y-72343680D01*
X120388100Y-73598403D01*
X120368098Y-73666524D01*
X120314442Y-73713017D01*
X120301977Y-73717926D01*
X120254598Y-73733733D01*
X120254596Y-73733734D01*
X120247654Y-73736050D01*
X120241430Y-73739902D01*
X120241429Y-73739902D01*
X120193367Y-73769644D01*
X120127064Y-73788500D01*
X118476900Y-73788500D01*
X118408779Y-73768498D01*
X118362286Y-73714842D01*
X118350900Y-73662500D01*
X118350900Y-73523866D01*
X118344145Y-73461684D01*
X118293015Y-73325295D01*
X118205661Y-73208739D01*
X118089105Y-73121385D01*
X117952716Y-73070255D01*
X117890534Y-73063500D01*
X116094266Y-73063500D01*
X116032084Y-73070255D01*
X115895695Y-73121385D01*
X115779139Y-73208739D01*
X115691785Y-73325295D01*
X115640655Y-73461684D01*
X115633900Y-73523866D01*
X115633900Y-75320134D01*
X115640655Y-75382316D01*
X115691785Y-75518705D01*
X115779139Y-75635261D01*
X115895695Y-75722615D01*
X115904104Y-75725767D01*
X115904105Y-75725768D01*
X116012851Y-75766535D01*
X116069616Y-75809176D01*
X116094316Y-75875738D01*
X116079109Y-75945087D01*
X116059716Y-75971568D01*
X116015473Y-76017866D01*
X115933029Y-76104138D01*
X115930115Y-76108410D01*
X115930114Y-76108411D01*
X115917809Y-76126450D01*
X115807143Y-76288680D01*
X115789001Y-76327764D01*
X115726370Y-76462692D01*
X115713088Y-76491305D01*
X115653389Y-76706570D01*
X115629651Y-76928695D01*
X115629948Y-76933848D01*
X115629948Y-76933851D01*
X115642212Y-77146547D01*
X115642510Y-77151715D01*
X115643647Y-77156761D01*
X115643648Y-77156767D01*
X115649154Y-77181198D01*
X115691622Y-77369639D01*
X115733750Y-77473389D01*
X115770177Y-77563097D01*
X115775666Y-77576616D01*
X115795216Y-77608518D01*
X115870117Y-77730746D01*
X115892387Y-77767088D01*
X116038650Y-77935938D01*
X116210526Y-78078632D01*
X116403400Y-78191338D01*
X116612092Y-78271030D01*
X116617160Y-78272061D01*
X116617163Y-78272062D01*
X116724417Y-78293883D01*
X116830997Y-78315567D01*
X116836172Y-78315757D01*
X116836174Y-78315757D01*
X117049073Y-78323564D01*
X117049077Y-78323564D01*
X117054237Y-78323753D01*
X117059357Y-78323097D01*
X117059359Y-78323097D01*
X117270688Y-78296025D01*
X117270689Y-78296025D01*
X117275816Y-78295368D01*
X117280766Y-78293883D01*
X117484829Y-78232661D01*
X117484834Y-78232659D01*
X117489784Y-78231174D01*
X117690394Y-78132896D01*
X117872260Y-78003173D01*
X118030496Y-77845489D01*
X118049017Y-77819715D01*
X118157835Y-77668277D01*
X118160853Y-77664077D01*
X118163146Y-77659437D01*
X118164846Y-77656608D01*
X118217074Y-77608518D01*
X118272851Y-77595500D01*
X119914536Y-77595500D01*
X119982657Y-77615502D01*
X120003554Y-77632327D01*
X120098297Y-77726905D01*
X120104527Y-77730745D01*
X120104528Y-77730746D01*
X120241690Y-77815294D01*
X120248862Y-77819715D01*
X120313915Y-77841292D01*
X120410211Y-77873232D01*
X120410213Y-77873232D01*
X120416739Y-77875397D01*
X120423575Y-77876097D01*
X120423578Y-77876098D01*
X120466631Y-77880509D01*
X120521200Y-77886100D01*
X121522000Y-77886100D01*
X121525246Y-77885763D01*
X121525250Y-77885763D01*
X121620908Y-77875838D01*
X121620912Y-77875837D01*
X121627766Y-77875126D01*
X121634302Y-77872945D01*
X121634304Y-77872945D01*
X121766406Y-77828872D01*
X121795546Y-77819150D01*
X121945948Y-77726078D01*
X122070905Y-77600903D01*
X122077933Y-77589502D01*
X122159875Y-77456568D01*
X122159876Y-77456566D01*
X122163715Y-77450338D01*
X122219397Y-77282461D01*
X122230100Y-77178000D01*
X122230100Y-76377200D01*
X122223941Y-76317840D01*
X122219838Y-76278292D01*
X122219837Y-76278288D01*
X122219126Y-76271434D01*
X122213591Y-76254842D01*
X122165468Y-76110602D01*
X122163150Y-76103654D01*
X122070078Y-75953252D01*
X121983491Y-75866816D01*
X121949412Y-75804534D01*
X121954415Y-75733714D01*
X121983336Y-75688625D01*
X122065734Y-75606083D01*
X122070905Y-75600903D01*
X122163715Y-75450338D01*
X122205775Y-75323531D01*
X122217232Y-75288989D01*
X122217232Y-75288987D01*
X122219397Y-75282461D01*
X122230100Y-75178000D01*
X122230100Y-74377200D01*
X122219126Y-74271434D01*
X122213834Y-74255570D01*
X122165468Y-74110602D01*
X122163150Y-74103654D01*
X122070078Y-73953252D01*
X121944903Y-73828295D01*
X121794338Y-73735485D01*
X121741432Y-73717937D01*
X121683073Y-73677506D01*
X121655836Y-73611942D01*
X121655100Y-73598344D01*
X121655100Y-72253010D01*
X121675102Y-72184889D01*
X121714797Y-72145866D01*
X121754120Y-72121532D01*
X121760348Y-72117678D01*
X121846784Y-72031091D01*
X121909066Y-71997012D01*
X121979886Y-72002015D01*
X122024975Y-72030936D01*
X122047075Y-72052997D01*
X122112697Y-72118505D01*
X122118927Y-72122345D01*
X122118928Y-72122346D01*
X122256090Y-72206894D01*
X122263262Y-72211315D01*
X122301769Y-72224087D01*
X122424611Y-72264832D01*
X122424613Y-72264832D01*
X122431139Y-72266997D01*
X122437975Y-72267697D01*
X122437978Y-72267698D01*
X122481031Y-72272109D01*
X122535600Y-72277700D01*
X123336400Y-72277700D01*
X123339646Y-72277363D01*
X123339650Y-72277363D01*
X123435308Y-72267438D01*
X123435312Y-72267437D01*
X123442166Y-72266726D01*
X123448702Y-72264545D01*
X123448704Y-72264545D01*
X123600969Y-72213745D01*
X123609946Y-72210750D01*
X123760348Y-72117678D01*
X123885305Y-71992503D01*
X123892928Y-71980136D01*
X123974275Y-71848168D01*
X123974276Y-71848166D01*
X123978115Y-71841938D01*
X123995663Y-71789032D01*
X124036094Y-71730673D01*
X124101658Y-71703436D01*
X124115256Y-71702700D01*
X124193351Y-71702700D01*
X124261472Y-71722702D01*
X124307965Y-71776358D01*
X124310435Y-71782629D01*
X124311731Y-71785396D01*
X124314050Y-71792346D01*
X124407122Y-71942748D01*
X124532297Y-72067705D01*
X124538527Y-72071545D01*
X124538528Y-72071546D01*
X124675690Y-72156094D01*
X124682862Y-72160515D01*
X124750074Y-72182808D01*
X124844211Y-72214032D01*
X124844213Y-72214032D01*
X124850739Y-72216197D01*
X124857575Y-72216897D01*
X124857578Y-72216898D01*
X124900631Y-72221309D01*
X124955200Y-72226900D01*
X125756000Y-72226900D01*
X125759246Y-72226563D01*
X125759250Y-72226563D01*
X125854908Y-72216638D01*
X125854912Y-72216637D01*
X125861766Y-72215926D01*
X125868302Y-72213745D01*
X125868304Y-72213745D01*
X126000406Y-72169672D01*
X126029546Y-72159950D01*
X126179948Y-72066878D01*
X126266384Y-71980291D01*
X126328666Y-71946212D01*
X126399486Y-71951215D01*
X126444575Y-71980136D01*
X126466492Y-72002015D01*
X126532297Y-72067705D01*
X126538527Y-72071545D01*
X126538528Y-72071546D01*
X126675690Y-72156094D01*
X126682862Y-72160515D01*
X126750074Y-72182808D01*
X126844211Y-72214032D01*
X126844213Y-72214032D01*
X126850739Y-72216197D01*
X126857575Y-72216897D01*
X126857578Y-72216898D01*
X126900631Y-72221309D01*
X126955200Y-72226900D01*
X127756000Y-72226900D01*
X127759246Y-72226563D01*
X127759250Y-72226563D01*
X127854908Y-72216638D01*
X127854912Y-72216637D01*
X127861766Y-72215926D01*
X127868302Y-72213745D01*
X127868304Y-72213745D01*
X128000406Y-72169672D01*
X128029546Y-72159950D01*
X128179948Y-72066878D01*
X128304905Y-71941703D01*
X128355591Y-71859475D01*
X128393875Y-71797368D01*
X128393876Y-71797366D01*
X128397715Y-71791138D01*
X128415263Y-71738232D01*
X128455694Y-71679873D01*
X128521258Y-71652636D01*
X128534856Y-71651900D01*
X130040005Y-71651900D01*
X130108126Y-71671902D01*
X130154619Y-71725558D01*
X130164723Y-71795832D01*
X130135229Y-71860412D01*
X130129100Y-71866995D01*
X127769486Y-74226609D01*
X127707174Y-74260635D01*
X127636359Y-74255570D01*
X127604831Y-74238343D01*
X127537905Y-74188185D01*
X127401516Y-74137055D01*
X127339334Y-74130300D01*
X125543066Y-74130300D01*
X125480884Y-74137055D01*
X125344495Y-74188185D01*
X125227939Y-74275539D01*
X125140585Y-74392095D01*
X125089455Y-74528484D01*
X125082700Y-74590666D01*
X125082700Y-76386934D01*
X125089455Y-76449116D01*
X125140585Y-76585505D01*
X125227939Y-76702061D01*
X125344495Y-76789415D01*
X125352904Y-76792567D01*
X125352905Y-76792568D01*
X125461651Y-76833335D01*
X125518416Y-76875976D01*
X125543116Y-76942538D01*
X125527909Y-77011887D01*
X125508516Y-77038368D01*
X125405138Y-77146547D01*
X125381829Y-77170938D01*
X125378915Y-77175210D01*
X125378914Y-77175211D01*
X125374830Y-77181198D01*
X125255943Y-77355480D01*
X125161888Y-77558105D01*
X125102189Y-77773370D01*
X125078451Y-77995495D01*
X125078748Y-78000648D01*
X125078748Y-78000651D01*
X125086708Y-78138697D01*
X125091310Y-78218515D01*
X125092447Y-78223561D01*
X125092448Y-78223567D01*
X125107254Y-78289262D01*
X125140422Y-78436439D01*
X125224466Y-78643416D01*
X125341187Y-78833888D01*
X125487450Y-79002738D01*
X125659326Y-79145432D01*
X125663793Y-79148042D01*
X125745270Y-79195653D01*
X125793994Y-79247291D01*
X125807700Y-79304441D01*
X125807700Y-81431985D01*
X125787698Y-81500106D01*
X125734042Y-81546599D01*
X125724792Y-81550387D01*
X125719935Y-81552155D01*
X125714623Y-81553578D01*
X125709643Y-81555900D01*
X125709641Y-81555901D01*
X125524785Y-81642101D01*
X125524782Y-81642103D01*
X125519804Y-81644424D01*
X125343719Y-81767719D01*
X125191719Y-81919719D01*
X125131049Y-82006365D01*
X125117882Y-82025170D01*
X125062425Y-82069499D01*
X125014669Y-82078900D01*
X123868363Y-82078900D01*
X123857179Y-82078373D01*
X123849691Y-82076699D01*
X123841768Y-82076948D01*
X123781633Y-82078838D01*
X123777675Y-82078900D01*
X123749744Y-82078900D01*
X123745829Y-82079395D01*
X123745825Y-82079395D01*
X123745767Y-82079403D01*
X123745738Y-82079406D01*
X123733896Y-82080339D01*
X123689710Y-82081727D01*
X123672344Y-82086772D01*
X123670258Y-82087378D01*
X123650906Y-82091386D01*
X123638668Y-82092932D01*
X123638666Y-82092933D01*
X123630803Y-82093926D01*
X123589686Y-82110206D01*
X123578485Y-82114041D01*
X123536006Y-82126382D01*
X123529187Y-82130415D01*
X123529182Y-82130417D01*
X123518571Y-82136693D01*
X123500821Y-82145390D01*
X123481983Y-82152848D01*
X123475567Y-82157509D01*
X123475566Y-82157510D01*
X123446225Y-82178828D01*
X123436301Y-82185347D01*
X123405060Y-82203822D01*
X123405055Y-82203826D01*
X123398237Y-82207858D01*
X123383913Y-82222182D01*
X123368881Y-82235021D01*
X123352493Y-82246928D01*
X123325933Y-82279034D01*
X123324312Y-82280993D01*
X123316322Y-82289773D01*
X120765747Y-84840348D01*
X120757461Y-84847888D01*
X120750982Y-84852000D01*
X120745557Y-84857777D01*
X120704357Y-84901651D01*
X120701602Y-84904493D01*
X120681865Y-84924230D01*
X120679385Y-84927427D01*
X120671682Y-84936447D01*
X120641414Y-84968679D01*
X120637595Y-84975625D01*
X120637593Y-84975628D01*
X120631652Y-84986434D01*
X120620801Y-85002953D01*
X120608386Y-85018959D01*
X120605241Y-85026228D01*
X120605238Y-85026232D01*
X120590826Y-85059537D01*
X120585609Y-85070187D01*
X120564305Y-85108940D01*
X120562334Y-85116615D01*
X120562334Y-85116616D01*
X120559267Y-85128562D01*
X120552863Y-85147266D01*
X120544819Y-85165855D01*
X120543580Y-85173678D01*
X120543577Y-85173688D01*
X120537901Y-85209524D01*
X120535495Y-85221144D01*
X120526472Y-85256289D01*
X120524500Y-85263970D01*
X120524500Y-85284224D01*
X120522949Y-85303934D01*
X120519780Y-85323943D01*
X120520526Y-85331835D01*
X120523941Y-85367961D01*
X120524500Y-85379819D01*
X120524500Y-99442000D01*
X120504498Y-99510121D01*
X120450842Y-99556614D01*
X120398500Y-99568000D01*
X115824000Y-99568000D01*
X115824000Y-105371700D01*
X115803998Y-105439821D01*
X115750342Y-105486314D01*
X115698000Y-105497700D01*
X114809796Y-105497700D01*
X114741675Y-105477698D01*
X114702654Y-105438006D01*
X114688078Y-105414452D01*
X114562903Y-105289495D01*
X114502364Y-105252178D01*
X114418568Y-105200525D01*
X114418566Y-105200524D01*
X114412338Y-105196685D01*
X114251854Y-105143455D01*
X114250989Y-105143168D01*
X114250987Y-105143168D01*
X114244461Y-105141003D01*
X114237625Y-105140303D01*
X114237622Y-105140302D01*
X114194569Y-105135891D01*
X114140000Y-105130300D01*
X113139200Y-105130300D01*
X113135954Y-105130637D01*
X113135950Y-105130637D01*
X113040292Y-105140562D01*
X113040288Y-105140563D01*
X113033434Y-105141274D01*
X113026898Y-105143455D01*
X113026896Y-105143455D01*
X112899911Y-105185821D01*
X112865654Y-105197250D01*
X112715252Y-105290322D01*
X112710079Y-105295504D01*
X112687974Y-105317648D01*
X112590295Y-105415497D01*
X112586455Y-105421727D01*
X112586454Y-105421728D01*
X112509238Y-105546996D01*
X112497485Y-105566062D01*
X112481381Y-105614614D01*
X112446839Y-105718757D01*
X112441803Y-105733939D01*
X112431100Y-105838400D01*
X112431100Y-106639200D01*
X109474500Y-106639200D01*
X109474500Y-86323166D01*
X115711457Y-86323166D01*
X115741765Y-86457646D01*
X115744845Y-86467475D01*
X115824970Y-86664803D01*
X115829613Y-86673994D01*
X115940894Y-86855588D01*
X115946977Y-86863899D01*
X116086413Y-87024867D01*
X116093780Y-87032083D01*
X116257634Y-87168116D01*
X116266081Y-87174031D01*
X116449956Y-87281479D01*
X116459242Y-87285929D01*
X116658201Y-87361903D01*
X116668099Y-87364779D01*
X116771450Y-87385806D01*
X116785499Y-87384610D01*
X116789200Y-87374265D01*
X116789200Y-87373717D01*
X117297200Y-87373717D01*
X117301264Y-87387559D01*
X117314678Y-87389593D01*
X117321384Y-87388734D01*
X117331462Y-87386592D01*
X117535455Y-87325391D01*
X117545042Y-87321633D01*
X117736295Y-87227939D01*
X117745145Y-87222664D01*
X117918528Y-87098992D01*
X117926400Y-87092339D01*
X118077252Y-86942012D01*
X118083930Y-86934165D01*
X118208203Y-86761220D01*
X118213513Y-86752383D01*
X118307870Y-86561467D01*
X118311669Y-86551872D01*
X118373577Y-86348110D01*
X118375755Y-86338037D01*
X118377186Y-86327162D01*
X118374975Y-86312978D01*
X118361817Y-86309200D01*
X117315315Y-86309200D01*
X117300076Y-86313675D01*
X117298871Y-86315065D01*
X117297200Y-86322748D01*
X117297200Y-87373717D01*
X116789200Y-87373717D01*
X116789200Y-86327315D01*
X116784725Y-86312076D01*
X116783335Y-86310871D01*
X116775652Y-86309200D01*
X115726425Y-86309200D01*
X115712894Y-86313173D01*
X115711457Y-86323166D01*
X109474500Y-86323166D01*
X109474500Y-84413334D01*
X115684700Y-84413334D01*
X115691455Y-84475516D01*
X115742585Y-84611905D01*
X115829939Y-84728461D01*
X115946495Y-84815815D01*
X115954904Y-84818967D01*
X115954905Y-84818968D01*
X116064160Y-84859926D01*
X116120925Y-84902567D01*
X116145625Y-84969129D01*
X116130418Y-85038478D01*
X116111025Y-85064959D01*
X115987790Y-85193917D01*
X115981304Y-85201927D01*
X115861298Y-85377849D01*
X115856200Y-85386823D01*
X115766538Y-85579983D01*
X115762975Y-85589670D01*
X115707589Y-85789383D01*
X115709112Y-85797807D01*
X115721492Y-85801200D01*
X118361544Y-85801200D01*
X118375075Y-85797227D01*
X118376380Y-85788147D01*
X118334414Y-85621075D01*
X118331094Y-85611324D01*
X118246172Y-85416014D01*
X118241305Y-85406939D01*
X118125626Y-85228126D01*
X118119336Y-85219957D01*
X117975493Y-85061877D01*
X117944441Y-84998031D01*
X117952835Y-84927533D01*
X117998012Y-84872764D01*
X118024456Y-84859095D01*
X118131497Y-84818967D01*
X118139905Y-84815815D01*
X118256461Y-84728461D01*
X118343815Y-84611905D01*
X118394945Y-84475516D01*
X118401700Y-84413334D01*
X118401700Y-82617066D01*
X118394945Y-82554884D01*
X118343815Y-82418495D01*
X118256461Y-82301939D01*
X118139905Y-82214585D01*
X118003516Y-82163455D01*
X117941334Y-82156700D01*
X116145066Y-82156700D01*
X116082884Y-82163455D01*
X115946495Y-82214585D01*
X115829939Y-82301939D01*
X115742585Y-82418495D01*
X115691455Y-82554884D01*
X115684700Y-82617066D01*
X115684700Y-84413334D01*
X109474500Y-84413334D01*
X109474500Y-66524381D01*
X111641160Y-66524381D01*
X111641237Y-66525470D01*
X111643698Y-66529206D01*
X111917632Y-66739404D01*
X111923262Y-66743259D01*
X112223591Y-66925862D01*
X112229593Y-66929080D01*
X112547897Y-67078184D01*
X112554202Y-67080732D01*
X112886743Y-67194587D01*
X112893313Y-67196446D01*
X113236183Y-67273714D01*
X113242912Y-67274853D01*
X113592143Y-67314643D01*
X113598933Y-67315046D01*
X113950419Y-67316886D01*
X113957220Y-67316554D01*
X114306853Y-67280423D01*
X114313581Y-67279357D01*
X114657274Y-67205676D01*
X114663822Y-67203897D01*
X114997549Y-67093527D01*
X115003891Y-67091041D01*
X115323718Y-66945288D01*
X115329777Y-66942121D01*
X115605545Y-66778381D01*
X171077160Y-66778381D01*
X171077237Y-66779470D01*
X171079698Y-66783206D01*
X171353632Y-66993404D01*
X171359262Y-66997259D01*
X171659591Y-67179862D01*
X171665593Y-67183080D01*
X171983897Y-67332184D01*
X171990202Y-67334732D01*
X172322743Y-67448587D01*
X172329313Y-67450446D01*
X172672183Y-67527714D01*
X172678912Y-67528853D01*
X173028143Y-67568643D01*
X173034933Y-67569046D01*
X173386419Y-67570886D01*
X173393220Y-67570554D01*
X173742853Y-67534423D01*
X173749581Y-67533357D01*
X174093274Y-67459676D01*
X174099822Y-67457897D01*
X174433549Y-67347527D01*
X174439891Y-67345041D01*
X174759718Y-67199288D01*
X174765777Y-67196121D01*
X175067995Y-67016676D01*
X175073659Y-67012884D01*
X175354732Y-66801849D01*
X175359958Y-66797464D01*
X175369613Y-66788428D01*
X175377682Y-66774750D01*
X175377654Y-66774024D01*
X175372512Y-66765723D01*
X173240810Y-64634020D01*
X173226869Y-64626408D01*
X173225034Y-64626539D01*
X173218420Y-64630790D01*
X171084774Y-66764437D01*
X171077160Y-66778381D01*
X115605545Y-66778381D01*
X115631995Y-66762676D01*
X115637659Y-66758884D01*
X115918732Y-66547849D01*
X115923958Y-66543464D01*
X115933613Y-66534428D01*
X115941682Y-66520750D01*
X115941654Y-66520024D01*
X115936512Y-66511723D01*
X113804810Y-64380020D01*
X113790869Y-64372408D01*
X113789034Y-64372539D01*
X113782420Y-64376790D01*
X111648774Y-66510437D01*
X111641160Y-66524381D01*
X109474500Y-66524381D01*
X109474500Y-63999832D01*
X110479333Y-63999832D01*
X110497117Y-64350893D01*
X110497827Y-64357649D01*
X110553420Y-64704723D01*
X110554859Y-64711378D01*
X110647608Y-65050410D01*
X110649757Y-65056871D01*
X110778581Y-65383912D01*
X110781412Y-65390095D01*
X110944803Y-65701310D01*
X110948286Y-65707152D01*
X111144330Y-65998896D01*
X111148433Y-66004340D01*
X111268425Y-66146836D01*
X111281164Y-66155279D01*
X111291608Y-66149181D01*
X113419980Y-64020810D01*
X113426357Y-64009131D01*
X114156408Y-64009131D01*
X114156539Y-64010966D01*
X114160790Y-64017580D01*
X116291009Y-66147798D01*
X116304605Y-66155223D01*
X116314218Y-66148522D01*
X116414518Y-66031912D01*
X116418676Y-66026514D01*
X116617762Y-65736840D01*
X116621310Y-65731029D01*
X116787942Y-65421559D01*
X116790849Y-65415381D01*
X116923090Y-65089713D01*
X116925304Y-65083283D01*
X117021598Y-64745237D01*
X117023105Y-64738607D01*
X117082332Y-64392118D01*
X117083112Y-64385378D01*
X117091157Y-64253832D01*
X169915333Y-64253832D01*
X169933117Y-64604893D01*
X169933827Y-64611649D01*
X169989420Y-64958723D01*
X169990859Y-64965378D01*
X170083608Y-65304410D01*
X170085757Y-65310871D01*
X170214581Y-65637912D01*
X170217412Y-65644095D01*
X170380803Y-65955310D01*
X170384286Y-65961152D01*
X170580330Y-66252896D01*
X170584433Y-66258340D01*
X170704425Y-66400836D01*
X170717164Y-66409279D01*
X170727608Y-66403181D01*
X172855980Y-64274810D01*
X172862357Y-64263131D01*
X173592408Y-64263131D01*
X173592539Y-64264966D01*
X173596790Y-64271580D01*
X175727009Y-66401798D01*
X175740605Y-66409223D01*
X175750218Y-66402522D01*
X175850518Y-66285912D01*
X175854676Y-66280514D01*
X176053762Y-65990840D01*
X176057310Y-65985029D01*
X176223942Y-65675559D01*
X176226849Y-65669381D01*
X176359090Y-65343713D01*
X176361304Y-65337283D01*
X176457598Y-64999237D01*
X176459105Y-64992607D01*
X176518332Y-64646118D01*
X176519112Y-64639378D01*
X176540668Y-64286925D01*
X176540784Y-64283323D01*
X176540853Y-64263819D01*
X176540761Y-64260194D01*
X176521666Y-63907615D01*
X176520931Y-63900849D01*
X176464130Y-63553985D01*
X176462663Y-63547313D01*
X176368736Y-63208627D01*
X176366562Y-63202163D01*
X176236598Y-62875578D01*
X176233742Y-62869398D01*
X176069269Y-62558763D01*
X176065769Y-62552937D01*
X175868697Y-62261862D01*
X175864590Y-62256453D01*
X175751565Y-62123179D01*
X175738740Y-62114743D01*
X175728416Y-62120795D01*
X173600020Y-64249190D01*
X173592408Y-64263131D01*
X172862357Y-64263131D01*
X172863592Y-64260869D01*
X172863461Y-64259034D01*
X172859210Y-64252420D01*
X170728992Y-62122203D01*
X170715455Y-62114811D01*
X170705753Y-62121599D01*
X170598430Y-62247257D01*
X170594296Y-62252664D01*
X170396215Y-62543041D01*
X170392697Y-62548851D01*
X170227134Y-62858922D01*
X170224259Y-62865087D01*
X170093155Y-63191218D01*
X170090962Y-63197658D01*
X169995846Y-63536044D01*
X169994363Y-63542679D01*
X169936350Y-63889354D01*
X169935591Y-63896126D01*
X169915357Y-64247037D01*
X169915333Y-64253832D01*
X117091157Y-64253832D01*
X117104668Y-64032925D01*
X117104784Y-64029323D01*
X117104853Y-64009819D01*
X117104761Y-64006194D01*
X117085666Y-63653615D01*
X117084931Y-63646849D01*
X117028130Y-63299985D01*
X117026663Y-63293313D01*
X116932736Y-62954627D01*
X116930562Y-62948163D01*
X116800598Y-62621578D01*
X116797742Y-62615398D01*
X116633269Y-62304763D01*
X116629769Y-62298937D01*
X116432697Y-62007862D01*
X116428590Y-62002453D01*
X116315565Y-61869179D01*
X116302740Y-61860743D01*
X116292416Y-61866795D01*
X114164020Y-63995190D01*
X114156408Y-64009131D01*
X113426357Y-64009131D01*
X113427592Y-64006869D01*
X113427461Y-64005034D01*
X113423210Y-63998420D01*
X111292992Y-61868203D01*
X111279455Y-61860811D01*
X111269753Y-61867599D01*
X111162430Y-61993257D01*
X111158296Y-61998664D01*
X110960215Y-62289041D01*
X110956697Y-62294851D01*
X110791134Y-62604922D01*
X110788259Y-62611087D01*
X110657155Y-62937218D01*
X110654962Y-62943658D01*
X110559846Y-63282044D01*
X110558363Y-63288679D01*
X110500350Y-63635354D01*
X110499591Y-63642126D01*
X110479357Y-63993037D01*
X110479333Y-63999832D01*
X109474500Y-63999832D01*
X109474500Y-61494862D01*
X111641950Y-61494862D01*
X111641986Y-61495704D01*
X111647037Y-61503826D01*
X112924528Y-62781318D01*
X113779190Y-63635980D01*
X113793131Y-63643592D01*
X113794966Y-63643461D01*
X113801580Y-63639210D01*
X115691927Y-61748862D01*
X171077950Y-61748862D01*
X171077986Y-61749704D01*
X171083037Y-61757826D01*
X173215190Y-63889980D01*
X173229131Y-63897592D01*
X173230966Y-63897461D01*
X173237580Y-63893210D01*
X173936411Y-63194379D01*
X175370798Y-61759991D01*
X175378412Y-61746047D01*
X175378344Y-61745090D01*
X175373834Y-61738271D01*
X175372418Y-61737065D01*
X175092813Y-61524064D01*
X175087187Y-61520240D01*
X174786214Y-61338681D01*
X174780202Y-61335484D01*
X174461370Y-61187487D01*
X174455070Y-61184967D01*
X174122129Y-61072273D01*
X174115551Y-61070437D01*
X173772417Y-60994367D01*
X173765678Y-60993251D01*
X173416310Y-60954680D01*
X173409529Y-60954301D01*
X173058015Y-60953687D01*
X173051242Y-60954042D01*
X172701720Y-60991395D01*
X172695010Y-60992482D01*
X172351586Y-61067361D01*
X172345011Y-61069172D01*
X172011683Y-61180702D01*
X172005361Y-61183205D01*
X171686034Y-61330079D01*
X171679991Y-61333265D01*
X171378401Y-61513763D01*
X171372755Y-61517571D01*
X171092408Y-61729596D01*
X171087211Y-61733987D01*
X171085972Y-61735155D01*
X171077950Y-61748862D01*
X115691927Y-61748862D01*
X115934798Y-61505991D01*
X115942412Y-61492047D01*
X115942344Y-61491089D01*
X115937836Y-61484272D01*
X115936418Y-61483065D01*
X115656813Y-61270064D01*
X115651187Y-61266240D01*
X115350214Y-61084681D01*
X115344202Y-61081484D01*
X115025370Y-60933487D01*
X115019070Y-60930967D01*
X114686129Y-60818273D01*
X114679551Y-60816437D01*
X114336417Y-60740367D01*
X114329678Y-60739251D01*
X113980310Y-60700680D01*
X113973529Y-60700301D01*
X113622015Y-60699687D01*
X113615242Y-60700042D01*
X113265720Y-60737395D01*
X113259010Y-60738482D01*
X112915586Y-60813361D01*
X112909011Y-60815172D01*
X112575683Y-60926702D01*
X112569361Y-60929205D01*
X112250034Y-61076079D01*
X112243991Y-61079265D01*
X111942401Y-61259763D01*
X111936755Y-61263571D01*
X111656408Y-61475596D01*
X111651211Y-61479987D01*
X111649972Y-61481155D01*
X111641950Y-61494862D01*
X109474500Y-61494862D01*
X109474500Y-60070500D01*
X109494502Y-60002379D01*
X109548158Y-59955886D01*
X109600500Y-59944500D01*
X176911500Y-59944500D01*
X176979621Y-59964502D01*
G37*
G04 #@! TD.AperFunction*
M02*
