G04 #@! TF.GenerationSoftware,KiCad,Pcbnew,(6.0.9)*
G04 #@! TF.CreationDate,2022-12-01T15:56:23+01:00*
G04 #@! TF.ProjectId,Twin-T,5477696e-2d54-42e6-9b69-6361645f7063,rev?*
G04 #@! TF.SameCoordinates,Original*
G04 #@! TF.FileFunction,Soldermask,Bot*
G04 #@! TF.FilePolarity,Negative*
%FSLAX46Y46*%
G04 Gerber Fmt 4.6, Leading zero omitted, Abs format (unit mm)*
G04 Created by KiCad (PCBNEW (6.0.9)) date 2022-12-01 15:56:23*
%MOMM*%
%LPD*%
G01*
G04 APERTURE LIST*
G04 Aperture macros list*
%AMRoundRect*
0 Rectangle with rounded corners*
0 $1 Rounding radius*
0 $2 $3 $4 $5 $6 $7 $8 $9 X,Y pos of 4 corners*
0 Add a 4 corners polygon primitive as box body*
4,1,4,$2,$3,$4,$5,$6,$7,$8,$9,$2,$3,0*
0 Add four circle primitives for the rounded corners*
1,1,$1+$1,$2,$3*
1,1,$1+$1,$4,$5*
1,1,$1+$1,$6,$7*
1,1,$1+$1,$8,$9*
0 Add four rect primitives between the rounded corners*
20,1,$1+$1,$2,$3,$4,$5,0*
20,1,$1+$1,$4,$5,$6,$7,0*
20,1,$1+$1,$6,$7,$8,$9,0*
20,1,$1+$1,$8,$9,$2,$3,0*%
G04 Aperture macros list end*
%ADD10R,1.700000X1.700000*%
%ADD11O,1.700000X1.700000*%
%ADD12C,1.440000*%
%ADD13C,5.600000*%
%ADD14C,3.600000*%
%ADD15R,2.400000X2.400000*%
%ADD16O,2.400000X2.400000*%
%ADD17R,2.400000X1.600000*%
%ADD18O,2.400000X1.600000*%
%ADD19R,1.600000X1.600000*%
%ADD20C,1.600000*%
%ADD21RoundRect,0.250000X-0.475000X0.337500X-0.475000X-0.337500X0.475000X-0.337500X0.475000X0.337500X0*%
%ADD22RoundRect,0.250000X0.337500X0.475000X-0.337500X0.475000X-0.337500X-0.475000X0.337500X-0.475000X0*%
%ADD23RoundRect,0.250000X0.475000X-0.337500X0.475000X0.337500X-0.475000X0.337500X-0.475000X-0.337500X0*%
G04 APERTURE END LIST*
D10*
X126441200Y-75488800D03*
D11*
X126441200Y-78028800D03*
D12*
X126136400Y-87792400D03*
X126136400Y-85252400D03*
X126136400Y-82712400D03*
D13*
X113792000Y-64008000D03*
D14*
X113792000Y-64008000D03*
D15*
X132232400Y-107188000D03*
D16*
X157232400Y-107188000D03*
D15*
X132076800Y-94843600D03*
D16*
X157076800Y-94843600D03*
D14*
X172974000Y-128524000D03*
D13*
X172974000Y-128524000D03*
D17*
X164119800Y-103337200D03*
D18*
X164119800Y-105877200D03*
X164119800Y-108417200D03*
X164119800Y-110957200D03*
X171739800Y-110957200D03*
X171739800Y-108417200D03*
X171739800Y-105877200D03*
X171739800Y-103337200D03*
D19*
X147828000Y-120396000D03*
D20*
X147828000Y-117896000D03*
D10*
X165912800Y-119786400D03*
D11*
X168452800Y-119786400D03*
X170992800Y-119786400D03*
D15*
X157026000Y-71018400D03*
D16*
X132026000Y-71018400D03*
D15*
X157026000Y-82550000D03*
D16*
X132026000Y-82550000D03*
D10*
X138156000Y-115341000D03*
D11*
X135616000Y-115341000D03*
D10*
X166141000Y-92222000D03*
D11*
X166141000Y-94762000D03*
D10*
X117043200Y-83515200D03*
D11*
X117043200Y-86055200D03*
D19*
X157886400Y-120003580D03*
D20*
X157886400Y-117503580D03*
D13*
X173228000Y-64262000D03*
D14*
X173228000Y-64262000D03*
D10*
X116992400Y-74422000D03*
D11*
X116992400Y-76962000D03*
D17*
X117703600Y-117449600D03*
D18*
X117703600Y-119989600D03*
X117703600Y-122529600D03*
X117703600Y-125069600D03*
X125323600Y-125069600D03*
X125323600Y-122529600D03*
X125323600Y-119989600D03*
X125323600Y-117449600D03*
D14*
X113284000Y-128524000D03*
D13*
X113284000Y-128524000D03*
D17*
X117790200Y-101051200D03*
D18*
X117790200Y-103591200D03*
X117790200Y-106131200D03*
X117790200Y-108671200D03*
X125410200Y-108671200D03*
X125410200Y-106131200D03*
X125410200Y-103591200D03*
X125410200Y-101051200D03*
D21*
X174752000Y-105998100D03*
X174752000Y-108073100D03*
D22*
X119909500Y-128117600D03*
X117834500Y-128117600D03*
D21*
X161036000Y-111078100D03*
X161036000Y-113153100D03*
D22*
X117623500Y-110998000D03*
X115548500Y-110998000D03*
X130780700Y-119786400D03*
X128705700Y-119786400D03*
D23*
X129336800Y-103675000D03*
X129336800Y-101600000D03*
M02*
