M48
; DRILL file {KiCad (6.0.9)} date Thu Dec  1 15:56:26 2022
; FORMAT={-:-/ absolute / metric / decimal}
; #@! TF.CreationDate,2022-12-01T15:56:26+01:00
; #@! TF.GenerationSoftware,Kicad,Pcbnew,(6.0.9)
; #@! TF.FileFunction,Plated,1,2,PTH
FMAT,2
METRIC
; #@! TA.AperFunction,Plated,PTH,ViaDrill
T1C0.400
; #@! TA.AperFunction,Plated,PTH,ComponentDrill
T2C0.800
; #@! TA.AperFunction,Plated,PTH,ComponentDrill
T3C1.000
; #@! TA.AperFunction,Plated,PTH,ComponentDrill
T4C1.200
; #@! TA.AperFunction,Plated,PTH,ComponentDrill
T5C3.200
%
G90
G05
T1
X111.506Y-69.596
X111.506Y-74.422
X111.506Y-79.756
X111.506Y-84.582
X111.506Y-89.662
X111.506Y-94.996
X111.506Y-99.822
X111.506Y-105.156
X111.506Y-110.236
X111.506Y-115.316
X111.506Y-120.142
X119.634Y-114.046
X121.666Y-64.516
X124.714Y-114.046
X126.746Y-64.516
X131.826Y-64.516
X132.334Y-114.046
X134.112Y-125.476
X137.16Y-64.516
X137.16Y-110.49
X139.446Y-79.756
X139.446Y-84.836
X139.446Y-92.456
X139.446Y-97.536
X139.7Y-68.58
X139.7Y-73.66
X139.7Y-125.476
X140.462Y-105.156
X142.24Y-64.516
X144.526Y-125.476
X147.32Y-64.516
X149.352Y-68.58
X149.352Y-73.66
X149.352Y-79.756
X149.352Y-84.836
X149.606Y-92.456
X149.606Y-97.536
X149.606Y-105.156
X149.606Y-110.236
X149.606Y-125.476
X152.146Y-64.516
X154.686Y-125.476
X157.226Y-64.516
X159.766Y-125.476
X162.306Y-64.516
X165.1Y-125.476
X167.132Y-64.516
X175.006Y-69.596
X175.006Y-74.676
X175.006Y-79.502
X175.006Y-84.836
X175.006Y-89.662
X175.006Y-94.996
X175.006Y-110.236
X175.006Y-115.316
X175.006Y-120.65
X175.26Y-100.076
T2
X117.704Y-117.45
X117.704Y-119.99
X117.704Y-122.53
X117.704Y-125.07
X117.79Y-101.051
X117.79Y-103.591
X117.79Y-106.131
X117.79Y-108.671
X125.324Y-117.45
X125.324Y-119.99
X125.324Y-122.53
X125.324Y-125.07
X125.41Y-101.051
X125.41Y-103.591
X125.41Y-106.131
X125.41Y-108.671
X126.136Y-82.712
X126.136Y-85.252
X126.136Y-87.792
X147.828Y-117.896
X147.828Y-120.396
X157.886Y-117.504
X157.886Y-120.004
X164.12Y-103.337
X164.12Y-105.877
X164.12Y-108.417
X164.12Y-110.957
X171.74Y-103.337
X171.74Y-105.877
X171.74Y-108.417
X171.74Y-110.957
T3
X116.992Y-74.422
X116.992Y-76.962
X117.043Y-83.515
X117.043Y-86.055
X126.441Y-75.489
X126.441Y-78.029
X135.616Y-115.341
X138.156Y-115.341
X165.913Y-119.786
X166.141Y-92.222
X166.141Y-94.762
X168.453Y-119.786
X170.993Y-119.786
T4
X132.026Y-71.018
X132.026Y-82.55
X132.077Y-94.844
X132.232Y-107.188
X157.026Y-71.018
X157.026Y-82.55
X157.077Y-94.844
X157.232Y-107.188
T5
X113.284Y-128.524
X113.792Y-64.008
X172.974Y-128.524
X173.228Y-64.262
T0
M30
